<?xml version="1.0" encoding="UTF-8" standalone="no"?>
<svg viewBox="0 0 200 1004"
     preserveAspectRatio="xMidYMid meet"
     version="1.1"
     baseProfile="full"
     xmlns="http://www.w3.org/2000/svg"
     xmlns:xlink="http://www.w3.org/1999/xlink"
     xmlns:ev="http://www.w3.org/2001/xml-events"
     xml:space="preserve">
<title>snn_ecg_30min_final_top</title>
<desc>Nlview schematic (SVG)</desc>
<clipPath id="clippingbbox">
<rect x="0" y="0" width="1004" height="200" />
</clipPath>
<g stroke="#19b400"
   stroke-width="1"
   stroke-linecap="butt"
   stroke-linejoin="miter"
   stroke-miterlimit="4"
   stroke-dasharray="none"
   stroke-dashoffset="0"
   fill="none"
   font-family="Helvetica"
   font-style="normal"
   font-size="12"
   writing-mode="lr-tb"
   cursor="crosshair"
   transform="rotate(-90) translate(-1004)"
   clip-path="url(#clippingbbox)">
<path d="M0 0h1004v201h-1004z" stroke="none" fill="white" />
<g stroke="black" stroke-width="3">
<path d="M140 100l-7 7h-14v-14h14z" />
<text x="115" y="100" fill="black" stroke-width="0" text-anchor="end" dy="3.85">adc_data[11:0]</text>
<path d="M250 48h60v102h-60z" stroke="none" fill="#dfebf8" />
</g>
<g stroke="black">
<path d="M250 48h60v102h-60z" />
</g>
<g stroke="black" stroke-width="3">
<path d="M261 53v12" />
<path d="M255 59h12" />
</g>
<g stroke="black">
<path d="M253 51h16v16h-16z" />
<text x="280" y="46" fill="black" stroke-width="0" text-anchor="middle">u_snapshot</text>
<text x="280" y="152" fill="black" stroke-width="0" text-anchor="middle" dy="7.7">snn_ecg_3feat_top</text>
</g>
<g stroke="black" stroke-width="3">
<path d="M240 100h10" />
<text x="248" y="99" fill="black" stroke-width="0" font-size="10" text-anchor="end">adc_data[11:0]</text>
<path d="M320 80h-10" />
<text x="312" y="79" fill="black" stroke-width="0" font-size="10">c24_mem_af[63:0]</text>
<path d="M320 100h-10" />
<text x="312" y="99" fill="black" stroke-width="0" font-size="10">c24_mem_arr[63:0]</text>
<path d="M320 120h-10" />
<text x="312" y="119" fill="black" stroke-width="0" font-size="10">c24_mem_chf[63:0]</text>
<path d="M320 140h-10" />
<text x="312" y="139" fill="black" stroke-width="0" font-size="10">c24_mem_nsr[63:0]</text>
<path d="M260 100h-10" />
<path d="M300 80h10" />
<path d="M300 100h10" />
<path d="M300 120h10" />
<path d="M300 140h10" />
<path d="M570 28h60v142h-60z" stroke="none" fill="#dfebf8" />
</g>
<g stroke="black">
<path d="M570 28h60v142h-60z" />
</g>
<g stroke="black" stroke-width="3">
<path d="M581 33v12" />
<path d="M575 39h12" />
</g>
<g stroke="black">
<path d="M573 31h16v16h-16z" />
<text x="600" y="26" fill="black" stroke-width="0" text-anchor="middle">u_final</text>
<text x="600" y="172" fill="black" stroke-width="0" text-anchor="middle" dy="7.7">final_membrane_layer</text>
<path d="M640 160h-10" />
<text x="632" y="159" fill="black" stroke-width="0" font-size="10">final_valid</text>
</g>
<g stroke="black" stroke-width="3">
<path d="M560 80h10" />
<text x="568" y="79" fill="black" stroke-width="0" font-size="10" text-anchor="end">class_mem_af[63:0]</text>
<path d="M560 100h10" />
<text x="568" y="99" fill="black" stroke-width="0" font-size="10" text-anchor="end">class_mem_arr[63:0]</text>
<path d="M560 120h10" />
<text x="568" y="119" fill="black" stroke-width="0" font-size="10" text-anchor="end">class_mem_chf[63:0]</text>
<path d="M560 140h10" />
<text x="568" y="139" fill="black" stroke-width="0" font-size="10" text-anchor="end">class_mem_nsr[63:0]</text>
<path d="M640 60h-10" />
<text x="632" y="59" fill="black" stroke-width="0" font-size="10">final_mem_af[31:0]</text>
<path d="M640 80h-10" />
<text x="632" y="79" fill="black" stroke-width="0" font-size="10">final_mem_arr[31:0]</text>
<path d="M640 100h-10" />
<text x="632" y="99" fill="black" stroke-width="0" font-size="10">final_mem_chf[31:0]</text>
<path d="M640 120h-10" />
<text x="632" y="119" fill="black" stroke-width="0" font-size="10">final_mem_nsr[31:0]</text>
<path d="M640 140h-10" />
<text x="632" y="139" fill="black" stroke-width="0" font-size="10">final_pred_class[1:0]</text>
</g>
<g stroke="black">
<path d="M620 160h10" />
</g>
<g stroke="black" stroke-width="3">
<path d="M580 80h-10" />
<path d="M580 100h-10" />
<path d="M580 120h-10" />
<path d="M580 140h-10" />
<path d="M620 60h10" />
<path d="M620 80h10" />
<path d="M620 100h10" />
<path d="M620 120h10" />
<path d="M620 140h10" />
<path d="M830 30v-7h14l7 7l-7 7h-14z" />
<text x="855" y="30" fill="black" stroke-width="0" dy="3.85">final_mem_af[31:0]</text>
<path d="M830 60v-7h14l7 7l-7 7h-14z" />
<text x="855" y="60" fill="black" stroke-width="0" dy="3.85">final_mem_arr[31:0]</text>
<path d="M830 90v-7h14l7 7l-7 7h-14z" />
<text x="855" y="90" fill="black" stroke-width="0" dy="3.85">final_mem_chf[31:0]</text>
<path d="M830 120v-7h14l7 7l-7 7h-14z" />
<text x="855" y="120" fill="black" stroke-width="0" dy="3.85">final_mem_nsr[31:0]</text>
<path d="M830 150v-7h14l7 7l-7 7h-14z" />
<text x="855" y="150" fill="black" stroke-width="0" dy="3.85">final_pred_class[1:0]</text>
</g>
<g stroke="black">
<path d="M830 180v-7h14l7 7l-7 7h-14z" />
<text x="855" y="180" fill="black" stroke-width="0" dy="3.85">final_valid</text>
</g>
<g>
<path d="M140 100h100" />
<path d="M320 80h240" />
<path d="M320 100h240" />
<path d="M320 120h240" />
<path d="M320 140h240" />
<path d="M640 60h130v-30h60" />
<path d="M640 80h150v-20h40" />
<path d="M640 100h170v-10h20" />
<path d="M640 120h190" />
<path d="M640 140h170v10h20" />
<path d="M640 160h130v20h60" />
</g>
</g>
</svg>
