<?xml version="1.0" encoding="UTF-8" standalone="no"?>
<svg viewBox="0 0 770 1210"
     preserveAspectRatio="xMidYMid meet"
     version="1.1"
     baseProfile="full"
     xmlns="http://www.w3.org/2000/svg"
     xmlns:xlink="http://www.w3.org/1999/xlink"
     xmlns:ev="http://www.w3.org/2001/xml-events"
     xml:space="preserve">
<title>snn_ecg_30min_final_top</title>
<desc>Nlview schematic (SVG)</desc>
<clipPath id="clippingbbox">
<rect x="0" y="0" width="1210" height="770" />
</clipPath>
<g stroke="#19b400"
   stroke-width="1"
   stroke-linecap="butt"
   stroke-linejoin="miter"
   stroke-miterlimit="4"
   stroke-dasharray="none"
   stroke-dashoffset="0"
   fill="none"
   font-family="Helvetica"
   font-style="normal"
   font-size="12"
   writing-mode="lr-tb"
   cursor="crosshair"
   transform="rotate(-90) translate(-1210)"
   clip-path="url(#clippingbbox)">
<path d="M0 0h1210v771h-1210z" stroke="none" fill="white" />
<path d="M18 24h1174l3 1l3 1l1 3l1 3v700l-1 3l-1 3l-3 1l-3 1h-1174l-3 -1l-3 -1l-1 -3l-1 -3v-700l1 -3l1 -3l3 -1z" stroke="none" fill="#fafafa" />
<g stroke="black">
<path d="M18 24h1174" />
<path d="M1192,24 A7.83511,7.83511 1.61334 0,1 1200,32" />
<path d="M1200 32v700" />
<path d="M1200,732 A7.83511,7.83511 1.61334 0,1 1192,740" />
<path d="M1192 740h-1174" />
<path d="M18,740 A7.83511,7.83511 1.61334 0,1 10,732" />
<path d="M10 732v-700" />
<path d="M10,32 A7.83511,7.83511 1.61334 0,1 18,24" />
<text x="605" y="22" fill="black" stroke-width="0" text-anchor="middle">u_snapshot</text>
</g>
<g stroke="black" stroke-width="3">
<path d="M15 35h12" />
</g>
<g stroke="black">
<path d="M13 27h16v16h-16z" />
<text x="605" y="742" fill="black" stroke-width="0" text-anchor="middle" dy="7.7">snn_ecg_3feat_top</text>
<path d="M1090 258h60v202h-60z" stroke="none" fill="#dfebf8" />
<path d="M1090 258h60v202h-60z" />
</g>
<g stroke="black" stroke-width="3">
<path d="M1101 263v12" />
<path d="M1095 269h12" />
</g>
<g stroke="black">
<path d="M1093 261h16v16h-16z" />
<text x="1120" y="256" fill="black" stroke-width="0" text-anchor="middle">u_class</text>
<text x="1120" y="462" fill="black" stroke-width="0" text-anchor="middle" dy="7.7">class_score_neurons</text>
<path d="M1080 290h10" />
<text x="1088" y="289" fill="black" stroke-width="0" font-size="10" text-anchor="end">dscr_sign_flip_spike</text>
<path d="M1080 310h10" />
<text x="1088" y="309" fill="black" stroke-width="0" font-size="10" text-anchor="end">dscr_valid_slope_spike</text>
<path d="M1080 330h10" />
<text x="1088" y="329" fill="black" stroke-width="0" font-size="10" text-anchor="end">ectopic_pair_spike</text>
<path d="M1080 350h10" />
<text x="1088" y="349" fill="black" stroke-width="0" font-size="10" text-anchor="end">pnn_match_spike</text>
<path d="M1080 370h10" />
<text x="1088" y="369" fill="black" stroke-width="0" font-size="10" text-anchor="end">pnn_mismatch_spike</text>
<path d="M1080 390h10" />
<text x="1088" y="389" fill="black" stroke-width="0" font-size="10" text-anchor="end">qrs_maf_valid_spike</text>
<path d="M1080 410h10" />
<text x="1088" y="409" fill="black" stroke-width="0" font-size="10" text-anchor="end">ram_amp_spike</text>
<path d="M1080 430h10" />
<text x="1088" y="429" fill="black" stroke-width="0" font-size="10" text-anchor="end">rbbb_qrs_like_beat_spike</text>
</g>
<g stroke="black" stroke-width="3">
<path d="M1080 450h10" />
<text x="1088" y="449" fill="black" stroke-width="0" font-size="10" text-anchor="end">rdm_level_spike[14:0]</text>
</g>
<g stroke="black">
<path d="M1100 290h-10" />
<path d="M1100 310h-10" />
<path d="M1100 330h-10" />
<path d="M1100 350h-10" />
<path d="M1100 370h-10" />
<path d="M1100 390h-10" />
<path d="M1100 410h-10" />
<path d="M1100 430h-10" />
</g>
<g stroke="black" stroke-width="3">
<path d="M1100 450h-10" />
<path d="M630 68h60v62h-60z" stroke="none" fill="#dfebf8" />
</g>
<g stroke="black">
<path d="M630 68h60v62h-60z" />
</g>
<g stroke="black" stroke-width="3">
<path d="M641 73v12" />
<path d="M635 79h12" />
</g>
<g stroke="black">
<path d="M633 71h16v16h-16z" />
<text x="660" y="66" fill="black" stroke-width="0" text-anchor="middle">u_dscr</text>
<text x="660" y="132" fill="black" stroke-width="0" text-anchor="middle" dy="7.7">dscr_spike_counter</text>
<path d="M700 100h-10" />
<text x="692" y="99" fill="black" stroke-width="0" font-size="10">sign_flip_spike</text>
<path d="M700 120h-10" />
<text x="692" y="119" fill="black" stroke-width="0" font-size="10">valid_slope_spike</text>
<path d="M680 100h10" />
<path d="M680 120h10" />
<path d="M630 178h60v42h-60z" stroke="none" fill="#dfebf8" />
<path d="M630 178h60v42h-60z" />
</g>
<g stroke="black" stroke-width="3">
<path d="M641 183v12" />
<path d="M635 189h12" />
</g>
<g stroke="black">
<path d="M633 181h16v16h-16z" />
<text x="660" y="176" fill="black" stroke-width="0" text-anchor="middle">u_ectopic</text>
<text x="660" y="222" fill="black" stroke-width="0" text-anchor="middle" dy="7.7">ectopic_pair_neuron</text>
<path d="M700 210h-10" />
<text x="692" y="209" fill="black" stroke-width="0" font-size="10">ectopic_pair_spike</text>
<path d="M680 210h10" />
<path d="M90 448h60v42h-60z" stroke="none" fill="#dfebf8" />
<path d="M90 448h60v42h-60z" />
</g>
<g stroke="black" stroke-width="3">
<path d="M101 453v12" />
<path d="M95 459h12" />
</g>
<g stroke="black">
<path d="M93 451h16v16h-16z" />
<text x="120" y="446" fill="black" stroke-width="0" text-anchor="middle">u_event_encoder</text>
<text x="120" y="492" fill="black" stroke-width="0" text-anchor="middle" dy="7.7">ecg_event_encoder_adaptive</text>
<path d="M160 480h-10" />
<text x="152" y="479" fill="black" stroke-width="0" font-size="10">strong_event</text>
<path d="M140 480h10" />
<path d="M630 268h60v62h-60z" stroke="none" fill="#dfebf8" />
<path d="M630 268h60v62h-60z" />
</g>
<g stroke="black" stroke-width="3">
<path d="M641 273v12" />
<path d="M635 279h12" />
</g>
<g stroke="black">
<path d="M633 271h16v16h-16z" />
<text x="660" y="266" fill="black" stroke-width="0" text-anchor="middle">u_pnn</text>
<text x="660" y="332" fill="black" stroke-width="0" text-anchor="middle" dy="7.7">pnn_rhythm_predictor</text>
<path d="M620 300h10" />
<text x="628" y="299" fill="black" stroke-width="0" font-size="10" text-anchor="end">beat_spike</text>
<path d="M700 300h-10" />
<text x="692" y="299" fill="black" stroke-width="0" font-size="10">pnn_match_spike</text>
<path d="M700 320h-10" />
<text x="692" y="319" fill="black" stroke-width="0" font-size="10">pnn_mismatch_spike</text>
<path d="M640 300h-10" />
<path d="M680 300h10" />
<path d="M680 320h10" />
<path d="M370 448h60v42h-60z" stroke="none" fill="#dfebf8" />
<path d="M370 448h60v42h-60z" />
</g>
<g stroke="black" stroke-width="3">
<path d="M381 453v12" />
<path d="M375 459h12" />
</g>
<g stroke="black">
<path d="M373 451h16v16h-16z" />
<text x="400" y="446" fill="black" stroke-width="0" text-anchor="middle">u_qrs_detector</text>
<text x="400" y="492" fill="black" stroke-width="0" text-anchor="middle" dy="7.7">qrs_lif_detector</text>
<path d="M440 480h-10" />
<text x="432" y="479" fill="black" stroke-width="0" font-size="10">beat_spike</text>
<path d="M360 480h10" />
<text x="368" y="479" fill="black" stroke-width="0" font-size="10" text-anchor="end">strong_event</text>
<path d="M420 480h10" />
<path d="M380 480h-10" />
<path d="M630 468h60v62h-60z" stroke="none" fill="#dfebf8" />
<path d="M630 468h60v62h-60z" />
</g>
<g stroke="black" stroke-width="3">
<path d="M641 473v12" />
<path d="M635 479h12" />
</g>
<g stroke="black">
<path d="M633 471h16v16h-16z" />
<text x="660" y="466" fill="black" stroke-width="0" text-anchor="middle">u_qrs_maf</text>
<text x="660" y="532" fill="black" stroke-width="0" text-anchor="middle" dy="7.7">qrs_maf_neuron</text>
<path d="M620 500h10" />
<text x="628" y="499" fill="black" stroke-width="0" font-size="10" text-anchor="end">beat_spike</text>
<path d="M700 500h-10" />
<text x="692" y="499" fill="black" stroke-width="0" font-size="10">qrs_maf_valid_spike</text>
<path d="M620 520h10" />
<text x="628" y="519" fill="black" stroke-width="0" font-size="10" text-anchor="end">strong_event</text>
<path d="M640 500h-10" />
<path d="M680 500h10" />
<path d="M640 520h-10" />
<path d="M630 378h60v42h-60z" stroke="none" fill="#dfebf8" />
<path d="M630 378h60v42h-60z" />
</g>
<g stroke="black" stroke-width="3">
<path d="M641 383v12" />
<path d="M635 389h12" />
</g>
<g stroke="black">
<path d="M633 381h16v16h-16z" />
<text x="660" y="376" fill="black" stroke-width="0" text-anchor="middle">u_ram</text>
<text x="660" y="422" fill="black" stroke-width="0" text-anchor="middle" dy="7.7">ram_peak_accumulator</text>
<path d="M620 410h10" />
<text x="628" y="409" fill="black" stroke-width="0" font-size="10" text-anchor="end">beat_spike</text>
<path d="M700 410h-10" />
<text x="692" y="409" fill="black" stroke-width="0" font-size="10">ram_amp_spike</text>
<path d="M640 410h-10" />
<path d="M680 410h10" />
<path d="M630 668h60v42h-60z" stroke="none" fill="#dfebf8" />
<path d="M630 668h60v42h-60z" />
</g>
<g stroke="black" stroke-width="3">
<path d="M641 673v12" />
<path d="M635 679h12" />
</g>
<g stroke="black">
<path d="M633 671h16v16h-16z" />
<text x="660" y="666" fill="black" stroke-width="0" text-anchor="middle">u_rbbb_qrs_delay</text>
<text x="660" y="712" fill="black" stroke-width="0" text-anchor="middle" dy="7.7">rbbb_qrs_delay_bank</text>
<path d="M700 700h-10" />
<text x="692" y="699" fill="black" stroke-width="0" font-size="10">rbbb_like_beat_spike</text>
<path d="M620 700h10" />
<text x="628" y="699" fill="black" stroke-width="0" font-size="10" text-anchor="end">strong_event</text>
<path d="M680 700h10" />
<path d="M640 700h-10" />
<path d="M630 578h60v42h-60z" stroke="none" fill="#dfebf8" />
<path d="M630 578h60v42h-60z" />
</g>
<g stroke="black" stroke-width="3">
<path d="M641 583v12" />
<path d="M635 589h12" />
</g>
<g stroke="black">
<path d="M633 581h16v16h-16z" />
<text x="660" y="576" fill="black" stroke-width="0" text-anchor="middle">u_rdm</text>
<text x="660" y="622" fill="black" stroke-width="0" text-anchor="middle" dy="7.7">rdm_variability_neuron</text>
</g>
<g stroke="black" stroke-width="3">
<path d="M700 610h-10" />
<text x="692" y="609" fill="black" stroke-width="0" font-size="10">rdm_level_spike[14:0]</text>
<path d="M680 610h10" />
</g>
<g stroke-dasharray="7,3" stroke-dashoffset="3">
<path d="M620 300h-100v200h100" />
<path d="M520 410h100" />
<path d="M440 480h80" />
<path d="M518 408h5v5h-5z" stroke="none" fill="#19b400" />
<path d="M518 478h5v5h-5z" stroke="none" fill="#19b400" />
<path d="M700 100h220v190h160" />
<path d="M700 120h200v190h180" />
<path d="M700 210h180v120h200" />
<path d="M700 300h160v50h220" />
<path d="M700 320h140v50h240" />
<path d="M700 500h160v-110h220" />
<path d="M700 410h380" />
<path d="M700 700h200v-270h180" />
<path d="M700 610h220v-160h160" />
<path d="M160 480h100v40h260v180h100" />
<path d="M520 520h100" />
<path d="M518 518h5v5h-5z" stroke="none" fill="#19b400" />
<path d="M260 480h100" />
<path d="M258 478h5v5h-5z" stroke="none" fill="#19b400" />
</g>
</g>
</svg>
