<?xml version="1.0" encoding="UTF-8" standalone="no"?>
<svg viewBox="0 0 860 1963"
     preserveAspectRatio="xMidYMid meet"
     version="1.1"
     baseProfile="full"
     xmlns="http://www.w3.org/2000/svg"
     xmlns:xlink="http://www.w3.org/1999/xlink"
     xmlns:ev="http://www.w3.org/2001/xml-events"
     xml:space="preserve">
<title>snn_ecg_mb_full_replay_imp</title>
<desc>Nlview schematic (SVG)</desc>
<clipPath id="clippingbbox">
<rect x="0" y="0" width="1963" height="860" />
</clipPath>
<g stroke="#102235"
   stroke-width="1"
   stroke-linecap="butt"
   stroke-linejoin="miter"
   stroke-miterlimit="4"
   stroke-dasharray="none"
   stroke-dashoffset="0"
   fill="none"
   font-family="Helvetica"
   font-style="normal"
   font-size="12"
   writing-mode="lr-tb"
   cursor="crosshair"
   transform="rotate(-90) translate(-1963)"
   clip-path="url(#clippingbbox)">
<path d="M0 0h1962v861h-1962z" stroke="none" fill="white" />
<path d="M128 670l-7 7h-14v-14h14z" stroke="none" fill="#ddd4d0" />
<g>
<path d="M128 670l-7 7h-14v-14h14z" />
<text x="103" y="670" fill="black" stroke-width="0" text-anchor="end" dy="3.85">CLK100MHZ</text>
<path d="M128 750l-7 7h-14v-14h14z" stroke="none" fill="#ddd4d0" />
<path d="M128 750l-7 7h-14v-14h14z" />
<text x="103" y="750" fill="black" stroke-width="0" text-anchor="end" dy="3.85">CPU_RESETN</text>
<path d="M1828 540v-7h14l7 7l-7 7h-14z" stroke="none" fill="#ddd4d0" />
<path d="M1828 540v-7h14l7 7l-7 7h-14z" />
<text x="1853" y="540" fill="black" stroke-width="0" dy="3.85">UART_RXD_OUT</text>
<path d="M128 650l-7 7h-14v-14h14z" stroke="none" fill="#ddd4d0" />
<path d="M128 650l-7 7h-14v-14h14z" />
<text x="103" y="650" fill="black" stroke-width="0" text-anchor="end" dy="3.85">UART_TXD_IN</text>
<path d="M1405 292h126l3 1l2 1l1 2l1 3v102l-1 3l-1 2l-2 1l-3 1h-126l-3 -1l-2 -1l-1 -2l-1 -3v-102l1 -3l1 -2l2 -1z" stroke="none" fill="#edf6fe" />
<text x="1468" y="290" fill="black" stroke-width="0" text-anchor="middle">axi_intc_0</text>
<text x="1468" y="410" fill="#41619f" stroke-width="0" text-anchor="middle" dy="7.7">AXI Interrupt Controller</text>
<path d="M1388 311h10v18h-10z" stroke="none" fill="#edf6fe" />
</g>
<g stroke="#41619f" stroke-width="3">
<path d="M1407 315v10" />
<path d="M1402 320h10" />
</g>
<g stroke="#41619f">
<path d="M1400 313h14v14h-14z" />
<text x="1415" y="320" fill="black" stroke-width="0" font-size="10" dy="3.25">s_axi</text>
</g>
<g stroke="black" stroke-width="3">
<path d="M1388 340h10" />
<text x="1400" y="340" fill="black" stroke-width="0" font-size="10" dy="3.25">s_axi_aclk</text>
<circle cx="1395" cy="360" r="3" />
<path d="M1388 360h4" />
<text x="1400" y="360" fill="black" stroke-width="0" font-size="10" dy="3.25">s_axi_aresetn</text>
</g>
<g stroke="black" stroke-width="5">
<path d="M1388 380h10" />
<text x="1400" y="380" fill="black" stroke-width="0" font-size="10" dy="3.25">intr[0:0]</text>
</g>
<g stroke="black" stroke-width="3">
<path d="M1548 350h-10" />
<text x="1536" y="350" fill="black" stroke-width="0" font-size="10" text-anchor="end" dy="3.25">irq</text>
</g>
<g stroke="#41619f">
<path d="M1405 292h126" />
<path d="M1531,292 A6.83537,6.83537 1.61957 0,1 1538,299" />
<path d="M1538 299v102" />
<path d="M1538,401 A6.83537,6.83537 1.61957 0,1 1531,408" />
<path d="M1531 408h-126" />
<path d="M1405,408 A6.83537,6.83537 1.61957 0,1 1398,401" />
<path d="M1398 401v-102" />
<path d="M1398,299 A6.83537,6.83537 1.61957 0,1 1405,292" />
<path d="M1055 142h206l3 1l2 1l1 2l1 3v282l-1 3l-1 2l-2 1l-3 1h-206l-3 -1l-2 -1l-1 -2l-1 -3v-282l1 -3l1 -2l2 -1z" stroke="none" fill="#edf6fe" />
<text x="1158" y="140" fill="black" stroke-width="0" text-anchor="middle">axi_interconnect_0</text>
<text x="1158" y="440" fill="#41619f" stroke-width="0" text-anchor="middle" dy="7.7">AXI Interconnect</text>
</g>
<g stroke="#41619f" stroke-width="3">
<path d="M1059 147v12" />
<path d="M1053 153h12" />
</g>
<g stroke="#41619f">
<path d="M1051 145h16v16h-16z" />
<path d="M1038 161h10v18h-10z" stroke="none" fill="#edf6fe" />
</g>
<g stroke="#41619f" stroke-width="3">
<path d="M1057 165v10" />
<path d="M1052 170h10" />
</g>
<g stroke="#41619f">
<path d="M1050 163h14v14h-14z" />
<text x="1065" y="170" fill="black" stroke-width="0" font-size="10" dy="3.25">S00_AXI</text>
<path d="M1268 251h10v18h-10z" stroke="none" fill="#edf6fe" />
</g>
<g stroke="#41619f" stroke-width="3">
<path d="M1258 255v10" />
<path d="M1253 260h10" />
</g>
<g stroke="#41619f">
<path d="M1251 253h14v14h-14z" />
<text x="1251" y="260" fill="black" stroke-width="0" font-size="10" text-anchor="end" dy="3.25">M00_AXI</text>
<path d="M1268 271h10v18h-10z" stroke="none" fill="#edf6fe" />
</g>
<g stroke="#41619f" stroke-width="3">
<path d="M1258 275v10" />
<path d="M1253 280h10" />
</g>
<g stroke="#41619f">
<path d="M1251 273h14v14h-14z" />
<text x="1251" y="280" fill="black" stroke-width="0" font-size="10" text-anchor="end" dy="3.25">M01_AXI</text>
<path d="M1268 291h10v18h-10z" stroke="none" fill="#edf6fe" />
</g>
<g stroke="#41619f" stroke-width="3">
<path d="M1258 295v10" />
<path d="M1253 300h10" />
</g>
<g stroke="#41619f">
<path d="M1251 293h14v14h-14z" />
<text x="1251" y="300" fill="black" stroke-width="0" font-size="10" text-anchor="end" dy="3.25">M02_AXI</text>
<path d="M1268 311h10v18h-10z" stroke="none" fill="#edf6fe" />
</g>
<g stroke="#41619f" stroke-width="3">
<path d="M1258 315v10" />
<path d="M1253 320h10" />
</g>
<g stroke="#41619f">
<path d="M1251 313h14v14h-14z" />
<text x="1251" y="320" fill="black" stroke-width="0" font-size="10" text-anchor="end" dy="3.25">M03_AXI</text>
</g>
<g stroke="black" stroke-width="3">
<path d="M1038 190h10" />
<text x="1050" y="190" fill="black" stroke-width="0" font-size="10" dy="3.25">ACLK</text>
<path d="M1038 210h10" />
<text x="1050" y="210" fill="black" stroke-width="0" font-size="10" dy="3.25">ARESETN</text>
<path d="M1038 230h10" />
<text x="1050" y="230" fill="black" stroke-width="0" font-size="10" dy="3.25">S00_ACLK</text>
<path d="M1038 250h10" />
<text x="1050" y="250" fill="black" stroke-width="0" font-size="10" dy="3.25">S00_ARESETN</text>
<path d="M1038 270h10" />
<text x="1050" y="270" fill="black" stroke-width="0" font-size="10" dy="3.25">M00_ACLK</text>
<path d="M1038 290h10" />
<text x="1050" y="290" fill="black" stroke-width="0" font-size="10" dy="3.25">M00_ARESETN</text>
<path d="M1038 310h10" />
<text x="1050" y="310" fill="black" stroke-width="0" font-size="10" dy="3.25">M01_ACLK</text>
<path d="M1038 330h10" />
<text x="1050" y="330" fill="black" stroke-width="0" font-size="10" dy="3.25">M01_ARESETN</text>
<path d="M1038 350h10" />
<text x="1050" y="350" fill="black" stroke-width="0" font-size="10" dy="3.25">M02_ACLK</text>
<path d="M1038 370h10" />
<text x="1050" y="370" fill="black" stroke-width="0" font-size="10" dy="3.25">M02_ARESETN</text>
<path d="M1038 390h10" />
<text x="1050" y="390" fill="black" stroke-width="0" font-size="10" dy="3.25">M03_ACLK</text>
<path d="M1038 410h10" />
<text x="1050" y="410" fill="black" stroke-width="0" font-size="10" dy="3.25">M03_ARESETN</text>
</g>
<g stroke="#41619f">
<path d="M1055 142h206" />
<path d="M1261,142 A6.83537,6.83537 1.61957 0,1 1268,149" />
<path d="M1268 149v282" />
<path d="M1268,431 A6.83537,6.83537 1.61957 0,1 1261,438" />
<path d="M1261 438h-206" />
<path d="M1055,438 A6.83537,6.83537 1.61957 0,1 1048,431" />
<path d="M1048 431v-282" />
<path d="M1048,149 A6.83537,6.83537 1.61957 0,1 1055,142" />
<path d="M1385 472h166l3 1l2 1l1 2l1 3v102l-1 3l-1 2l-2 1l-3 1h-166l-3 -1l-2 -1l-1 -2l-1 -3v-102l1 -3l1 -2l2 -1z" stroke="none" fill="#edf6fe" />
<text x="1468" y="470" fill="black" stroke-width="0" text-anchor="middle">axi_uartlite_0</text>
<text x="1468" y="590" fill="#41619f" stroke-width="0" text-anchor="middle" dy="7.7">AXI Uartlite</text>
<path d="M1368 501h10v18h-10z" stroke="none" fill="#edf6fe" />
</g>
<g stroke="#41619f" stroke-width="3">
<path d="M1387 505v10" />
<path d="M1382 510h10" />
</g>
<g stroke="#41619f">
<path d="M1380 503h14v14h-14z" />
<text x="1395" y="510" fill="black" stroke-width="0" font-size="10" dy="3.25">S_AXI</text>
<path d="M1558 491h10v58h-10z" stroke="none" fill="#edf6fe" />
</g>
<g stroke="#41619f" stroke-width="3">
<path d="M1543 500h10" />
</g>
<g stroke="#41619f">
<path d="M1541 493h14v14h-14z" />
<text x="1541" y="500" fill="black" stroke-width="0" font-size="10" text-anchor="end" dy="3.25">UART</text>
</g>
<g stroke="black" stroke-width="2">
<path d="M1568 520h-10" />
<path d="M1545 515l-8 5l8 5z" stroke="none" fill="#41619f" />
<text x="1536" y="520" fill="black" stroke-width="0" font-size="10" text-anchor="end" dy="3.25">rx</text>
<path d="M1568 540h-10" />
<path d="M1537 535l8 5l-8 5z" stroke="none" fill="#41619f" />
<text x="1536" y="540" fill="black" stroke-width="0" font-size="10" text-anchor="end" dy="3.25">tx</text>
</g>
<g stroke="black" stroke-width="3">
<path d="M1368 530h10" />
<text x="1380" y="530" fill="black" stroke-width="0" font-size="10" dy="3.25">s_axi_aclk</text>
<circle cx="1375" cy="550" r="3" />
<path d="M1368 550h4" />
<text x="1380" y="550" fill="black" stroke-width="0" font-size="10" dy="3.25">s_axi_aresetn</text>
<path d="M1568 560h-10" />
<text x="1556" y="560" fill="black" stroke-width="0" font-size="10" text-anchor="end" dy="3.25">interrupt</text>
</g>
<g stroke="#41619f">
<path d="M1385 472h166" />
<path d="M1551,472 A6.83537,6.83537 1.61957 0,1 1558,479" />
<path d="M1558 479v102" />
<path d="M1558,581 A6.83537,6.83537 1.61957 0,1 1551,588" />
<path d="M1551 588h-166" />
<path d="M1385,588 A6.83537,6.83537 1.61957 0,1 1378,581" />
<path d="M1378 581v-102" />
<path d="M1378,479 A6.83537,6.83537 1.61957 0,1 1385,472" />
<path d="M275 502h106l3 1l2 1l1 2l1 3v62l-1 3l-1 2l-2 1l-3 1h-106l-3 -1l-2 -1l-1 -2l-1 -3v-62l1 -3l1 -2l2 -1z" stroke="none" fill="#edf6fe" />
<text x="328" y="500" fill="black" stroke-width="0" text-anchor="middle">mdm_1</text>
<text x="328" y="580" fill="#41619f" stroke-width="0" text-anchor="middle" dy="7.7">MicroBlaze Debug Module (MDM)</text>
<path d="M388 521h10v18h-10z" stroke="none" fill="#edf6fe" />
</g>
<g stroke="#41619f" stroke-width="3">
<path d="M378 525v10" />
<path d="M373 530h10" />
</g>
<g stroke="#41619f">
<path d="M371 523h14v14h-14z" />
<text x="371" y="530" fill="black" stroke-width="0" font-size="10" text-anchor="end" dy="3.25">MBDEBUG_0</text>
</g>
<g stroke="black" stroke-width="3">
<path d="M398 550h-10" />
<text x="386" y="550" fill="black" stroke-width="0" font-size="10" text-anchor="end" dy="3.25">Debug_SYS_Rst</text>
</g>
<g stroke="#41619f">
<path d="M275 502h106" />
<path d="M381,502 A6.83537,6.83537 1.61957 0,1 388,509" />
<path d="M388 509v62" />
<path d="M388,571 A6.83537,6.83537 1.61957 0,1 381,578" />
<path d="M381 578h-106" />
<path d="M275,578 A6.83537,6.83537 1.61957 0,1 268,571" />
<path d="M268 571v-62" />
<path d="M268,509 A6.83537,6.83537 1.61957 0,1 275,502" />
<path d="M555 462h386l3 1l2 1l1 2l1 3v122l-1 3l-1 2l-2 1l-3 1h-386l-3 -1l-2 -1l-1 -2l-1 -3v-122l1 -3l1 -2l2 -1z" stroke="none" fill="#edf6fe" />
<text x="748" y="460" fill="black" stroke-width="0" text-anchor="middle">microblaze_0</text>
<text x="748" y="600" fill="#41619f" stroke-width="0" text-anchor="middle" dy="7.7">MicroBlaze</text>
<path d="M538 481h10v38h-10z" stroke="none" fill="#edf6fe" />
</g>
<g stroke="#41619f" stroke-width="3">
<path d="M557 485v10" />
<path d="M552 490h10" />
</g>
<g stroke="#41619f">
<path d="M550 483h14v14h-14z" />
<text x="565" y="490" fill="black" stroke-width="0" font-size="10" dy="3.25">INTERRUPT</text>
</g>
<g stroke="black" stroke-width="2">
<path d="M538 510h10" />
<path d="M561 505l8 5l-8 5z" stroke="none" fill="#41619f" />
<text x="570" y="510" fill="black" stroke-width="0" font-size="10" dy="3.25">Interrupt</text>
<path d="M948 501h10v18h-10z" stroke="none" fill="#edf6fe" />
</g>
<g stroke="#41619f" stroke-width="3">
<path d="M938 505v10" />
<path d="M933 510h10" />
</g>
<g stroke="#41619f">
<path d="M931 503h14v14h-14z" />
<text x="931" y="510" fill="black" stroke-width="0" font-size="10" text-anchor="end" dy="3.25">DLMB</text>
<path d="M948 521h10v18h-10z" stroke="none" fill="#edf6fe" />
</g>
<g stroke="#41619f" stroke-width="3">
<path d="M938 525v10" />
<path d="M933 530h10" />
</g>
<g stroke="#41619f">
<path d="M931 523h14v14h-14z" />
<text x="931" y="530" fill="black" stroke-width="0" font-size="10" text-anchor="end" dy="3.25">ILMB</text>
<path d="M948 541h10v18h-10z" stroke="none" fill="#edf6fe" />
</g>
<g stroke="#41619f" stroke-width="3">
<path d="M938 545v10" />
<path d="M933 550h10" />
</g>
<g stroke="#41619f">
<path d="M931 543h14v14h-14z" />
<text x="931" y="550" fill="black" stroke-width="0" font-size="10" text-anchor="end" dy="3.25">M_AXI_DP</text>
<path d="M538 521h10v18h-10z" stroke="none" fill="#edf6fe" />
</g>
<g stroke="#41619f" stroke-width="3">
<path d="M557 525v10" />
<path d="M552 530h10" />
</g>
<g stroke="#41619f">
<path d="M550 523h14v14h-14z" />
<text x="565" y="530" fill="black" stroke-width="0" font-size="10" dy="3.25">DEBUG</text>
</g>
<g stroke="black" stroke-width="3">
<path d="M538 550h10" />
<text x="550" y="550" fill="black" stroke-width="0" font-size="10" dy="3.25">Clk</text>
<path d="M538 570h10" />
<text x="550" y="570" fill="black" stroke-width="0" font-size="10" dy="3.25">Reset</text>
</g>
<g stroke="#41619f">
<path d="M555 462h386" />
<path d="M941,462 A6.83537,6.83537 1.61957 0,1 948,469" />
<path d="M948 469v122" />
<path d="M948,591 A6.83537,6.83537 1.61957 0,1 941,598" />
<path d="M941 598h-386" />
<path d="M555,598 A6.83537,6.83537 1.61957 0,1 548,591" />
<path d="M548 591v-122" />
<path d="M548,469 A6.83537,6.83537 1.61957 0,1 555,462" />
<path d="M1115 482h86l3 1l2 1l1 2l1 3v102l-1 3l-1 2l-2 1l-3 1h-86l-3 -1l-2 -1l-1 -2l-1 -3v-102l1 -3l1 -2l2 -1z" stroke="none" fill="#aac4f7" />
<text x="1158" y="480" fill="black" stroke-width="0" text-anchor="middle">microblaze_0_local_memory</text>
</g>
<g stroke="#41619f" stroke-width="3">
<path d="M1119 487v12" />
<path d="M1113 493h12" />
</g>
<g stroke="#41619f">
<path d="M1111 485h16v16h-16z" />
<path d="M1098 501h10v18h-10z" stroke="none" fill="#edf6fe" />
</g>
<g stroke="#41619f" stroke-width="3">
<path d="M1117 505v10" />
<path d="M1112 510h10" />
</g>
<g stroke="#41619f">
<path d="M1110 503h14v14h-14z" />
<text x="1125" y="510" fill="black" stroke-width="0" font-size="10" dy="3.25">DLMB</text>
<path d="M1098 521h10v18h-10z" stroke="none" fill="#edf6fe" />
</g>
<g stroke="#41619f" stroke-width="3">
<path d="M1117 525v10" />
<path d="M1112 530h10" />
</g>
<g stroke="#41619f">
<path d="M1110 523h14v14h-14z" />
<text x="1125" y="530" fill="black" stroke-width="0" font-size="10" dy="3.25">ILMB</text>
</g>
<g stroke="black" stroke-width="3">
<path d="M1098 550h10" />
<text x="1110" y="550" fill="black" stroke-width="0" font-size="10" dy="3.25">CLK100MHZ</text>
<path d="M1098 570h10" />
<text x="1110" y="570" fill="black" stroke-width="0" font-size="10" dy="3.25">SYS_Rst</text>
</g>
<g stroke="#41619f">
<path d="M1115 482h86" />
<path d="M1201,482 A6.83537,6.83537 1.61957 0,1 1208,489" />
<path d="M1208 489v102" />
<path d="M1208,591 A6.83537,6.83537 1.61957 0,1 1201,598" />
<path d="M1201 598h-86" />
<path d="M1115,598 A6.83537,6.83537 1.61957 0,1 1108,591" />
<path d="M1108 591v-102" />
<path d="M1108,489 A6.83537,6.83537 1.61957 0,1 1115,482" />
<path d="M195 702h266l3 1l2 1l1 2l1 3v122l-1 3l-1 2l-2 1l-3 1h-266l-3 -1l-2 -1l-1 -2l-1 -3v-122l1 -3l1 -2l2 -1z" stroke="none" fill="#edf6fe" />
<text x="328" y="700" fill="black" stroke-width="0" text-anchor="middle">rst_CLK100MHZ_100M</text>
<text x="328" y="840" fill="#41619f" stroke-width="0" text-anchor="middle" dy="7.7">Processor System Reset</text>
</g>
<g stroke="black" stroke-width="3">
<path d="M178 730h10" />
<text x="190" y="730" fill="black" stroke-width="0" font-size="10" dy="3.25">slowest_sync_clk</text>
<circle cx="185" cy="750" r="3" />
<path d="M178 750h4" />
<text x="190" y="750" fill="black" stroke-width="0" font-size="10" dy="3.25">ext_reset_in</text>
<circle cx="185" cy="770" r="3" />
<path d="M178 770h4" />
<text x="190" y="770" fill="black" stroke-width="0" font-size="10" dy="3.25">aux_reset_in</text>
<path d="M178 790h10" />
<text x="190" y="790" fill="black" stroke-width="0" font-size="10" dy="3.25">mb_debug_sys_rst</text>
<path d="M178 810h10" />
<text x="190" y="810" fill="black" stroke-width="0" font-size="10" dy="3.25">dcm_locked</text>
<path d="M478 730h-10" />
<text x="466" y="730" fill="black" stroke-width="0" font-size="10" text-anchor="end" dy="3.25">mb_reset</text>
</g>
<g stroke="black" stroke-width="5">
<path d="M478 750h-10" />
<text x="466" y="750" fill="black" stroke-width="0" font-size="10" text-anchor="end" dy="3.25">bus_struct_reset[0:0]</text>
<path d="M478 770h-10" />
<text x="466" y="770" fill="black" stroke-width="0" font-size="10" text-anchor="end" dy="3.25">peripheral_reset[0:0]</text>
<circle cx="471" cy="790" r="3" />
<path d="M478 790h-4" />
<text x="466" y="790" fill="black" stroke-width="0" font-size="10" text-anchor="end" dy="3.25">interconnect_aresetn[0:0]</text>
<circle cx="471" cy="810" r="3" />
<path d="M478 810h-4" />
<text x="466" y="810" fill="black" stroke-width="0" font-size="10" text-anchor="end" dy="3.25">peripheral_aresetn[0:0]</text>
</g>
<g stroke="#41619f">
<path d="M195 702h266" />
<path d="M461,702 A6.83537,6.83537 1.61957 0,1 468,709" />
<path d="M468 709v122" />
<path d="M468,831 A6.83537,6.83537 1.61957 0,1 461,838" />
<path d="M461 838h-266" />
<path d="M195,838 A6.83537,6.83537 1.61957 0,1 188,831" />
<path d="M188 831v-122" />
<path d="M188,709 A6.83537,6.83537 1.61957 0,1 195,702" />
<path d="M1385 152h166l3 1l2 1l1 2l1 3v82l-1 3l-1 2l-2 1l-3 1h-166l-3 -1l-2 -1l-1 -2l-1 -3v-82l1 -3l1 -2l2 -1z" stroke="none" fill="#edf6fe" />
<text x="1468" y="150" fill="black" stroke-width="0" text-anchor="middle">sample_feeder_0</text>
<text x="1468" y="250" fill="#41619f" stroke-width="0" text-anchor="middle" dy="7.7">AXI-Lite AXIS Sample Feeder</text>
<path d="M1558 191h10v18h-10z" stroke="none" fill="#edf6fe" />
</g>
<g stroke="#41619f" stroke-width="3">
<path d="M1548 195v10" />
<path d="M1543 200h10" />
</g>
<g stroke="#41619f">
<path d="M1541 193h14v14h-14z" />
<text x="1541" y="200" fill="black" stroke-width="0" font-size="10" text-anchor="end" dy="3.25">m_axis</text>
<path d="M1368 171h10v18h-10z" stroke="none" fill="#edf6fe" />
</g>
<g stroke="#41619f" stroke-width="3">
<path d="M1387 175v10" />
<path d="M1382 180h10" />
</g>
<g stroke="#41619f">
<path d="M1380 173h14v14h-14z" />
<text x="1395" y="180" fill="black" stroke-width="0" font-size="10" dy="3.25">s_axi</text>
</g>
<g stroke="black" stroke-width="3">
<path d="M1368 200h10" />
<text x="1380" y="200" fill="black" stroke-width="0" font-size="10" dy="3.25">s_axi_aclk</text>
<circle cx="1375" cy="220" r="3" />
<path d="M1368 220h4" />
<text x="1380" y="220" fill="black" stroke-width="0" font-size="10" dy="3.25">s_axi_aresetn</text>
</g>
<g stroke="#41619f">
<path d="M1385 152h166" />
<path d="M1551,152 A6.83537,6.83537 1.61957 0,1 1558,159" />
<path d="M1558 159v82" />
<path d="M1558,241 A6.83537,6.83537 1.61957 0,1 1551,248" />
<path d="M1551 248h-166" />
<path d="M1385,248 A6.83537,6.83537 1.61957 0,1 1378,241" />
<path d="M1378 241v-82" />
<path d="M1378,159 A6.83537,6.83537 1.61957 0,1 1385,152" />
<path d="M1645 52h126l3 1l2 1l1 2l1 3v102l-1 3l-1 2l-2 1l-3 1h-126l-3 -1l-2 -1l-1 -2l-1 -3v-102l1 -3l1 -2l2 -1z" stroke="none" fill="#edf6fe" />
<text x="1708" y="50" fill="black" stroke-width="0" text-anchor="middle">snn_ecg_axi_accelerator_0</text>
<text x="1708" y="170" fill="#41619f" stroke-width="0" text-anchor="middle" dy="7.7">Long-Window ECG 4-Class AXI Accelerator</text>
<path d="M1628 71h10v18h-10z" stroke="none" fill="#edf6fe" />
</g>
<g stroke="#41619f" stroke-width="3">
<path d="M1647 75v10" />
<path d="M1642 80h10" />
</g>
<g stroke="#41619f">
<path d="M1640 73h14v14h-14z" />
<text x="1655" y="80" fill="black" stroke-width="0" font-size="10" dy="3.25">s_axis</text>
<path d="M1628 91h10v18h-10z" stroke="none" fill="#edf6fe" />
</g>
<g stroke="#41619f" stroke-width="3">
<path d="M1647 95v10" />
<path d="M1642 100h10" />
</g>
<g stroke="#41619f">
<path d="M1640 93h14v14h-14z" />
<text x="1655" y="100" fill="black" stroke-width="0" font-size="10" dy="3.25">s_axi</text>
</g>
<g stroke="black" stroke-width="3">
<path d="M1628 120h10" />
<text x="1640" y="120" fill="black" stroke-width="0" font-size="10" dy="3.25">s_axi_aclk</text>
<circle cx="1635" cy="140" r="3" />
<path d="M1628 140h4" />
<text x="1640" y="140" fill="black" stroke-width="0" font-size="10" dy="3.25">s_axi_aresetn</text>
<path d="M1788 110h-10" />
<text x="1776" y="110" fill="black" stroke-width="0" font-size="10" text-anchor="end" dy="3.25">irq</text>
</g>
<g stroke="#41619f">
<path d="M1645 52h126" />
<path d="M1771,52 A6.83537,6.83537 1.61957 0,1 1778,59" />
<path d="M1778 59v102" />
<path d="M1778,161 A6.83537,6.83537 1.61957 0,1 1771,168" />
<path d="M1771 168h-126" />
<path d="M1645,168 A6.83537,6.83537 1.61957 0,1 1638,161" />
<path d="M1638 161v-102" />
<path d="M1638,59 A6.83537,6.83537 1.61957 0,1 1645,52" />
<path d="M1095 42h126l3 1l2 1l1 2l1 3v42l-1 3l-1 2l-2 1l-3 1h-126l-3 -1l-2 -1l-1 -2l-1 -3v-42l1 -3l1 -2l2 -1z" stroke="none" fill="#edf6fe" />
<text x="1158" y="40" fill="black" stroke-width="0" text-anchor="middle">xlconcat_0</text>
<text x="1158" y="100" fill="#41619f" stroke-width="0" text-anchor="middle" dy="7.7">Concat</text>
</g>
<g stroke="black" stroke-width="5">
<path d="M1078 70h10" />
<text x="1090" y="70" fill="black" stroke-width="0" font-size="10" dy="3.25">In0[0:0]</text>
<path d="M1238 70h-10" />
<text x="1226" y="70" fill="black" stroke-width="0" font-size="10" text-anchor="end" dy="3.25">dout[0:0]</text>
</g>
<g stroke="#41619f">
<path d="M1095 42h126" />
<path d="M1221,42 A6.83537,6.83537 1.61957 0,1 1228,49" />
<path d="M1228 49v42" />
<path d="M1228,91 A6.83537,6.83537 1.61957 0,1 1221,98" />
<path d="M1221 98h-126" />
<path d="M1095,98 A6.83537,6.83537 1.61957 0,1 1088,91" />
<path d="M1088 91v-42" />
<path d="M1088,49 A6.83537,6.83537 1.61957 0,1 1095,42" />
</g>
<g>
<path d="M128 750h50" />
<path d="M128 650h1470v-130h-30" />
<path d="M538 510h-40v-80h500v210h350v-200h250v-90h-50" />
</g>
<g stroke="#41619f" stroke-width="4">
<path d="M1278 260h20v-160h330" />
<path d="M1278 280h40v-100h50" />
<path d="M1278 300h20v210h70" />
<path d="M1278 320h110" />
</g>
<g>
<path d="M1568 540h260" />
<path d="M178 790h-20v-120h340v-120h-100" />
<path d="M178 730h-30v-70h360v-110h30" />
<path d="M508 630h480v-440h50" />
<path d="M988 620h320v-510h300v10h20" />
<path d="M128 670h20" />
<path d="M146 668h5v5h-5z" stroke="none" fill="#102235" />
<path d="M506 628h5v5h-5z" stroke="none" fill="#102235" />
<path d="M988 550h110" />
<path d="M988 390h50" />
<path d="M988 350h50" />
<path d="M988 310h50" />
<path d="M988 270h50" />
<path d="M988 230h50" />
<path d="M986 618h5v5h-5z" stroke="none" fill="#102235" />
<path d="M986 548h5v5h-5z" stroke="none" fill="#102235" />
<path d="M986 388h5v5h-5z" stroke="none" fill="#102235" />
<path d="M986 348h5v5h-5z" stroke="none" fill="#102235" />
<path d="M986 308h5v5h-5z" stroke="none" fill="#102235" />
<path d="M986 268h5v5h-5z" stroke="none" fill="#102235" />
<path d="M986 228h5v5h-5z" stroke="none" fill="#102235" />
<path d="M1308 530h60" />
<path d="M1308 340h80" />
<path d="M1308 200h60" />
<path d="M1306 528h5v5h-5z" stroke="none" fill="#102235" />
<path d="M1306 338h5v5h-5z" stroke="none" fill="#102235" />
<path d="M1306 198h5v5h-5z" stroke="none" fill="#102235" />
</g>
<g stroke="#41619f" stroke-width="4">
<path d="M958 550h20v-380h60" />
<path d="M398 530h140" />
<path d="M958 510h140" />
<path d="M958 530h140" />
</g>
<g stroke-width="3">
<path d="M478 750h540v-180h80" />
</g>
<g>
<path d="M478 730h40v-160h20" />
</g>
<g stroke-width="3">
<path d="M478 810h530v-600h30" />
<path d="M1008 630h330v-510h250v20h40" />
<path d="M1008 410h30" />
<path d="M1008 370h30" />
<path d="M1008 330h30" />
<path d="M1008 290h30" />
<path d="M1008 250h30" />
<path d="M1005 627h7v7h-7z" stroke="none" fill="#102235" />
<path d="M1005 407h7v7h-7z" stroke="none" fill="#102235" />
<path d="M1005 367h7v7h-7z" stroke="none" fill="#102235" />
<path d="M1005 327h7v7h-7z" stroke="none" fill="#102235" />
<path d="M1005 287h7v7h-7z" stroke="none" fill="#102235" />
<path d="M1005 247h7v7h-7z" stroke="none" fill="#102235" />
<path d="M1338 550h30" />
<path d="M1338 360h50" />
<path d="M1338 220h30" />
<path d="M1335 547h7v7h-7z" stroke="none" fill="#102235" />
<path d="M1335 357h7v7h-7z" stroke="none" fill="#102235" />
<path d="M1335 217h7v7h-7z" stroke="none" fill="#102235" />
</g>
<g stroke="#41619f" stroke-width="4">
<path d="M1568 200h30v-120h30" />
</g>
<g>
<path d="M1078 70h-100v-60h830v100h-20" />
</g>
<g stroke-width="3">
<path d="M1238 70h90v310h60" />
</g>
</g>
</svg>
