<?xml version="1.0" encoding="UTF-8" standalone="no"?>
<svg viewBox="0 0 600 3930"
     preserveAspectRatio="xMidYMid meet"
     version="1.1"
     baseProfile="full"
     xmlns="http://www.w3.org/2000/svg"
     xmlns:xlink="http://www.w3.org/1999/xlink"
     xmlns:ev="http://www.w3.org/2001/xml-events"
     xml:space="preserve">
<title>snn_ecg_mb_full_replay_wrapper</title>
<desc>Nlview schematic (SVG)</desc>
<clipPath id="clippingbbox">
<rect x="0" y="0" width="3930" height="600" />
</clipPath>
<g stroke="#19b400"
   stroke-width="1"
   stroke-linecap="butt"
   stroke-linejoin="miter"
   stroke-miterlimit="4"
   stroke-dasharray="none"
   stroke-dashoffset="0"
   fill="none"
   font-family="Helvetica"
   font-style="normal"
   font-size="12"
   writing-mode="lr-tb"
   cursor="crosshair"
   transform="rotate(-90) translate(-3930)"
   clip-path="url(#clippingbbox)">
<path d="M0 0h3930v601h-3930z" stroke="none" fill="white" />
<path d="M18 24h3889l3 1l3 1l1 3l1 3v530l-1 3l-1 3l-3 1l-3 1h-3889l-3 -1l-3 -1l-1 -3l-1 -3v-530l1 -3l1 -3l3 -1z" stroke="none" fill="#fafafa" />
<g stroke="black">
<path d="M18 24h3889" />
<path d="M3907,24 A7.83511,7.83511 1.61334 0,1 3915,32" />
<path d="M3915 32v530" />
<path d="M3915,562 A7.83511,7.83511 1.61334 0,1 3907,570" />
<path d="M3907 570h-3889" />
<path d="M18,570 A7.83511,7.83511 1.61334 0,1 10,562" />
<path d="M10 562v-530" />
<path d="M10,32 A7.83511,7.83511 1.61334 0,1 18,24" />
<text x="1962" y="22" fill="black" stroke-width="0" text-anchor="middle">snn_ecg_mb_full_replay_i</text>
</g>
<g stroke="black" stroke-width="3">
<path d="M15 35h12" />
</g>
<g stroke="black">
<path d="M13 27h16v16h-16z" />
<text x="1962" y="572" fill="black" stroke-width="0" text-anchor="middle" dy="7.7">snn_ecg_mb_full_replay</text>
<path d="M28 64h3869l3 1l3 1l1 3l1 3v460l-1 3l-1 3l-3 1l-3 1h-3869l-3 -1l-3 -1l-1 -3l-1 -3v-460l1 -3l1 -3l3 -1z" stroke="none" fill="#fafafa" />
<path d="M28 64h3869" />
<path d="M3897,64 A7.83511,7.83511 1.61334 0,1 3905,72" />
<path d="M3905 72v460" />
<path d="M3905,532 A7.83511,7.83511 1.61334 0,1 3897,540" />
<path d="M3897 540h-3869" />
<path d="M28,540 A7.83511,7.83511 1.61334 0,1 20,532" />
<path d="M20 532v-460" />
<path d="M20,72 A7.83511,7.83511 1.61334 0,1 28,64" />
<text x="1962" y="62" fill="black" stroke-width="0" text-anchor="middle">snn_ecg_axi_accelerator_0</text>
</g>
<g stroke="black" stroke-width="3">
<path d="M25 75h12" />
</g>
<g stroke="black">
<path d="M23 67h16v16h-16z" />
<text x="1962" y="542" fill="black" stroke-width="0" text-anchor="middle" dy="7.7">...ll_replay_snn_ecg_axi_accelerator_0_0</text>
<path d="M38 104h3849l3 1l3 1l1 3l1 3v390l-1 3l-1 3l-3 1l-3 1h-3849l-3 -1l-3 -1l-1 -3l-1 -3v-390l1 -3l1 -3l3 -1z" stroke="none" fill="#fafafa" />
<path d="M38 104h3849" />
<path d="M3887,104 A7.83511,7.83511 1.61334 0,1 3895,112" />
<path d="M3895 112v390" />
<path d="M3895,502 A7.83511,7.83511 1.61334 0,1 3887,510" />
<path d="M3887 510h-3849" />
<path d="M38,510 A7.83511,7.83511 1.61334 0,1 30,502" />
<path d="M30 502v-390" />
<path d="M30,112 A7.83511,7.83511 1.61334 0,1 38,104" />
<text x="1962" y="102" fill="black" stroke-width="0" text-anchor="middle">inst</text>
</g>
<g stroke="black" stroke-width="3">
<path d="M35 115h12" />
</g>
<g stroke="black">
<path d="M33 107h16v16h-16z" />
<text x="1962" y="512" fill="black" stroke-width="0" text-anchor="middle" dy="7.7">...rator_0_0_snn_ecg_axi_lite_stream_top</text>
<path d="M48 144h3829l3 1l3 1l1 3l1 3v320l-1 3l-1 3l-3 1l-3 1h-3829l-3 -1l-3 -1l-1 -3l-1 -3v-320l1 -3l1 -3l3 -1z" stroke="none" fill="#fafafa" />
<path d="M48 144h3829" />
<path d="M3877,144 A7.83511,7.83511 1.61334 0,1 3885,152" />
<path d="M3885 152v320" />
<path d="M3885,472 A7.83511,7.83511 1.61334 0,1 3877,480" />
<path d="M3877 480h-3829" />
<path d="M48,480 A7.83511,7.83511 1.61334 0,1 40,472" />
<path d="M40 472v-320" />
<path d="M40,152 A7.83511,7.83511 1.61334 0,1 48,144" />
<text x="1962" y="142" fill="black" stroke-width="0" text-anchor="middle">u_core</text>
</g>
<g stroke="black" stroke-width="3">
<path d="M45 155h12" />
</g>
<g stroke="black">
<path d="M43 147h16v16h-16z" />
<text x="1962" y="482" fill="black" stroke-width="0" text-anchor="middle" dy="7.7">...celerator_0_0_snn_ecg_30min_final_top</text>
<path d="M468 190h3399l3 1l3 1l1 3l1 3v244l-1 3l-1 3l-3 1l-3 1h-3399l-3 -1l-3 -1l-1 -3l-1 -3v-244l1 -3l1 -3l3 -1z" stroke="none" fill="#fafafa" />
<path d="M468 190h3399" />
<path d="M3867,190 A7.83511,7.83511 1.61334 0,1 3875,198" />
<path d="M3875 198v244" />
<path d="M3875,442 A7.83511,7.83511 1.61334 0,1 3867,450" />
<path d="M3867 450h-3399" />
<path d="M468,450 A7.83511,7.83511 1.61334 0,1 460,442" />
<path d="M460 442v-244" />
<path d="M460,198 A7.83511,7.83511 1.61334 0,1 468,190" />
</g>
<g stroke="black" stroke-width="3">
<path d="M465 201h12" />
</g>
<g stroke="black">
<path d="M463 193h16v16h-16z" />
<text x="2167" y="188" fill="black" stroke-width="0" text-anchor="middle">u_final</text>
<text x="2167" y="452" fill="black" stroke-width="0" text-anchor="middle" dy="7.7">..._accelerator_0_0_final_membrane_layer</text>
</g>
<g stroke="black" stroke-width="3">
<path d="M450 330h10" />
<text x="458" y="328" fill="black" stroke-width="0" font-size="10" text-anchor="end">qrs_energy_abn_count_reg[27:0]</text>
<path d="M470 330h-10" />
<path d="M2210 240h120v80h-120z" stroke="none" fill="#ffffcc" />
</g>
<g stroke="black">
<path d="M2210 240h120v80h-120z" />
<text x="2270" y="238" fill="black" stroke-width="0" text-anchor="middle">sum_morphology_reg[12]_i_2</text>
<text x="2270" y="322" fill="black" stroke-width="0" text-anchor="middle" dy="7.7">CARRY4</text>
<path d="M2200 250h10" />
<text x="2212" y="250" fill="black" stroke-width="0" font-size="10" dy="3.25">CI</text>
<path d="M2200 270h10" />
<text x="2212" y="270" fill="black" stroke-width="0" font-size="10" dy="3.25">CYINIT</text>
</g>
<g stroke="black" stroke-width="3">
<path d="M2340 270h-10" />
<text x="2328" y="270" fill="black" stroke-width="0" font-size="10" text-anchor="end" dy="3.25">CO[3:0]</text>
<path d="M2340 290h-10" />
<text x="2328" y="290" fill="black" stroke-width="0" font-size="10" text-anchor="end" dy="3.25">O[3:0]</text>
<path d="M2200 290h10" />
<text x="2212" y="290" fill="black" stroke-width="0" font-size="10" dy="3.25">DI[3:0]</text>
<path d="M2200 310h10" />
<text x="2212" y="310" fill="black" stroke-width="0" font-size="10" dy="3.25">S[3:0]</text>
<path d="M3110 340h60v80h-60z" stroke="none" fill="#ffffcc" />
</g>
<g stroke="black">
<path d="M3110 340h60v80h-60z" />
<text x="3140" y="338" fill="black" stroke-width="0" text-anchor="middle">dec_morphology[27]_i_8</text>
<text x="3140" y="422" fill="black" stroke-width="0" text-anchor="middle" dy="7.7">LUT4</text>
<path d="M3180 370h-10" />
<text x="3168" y="370" fill="black" stroke-width="0" font-size="10" text-anchor="end" dy="3.25">O</text>
<path d="M3100 350h10" />
<text x="3112" y="350" fill="black" stroke-width="0" font-size="10" dy="3.25">I0</text>
<path d="M3100 370h10" />
<text x="3112" y="370" fill="black" stroke-width="0" font-size="10" dy="3.25">I1</text>
<path d="M3100 390h10" />
<text x="3112" y="390" fill="black" stroke-width="0" font-size="10" dy="3.25">I2</text>
<path d="M3100 410h10" />
<text x="3112" y="410" fill="black" stroke-width="0" font-size="10" dy="3.25">I3</text>
<path d="M3290 300h120v80h-120z" stroke="none" fill="#ffffcc" />
<path d="M3290 300h120v80h-120z" />
<text x="3350" y="298" fill="black" stroke-width="0" text-anchor="middle">dec_morphology_reg[27]_i_1</text>
<text x="3350" y="382" fill="black" stroke-width="0" text-anchor="middle" dy="7.7">CARRY4</text>
<path d="M3280 310h10" />
<text x="3292" y="310" fill="black" stroke-width="0" font-size="10" dy="3.25">CI</text>
<path d="M3280 330h10" />
<text x="3292" y="330" fill="black" stroke-width="0" font-size="10" dy="3.25">CYINIT</text>
</g>
<g stroke="black" stroke-width="3">
<path d="M3420 330h-10" />
<text x="3408" y="330" fill="black" stroke-width="0" font-size="10" text-anchor="end" dy="3.25">CO[3:0]</text>
<path d="M3420 350h-10" />
<text x="3408" y="350" fill="black" stroke-width="0" font-size="10" text-anchor="end" dy="3.25">O[3:0]</text>
<path d="M3280 350h10" />
<text x="3292" y="350" fill="black" stroke-width="0" font-size="10" dy="3.25">DI[3:0]</text>
<path d="M3280 370h10" />
<text x="3292" y="370" fill="black" stroke-width="0" font-size="10" dy="3.25">S[3:0]</text>
<path d="M3750 310h60v100h-60z" stroke="none" fill="#ffffcc" />
</g>
<g stroke="black">
<path d="M3750 310h60v100h-60z" />
<path d="M3750 333l7 -3l-7 -3" />
<text x="3780" y="308" fill="black" stroke-width="0" text-anchor="middle">dec_morphology_reg[29]</text>
<text x="3780" y="412" fill="black" stroke-width="0" text-anchor="middle" dy="7.7">FDRE</text>
<path d="M3820 360h-10" />
<text x="3808" y="360" fill="black" stroke-width="0" font-size="10" text-anchor="end" dy="3.25">Q</text>
<path d="M3740 330h10" />
<text x="3759" y="330" fill="black" stroke-width="0" font-size="10" dy="3.25">C</text>
<path d="M3740 350h10" />
<text x="3752" y="350" fill="black" stroke-width="0" font-size="10" dy="3.25">CE</text>
<path d="M3740 370h10" />
<text x="3752" y="370" fill="black" stroke-width="0" font-size="10" dy="3.25">D</text>
<path d="M3740 390h10" />
<text x="3752" y="390" fill="black" stroke-width="0" font-size="10" dy="3.25">R</text>
<path d="M3510 320h120v80h-120z" stroke="none" fill="#ffffcc" />
<path d="M3510 320h120v80h-120z" />
<text x="3570" y="318" fill="black" stroke-width="0" text-anchor="middle">dec_morphology_reg[31]_i_1</text>
<text x="3570" y="402" fill="black" stroke-width="0" text-anchor="middle" dy="7.7">CARRY4</text>
<path d="M3500 330h10" />
<text x="3512" y="330" fill="black" stroke-width="0" font-size="10" dy="3.25">CI</text>
<path d="M3500 350h10" />
<text x="3512" y="350" fill="black" stroke-width="0" font-size="10" dy="3.25">CYINIT</text>
</g>
<g stroke="black" stroke-width="3">
<path d="M3640 350h-10" />
<text x="3628" y="350" fill="black" stroke-width="0" font-size="10" text-anchor="end" dy="3.25">CO[3:0]</text>
<text x="3632" y="349" fill="black" stroke-width="0" font-size="8">n/c</text>
<path d="M3640 370h-10" />
<text x="3628" y="370" fill="black" stroke-width="0" font-size="10" text-anchor="end" dy="3.25">O[3:0]</text>
<path d="M3500 370h10" />
<text x="3512" y="370" fill="black" stroke-width="0" font-size="10" dy="3.25">DI[3:0]</text>
<path d="M3500 390h10" />
<text x="3512" y="390" fill="black" stroke-width="0" font-size="10" dy="3.25">S[3:0]</text>
<path d="M550 300h60v60h-60z" stroke="none" fill="#ffffcc" />
</g>
<g stroke="black">
<path d="M550 300h60v60h-60z" />
<text x="580" y="298" fill="black" stroke-width="0" text-anchor="middle">sum_morphology[4]_i_23</text>
<text x="580" y="362" fill="black" stroke-width="0" text-anchor="middle" dy="7.7">LUT3</text>
<path d="M620 330h-10" />
<text x="608" y="330" fill="black" stroke-width="0" font-size="10" text-anchor="end" dy="3.25">O</text>
<path d="M540 310h10" />
<text x="552" y="310" fill="black" stroke-width="0" font-size="10" dy="3.25">I0</text>
<path d="M540 330h10" />
<text x="552" y="330" fill="black" stroke-width="0" font-size="10" dy="3.25">I1</text>
<path d="M540 350h10" />
<text x="552" y="350" fill="black" stroke-width="0" font-size="10" dy="3.25">I2</text>
<path d="M750 260h60v80h-60z" stroke="none" fill="#ffffcc" />
<path d="M750 260h60v80h-60z" />
<text x="780" y="258" fill="black" stroke-width="0" text-anchor="middle">sum_morphology[4]_i_27</text>
<text x="780" y="342" fill="black" stroke-width="0" text-anchor="middle" dy="7.7">LUT4</text>
<path d="M820 290h-10" />
<text x="808" y="290" fill="black" stroke-width="0" font-size="10" text-anchor="end" dy="3.25">O</text>
<path d="M740 270h10" />
<text x="752" y="270" fill="black" stroke-width="0" font-size="10" dy="3.25">I0</text>
<path d="M740 290h10" />
<text x="752" y="290" fill="black" stroke-width="0" font-size="10" dy="3.25">I1</text>
<path d="M740 310h10" />
<text x="752" y="310" fill="black" stroke-width="0" font-size="10" dy="3.25">I2</text>
<path d="M740 330h10" />
<text x="752" y="330" fill="black" stroke-width="0" font-size="10" dy="3.25">I3</text>
<path d="M1830 220h60v100h-60z" stroke="none" fill="#ffffcc" />
<path d="M1830 220h60v100h-60z" />
<text x="1860" y="218" fill="black" stroke-width="0" text-anchor="middle">sum_morphology[12]_i_9</text>
<text x="1860" y="322" fill="black" stroke-width="0" text-anchor="middle" dy="7.7">LUT5</text>
<path d="M1900 270h-10" />
<text x="1888" y="270" fill="black" stroke-width="0" font-size="10" text-anchor="end" dy="3.25">O</text>
<path d="M1820 230h10" />
<text x="1832" y="230" fill="black" stroke-width="0" font-size="10" dy="3.25">I0</text>
<path d="M1820 250h10" />
<text x="1832" y="250" fill="black" stroke-width="0" font-size="10" dy="3.25">I1</text>
<path d="M1820 270h10" />
<text x="1832" y="270" fill="black" stroke-width="0" font-size="10" dy="3.25">I2</text>
<path d="M1820 290h10" />
<text x="1832" y="290" fill="black" stroke-width="0" font-size="10" dy="3.25">I3</text>
<path d="M1820 310h10" />
<text x="1832" y="310" fill="black" stroke-width="0" font-size="10" dy="3.25">I4</text>
<path d="M2030 260h60v120h-60z" stroke="none" fill="#ffffcc" />
<path d="M2030 260h60v120h-60z" />
<text x="2060" y="258" fill="black" stroke-width="0" text-anchor="middle">sum_morphology[12]_i_13</text>
<text x="2060" y="382" fill="black" stroke-width="0" text-anchor="middle" dy="7.7">LUT6</text>
<path d="M2100 310h-10" />
<text x="2088" y="310" fill="black" stroke-width="0" font-size="10" text-anchor="end" dy="3.25">O</text>
<path d="M2020 270h10" />
<text x="2032" y="270" fill="black" stroke-width="0" font-size="10" dy="3.25">I0</text>
<path d="M2020 290h10" />
<text x="2032" y="290" fill="black" stroke-width="0" font-size="10" dy="3.25">I1</text>
<path d="M2020 310h10" />
<text x="2032" y="310" fill="black" stroke-width="0" font-size="10" dy="3.25">I2</text>
<path d="M2020 330h10" />
<text x="2032" y="330" fill="black" stroke-width="0" font-size="10" dy="3.25">I3</text>
<path d="M2020 350h10" />
<text x="2032" y="350" fill="black" stroke-width="0" font-size="10" dy="3.25">I4</text>
<path d="M2020 370h10" />
<text x="2032" y="370" fill="black" stroke-width="0" font-size="10" dy="3.25">I5</text>
<path d="M1630 280h60v60h-60z" stroke="none" fill="#ffffcc" />
<path d="M1630 280h60v60h-60z" />
<text x="1660" y="278" fill="black" stroke-width="0" text-anchor="middle">sum_morphology[12]_i_18</text>
<text x="1660" y="342" fill="black" stroke-width="0" text-anchor="middle" dy="7.7">LUT3</text>
<path d="M1700 310h-10" />
<text x="1688" y="310" fill="black" stroke-width="0" font-size="10" text-anchor="end" dy="3.25">O</text>
<path d="M1620 290h10" />
<text x="1632" y="290" fill="black" stroke-width="0" font-size="10" dy="3.25">I0</text>
<path d="M1620 310h10" />
<text x="1632" y="310" fill="black" stroke-width="0" font-size="10" dy="3.25">I1</text>
<path d="M1620 330h10" />
<text x="1632" y="330" fill="black" stroke-width="0" font-size="10" dy="3.25">I2</text>
<path d="M930 220h120v80h-120z" stroke="none" fill="#ffffcc" />
<path d="M930 220h120v80h-120z" />
<text x="990" y="218" fill="black" stroke-width="0" text-anchor="middle">sum_morphology_reg[4]_i_15</text>
<text x="990" y="302" fill="black" stroke-width="0" text-anchor="middle" dy="7.7">CARRY4</text>
<path d="M920 230h10" />
<text x="932" y="230" fill="black" stroke-width="0" font-size="10" dy="3.25">CI</text>
<path d="M920 250h10" />
<text x="932" y="250" fill="black" stroke-width="0" font-size="10" dy="3.25">CYINIT</text>
</g>
<g stroke="black" stroke-width="3">
<path d="M1060 250h-10" />
<text x="1048" y="250" fill="black" stroke-width="0" font-size="10" text-anchor="end" dy="3.25">CO[3:0]</text>
<path d="M1060 270h-10" />
<text x="1048" y="270" fill="black" stroke-width="0" font-size="10" text-anchor="end" dy="3.25">O[3:0]</text>
<path d="M920 270h10" />
<text x="932" y="270" fill="black" stroke-width="0" font-size="10" dy="3.25">DI[3:0]</text>
<path d="M920 290h10" />
<text x="932" y="290" fill="black" stroke-width="0" font-size="10" dy="3.25">S[3:0]</text>
<path d="M1150 240h120v80h-120z" stroke="none" fill="#ffffcc" />
</g>
<g stroke="black">
<path d="M1150 240h120v80h-120z" />
<text x="1210" y="238" fill="black" stroke-width="0" text-anchor="middle">sum_morphology_reg[8]_i_15</text>
<text x="1210" y="322" fill="black" stroke-width="0" text-anchor="middle" dy="7.7">CARRY4</text>
<path d="M1140 250h10" />
<text x="1152" y="250" fill="black" stroke-width="0" font-size="10" dy="3.25">CI</text>
<path d="M1140 270h10" />
<text x="1152" y="270" fill="black" stroke-width="0" font-size="10" dy="3.25">CYINIT</text>
</g>
<g stroke="black" stroke-width="3">
<path d="M1280 270h-10" />
<text x="1268" y="270" fill="black" stroke-width="0" font-size="10" text-anchor="end" dy="3.25">CO[3:0]</text>
<path d="M1280 290h-10" />
<text x="1268" y="290" fill="black" stroke-width="0" font-size="10" text-anchor="end" dy="3.25">O[3:0]</text>
<path d="M1140 290h10" />
<text x="1152" y="290" fill="black" stroke-width="0" font-size="10" dy="3.25">DI[3:0]</text>
<path d="M1140 310h10" />
<text x="1152" y="310" fill="black" stroke-width="0" font-size="10" dy="3.25">S[3:0]</text>
<path d="M120 280h60v100h-60z" stroke="none" fill="#ffffcc" />
</g>
<g stroke="black">
<path d="M120 280h60v100h-60z" />
<path d="M120 303l7 -3l-7 -3" />
<text x="150" y="278" fill="black" stroke-width="0" text-anchor="middle">qrs_energy_abn_count_reg[3]</text>
<text x="150" y="382" fill="black" stroke-width="0" text-anchor="middle" dy="7.7">FDRE</text>
<path d="M190 330h-10" />
<text x="178" y="330" fill="black" stroke-width="0" font-size="10" text-anchor="end" dy="3.25">Q</text>
<path d="M110 300h10" />
<text x="129" y="300" fill="black" stroke-width="0" font-size="10" dy="3.25">C</text>
<path d="M110 320h10" />
<text x="122" y="320" fill="black" stroke-width="0" font-size="10" dy="3.25">CE</text>
<path d="M110 340h10" />
<text x="122" y="340" fill="black" stroke-width="0" font-size="10" dy="3.25">D</text>
<path d="M110 360h10" />
<text x="122" y="360" fill="black" stroke-width="0" font-size="10" dy="3.25">R</text>
<path d="M1380 260h120v80h-120z" stroke="none" fill="#ffffcc" />
<path d="M1380 260h120v80h-120z" />
<text x="1440" y="258" fill="black" stroke-width="0" text-anchor="middle">sum_morphology_reg[12]_i_15</text>
<text x="1440" y="342" fill="black" stroke-width="0" text-anchor="middle" dy="7.7">CARRY4</text>
<path d="M1370 270h10" />
<text x="1382" y="270" fill="black" stroke-width="0" font-size="10" dy="3.25">CI</text>
<path d="M1370 290h10" />
<text x="1382" y="290" fill="black" stroke-width="0" font-size="10" dy="3.25">CYINIT</text>
</g>
<g stroke="black" stroke-width="3">
<path d="M1510 290h-10" />
<text x="1498" y="290" fill="black" stroke-width="0" font-size="10" text-anchor="end" dy="3.25">CO[3:0]</text>
<path d="M1510 310h-10" />
<text x="1498" y="310" fill="black" stroke-width="0" font-size="10" text-anchor="end" dy="3.25">O[3:0]</text>
<path d="M1370 310h10" />
<text x="1382" y="310" fill="black" stroke-width="0" font-size="10" dy="3.25">DI[3:0]</text>
<path d="M1370 330h10" />
<text x="1382" y="330" fill="black" stroke-width="0" font-size="10" dy="3.25">S[3:0]</text>
<path d="M2430 260h120v80h-120z" stroke="none" fill="#ffffcc" />
</g>
<g stroke="black">
<path d="M2430 260h120v80h-120z" />
<text x="2490" y="258" fill="black" stroke-width="0" text-anchor="middle">sum_morphology_reg[16]_i_2</text>
<text x="2490" y="342" fill="black" stroke-width="0" text-anchor="middle" dy="7.7">CARRY4</text>
<path d="M2420 270h10" />
<text x="2432" y="270" fill="black" stroke-width="0" font-size="10" dy="3.25">CI</text>
<path d="M2420 290h10" />
<text x="2432" y="290" fill="black" stroke-width="0" font-size="10" dy="3.25">CYINIT</text>
</g>
<g stroke="black" stroke-width="3">
<path d="M2560 290h-10" />
<text x="2548" y="290" fill="black" stroke-width="0" font-size="10" text-anchor="end" dy="3.25">CO[3:0]</text>
<path d="M2560 310h-10" />
<text x="2548" y="310" fill="black" stroke-width="0" font-size="10" text-anchor="end" dy="3.25">O[3:0]</text>
<path d="M2420 310h10" />
<text x="2432" y="310" fill="black" stroke-width="0" font-size="10" dy="3.25">DI[3:0]</text>
<path d="M2420 330h10" />
<text x="2432" y="330" fill="black" stroke-width="0" font-size="10" dy="3.25">S[3:0]</text>
<path d="M2650 280h120v80h-120z" stroke="none" fill="#ffffcc" />
</g>
<g stroke="black">
<path d="M2650 280h120v80h-120z" />
<text x="2710" y="278" fill="black" stroke-width="0" text-anchor="middle">sum_morphology_reg[20]_i_2</text>
<text x="2710" y="362" fill="black" stroke-width="0" text-anchor="middle" dy="7.7">CARRY4</text>
<path d="M2640 290h10" />
<text x="2652" y="290" fill="black" stroke-width="0" font-size="10" dy="3.25">CI</text>
<path d="M2640 310h10" />
<text x="2652" y="310" fill="black" stroke-width="0" font-size="10" dy="3.25">CYINIT</text>
</g>
<g stroke="black" stroke-width="3">
<path d="M2780 310h-10" />
<text x="2768" y="310" fill="black" stroke-width="0" font-size="10" text-anchor="end" dy="3.25">CO[3:0]</text>
<path d="M2780 330h-10" />
<text x="2768" y="330" fill="black" stroke-width="0" font-size="10" text-anchor="end" dy="3.25">O[3:0]</text>
<path d="M2640 330h10" />
<text x="2652" y="330" fill="black" stroke-width="0" font-size="10" dy="3.25">DI[3:0]</text>
<path d="M2640 350h10" />
<text x="2652" y="350" fill="black" stroke-width="0" font-size="10" dy="3.25">S[3:0]</text>
<path d="M2870 300h120v80h-120z" stroke="none" fill="#ffffcc" />
</g>
<g stroke="black">
<path d="M2870 300h120v80h-120z" />
<text x="2930" y="298" fill="black" stroke-width="0" text-anchor="middle">sum_morphology_reg[24]_i_2</text>
<text x="2930" y="382" fill="black" stroke-width="0" text-anchor="middle" dy="7.7">CARRY4</text>
<path d="M2860 310h10" />
<text x="2872" y="310" fill="black" stroke-width="0" font-size="10" dy="3.25">CI</text>
<path d="M2860 330h10" />
<text x="2872" y="330" fill="black" stroke-width="0" font-size="10" dy="3.25">CYINIT</text>
</g>
<g stroke="black" stroke-width="3">
<path d="M3000 330h-10" />
<text x="2988" y="330" fill="black" stroke-width="0" font-size="10" text-anchor="end" dy="3.25">CO[3:0]</text>
<path d="M3000 350h-10" />
<text x="2988" y="350" fill="black" stroke-width="0" font-size="10" text-anchor="end" dy="3.25">O[3:0]</text>
<path d="M2860 350h10" />
<text x="2872" y="350" fill="black" stroke-width="0" font-size="10" dy="3.25">DI[3:0]</text>
<path d="M2860 370h10" />
<text x="2872" y="370" fill="black" stroke-width="0" font-size="10" dy="3.25">S[3:0]</text>
</g>
<g stroke-dasharray="7,3" stroke-dashoffset="3">
<path d="M190 330h260" />
</g>
<g>
<path d="M3180 370h100" />
<path d="M3420 330h80" />
<path d="M3640 370h100" />
</g>
<g stroke-dasharray="7,3" stroke-dashoffset="3">
<path d="M3000 350h100" />
<path d="M470 330h70" />
<path d="M620 330h120" />
</g>
<g>
<path d="M820 290h100" />
</g>
<g stroke-dasharray="7,3" stroke-dashoffset="3">
<path d="M1900 270h120" />
</g>
<g>
<path d="M2100 310h100" />
</g>
<g stroke-dasharray="7,3" stroke-dashoffset="3">
<path d="M1700 310h120" />
</g>
<g>
<path d="M1060 250h80" />
<path d="M1280 270h90" />
<path d="M2340 270h80" />
</g>
<g stroke-dasharray="7,3" stroke-dashoffset="3">
<path d="M1510 310h110" />
</g>
<g>
<path d="M2560 290h80" />
<path d="M2780 310h80" />
</g>
</g>
</svg>
