<svg xmlns="http://www.w3.org/2000/svg" width="1600" height="1150" viewBox="0 0 1600 1150">
<defs><marker id="flow-arrow" markerWidth="10" markerHeight="10" refX="9" refY="3" orient="auto" markerUnits="strokeWidth"><path d="M0,0 L0,6 L9,3 z" fill="#34495e"/></marker></defs>
<rect width="1600" height="1150" fill="#ffffff"/>
<rect x="0" y="0" width="1600" height="100" fill="#102a43"/>
<text x="54" y="56" font-family="Arial, Noto Sans KR, sans-serif" font-size="34" font-weight="700" fill="white">전체 연구 workflow</text>
<text x="54" y="83" font-family="Arial, Noto Sans KR, sans-serif" font-size="15" fill="#d9e2ec">공개 ECG에서 통합 결과까지</text>
<circle cx="430" cy="157.5" r="22" fill="#2f80ed"/>
<text x="430" y="164" text-anchor="middle" font-family="Arial, Noto Sans KR, sans-serif" font-size="17" font-weight="700" fill="#ffffff">1</text>
<rect x="480" y="120" width="640" height="75" rx="8" fill="#f4f8ff" stroke="#829ab1" stroke-width="2"/>
<rect x="480" y="120" width="640" height="8" rx="4" fill="#2f80ed"/>
<text x="800.0" y="164.5" text-anchor="middle" font-family="Arial, Noto Sans KR, sans-serif" font-size="18" font-weight="700" fill="#102a43">공개 ECG 데이터</text>
<line x1="800" y1="195" x2="800" y2="238" stroke="#34495e" stroke-width="3" marker-end="url(#flow-arrow)"/>
<circle cx="430" cy="275.5" r="22" fill="#0ca678"/>
<text x="430" y="282" text-anchor="middle" font-family="Arial, Noto Sans KR, sans-serif" font-size="17" font-weight="700" fill="#ffffff">2</text>
<rect x="480" y="238" width="640" height="75" rx="8" fill="#f0fff8" stroke="#829ab1" stroke-width="2"/>
<rect x="480" y="238" width="640" height="8" rx="4" fill="#0ca678"/>
<text x="800.0" y="282.5" text-anchor="middle" font-family="Arial, Noto Sans KR, sans-serif" font-size="18" font-weight="700" fill="#102a43">MATLAB AFE·ADC 검증</text>
<line x1="800" y1="313" x2="800" y2="356" stroke="#34495e" stroke-width="3" marker-end="url(#flow-arrow)"/>
<circle cx="430" cy="393.5" r="22" fill="#f08c00"/>
<text x="430" y="400" text-anchor="middle" font-family="Arial, Noto Sans KR, sans-serif" font-size="17" font-weight="700" fill="#ffffff">3</text>
<rect x="480" y="356" width="640" height="75" rx="8" fill="#fff9f0" stroke="#829ab1" stroke-width="2"/>
<rect x="480" y="356" width="640" height="8" rx="4" fill="#f08c00"/>
<text x="800.0" y="400.5" text-anchor="middle" font-family="Arial, Noto Sans KR, sans-serif" font-size="18" font-weight="700" fill="#102a43">AFE·ADC XMODEL 검증</text>
<line x1="800" y1="431" x2="800" y2="474" stroke="#34495e" stroke-width="3" marker-end="url(#flow-arrow)"/>
<circle cx="430" cy="511.5" r="22" fill="#7950f2"/>
<text x="430" y="518" text-anchor="middle" font-family="Arial, Noto Sans KR, sans-serif" font-size="17" font-weight="700" fill="#ffffff">4</text>
<rect x="480" y="474" width="640" height="75" rx="8" fill="#faf7ff" stroke="#829ab1" stroke-width="2"/>
<rect x="480" y="474" width="640" height="8" rx="4" fill="#7950f2"/>
<text x="800.0" y="518.5" text-anchor="middle" font-family="Arial, Noto Sans KR, sans-serif" font-size="18" font-weight="700" fill="#102a43">Digital SNN RTL IP</text>
<line x1="800" y1="549" x2="800" y2="592" stroke="#34495e" stroke-width="3" marker-end="url(#flow-arrow)"/>
<circle cx="430" cy="629.5" r="22" fill="#5f3dc4"/>
<text x="430" y="636" text-anchor="middle" font-family="Arial, Noto Sans KR, sans-serif" font-size="17" font-weight="700" fill="#ffffff">5</text>
<rect x="480" y="592" width="640" height="75" rx="8" fill="#f8f5ff" stroke="#829ab1" stroke-width="2"/>
<rect x="480" y="592" width="640" height="8" rx="4" fill="#5f3dc4"/>
<text x="800.0" y="636.5" text-anchor="middle" font-family="Arial, Noto Sans KR, sans-serif" font-size="18" font-weight="700" fill="#102a43">Accelerator Benchmark</text>
<line x1="800" y1="667" x2="800" y2="710" stroke="#34495e" stroke-width="3" marker-end="url(#flow-arrow)"/>
<circle cx="430" cy="747.5" r="22" fill="#0b7285"/>
<text x="430" y="754" text-anchor="middle" font-family="Arial, Noto Sans KR, sans-serif" font-size="17" font-weight="700" fill="#ffffff">6</text>
<rect x="480" y="710" width="640" height="75" rx="8" fill="#eefafa" stroke="#829ab1" stroke-width="2"/>
<rect x="480" y="710" width="640" height="8" rx="4" fill="#0b7285"/>
<text x="800.0" y="754.5" text-anchor="middle" font-family="Arial, Noto Sans KR, sans-serif" font-size="18" font-weight="700" fill="#102a43">AFE–RTL 통합 검증</text>
<line x1="800" y1="785" x2="800" y2="828" stroke="#34495e" stroke-width="3" marker-end="url(#flow-arrow)"/>
<circle cx="430" cy="865.5" r="22" fill="#1971c2"/>
<text x="430" y="872" text-anchor="middle" font-family="Arial, Noto Sans KR, sans-serif" font-size="17" font-weight="700" fill="#ffffff">7</text>
<rect x="480" y="828" width="640" height="75" rx="8" fill="#f3f9ff" stroke="#829ab1" stroke-width="2"/>
<rect x="480" y="828" width="640" height="8" rx="4" fill="#1971c2"/>
<text x="800.0" y="872.5" text-anchor="middle" font-family="Arial, Noto Sans KR, sans-serif" font-size="18" font-weight="700" fill="#102a43">FPGA·IP 구현 검증</text>
<line x1="800" y1="903" x2="800" y2="946" stroke="#34495e" stroke-width="3" marker-end="url(#flow-arrow)"/>
<circle cx="430" cy="983.5" r="22" fill="#f59f00"/>
<text x="430" y="990" text-anchor="middle" font-family="Arial, Noto Sans KR, sans-serif" font-size="17" font-weight="700" fill="#ffffff">8</text>
<rect x="480" y="946" width="640" height="75" rx="8" fill="#fff9db" stroke="#829ab1" stroke-width="2"/>
<rect x="480" y="946" width="640" height="8" rx="4" fill="#f59f00"/>
<text x="800.0" y="990.5" text-anchor="middle" font-family="Arial, Noto Sans KR, sans-serif" font-size="18" font-weight="700" fill="#102a43">최종 결과·보고서</text>
<line x1="40" y1="1090" x2="1560" y2="1090" stroke="#d9e2ec" stroke-width="2"/>
<text x="800" y="1125" text-anchor="middle" font-family="Arial, Noto Sans KR, sans-serif" font-size="14" font-weight="400" fill="#486581">세부 회로값, 검증 조건과 결과 수치는 본문에서 설명한다.</text>
</svg>
