<svg xmlns="http://www.w3.org/2000/svg" width="1600" height="950" viewBox="0 0 1600 950" role="img" aria-label="Public ECG data pass through MATLAB prevalidation, split into XMODEL and digital RTL work, and merge as benchmark, FPGA, and integration evidence for the final report">
<defs><marker id="paper-arrow" markerWidth="10" markerHeight="10" refX="9" refY="3" orient="auto" markerUnits="strokeWidth"><path d="M0,0 L0,6 L9,3 z" fill="#364152"/></marker></defs>
<rect width="1600" height="950" fill="#ffffff"/>
<rect x="600" y="45" width="400" height="80" rx="4" fill="#f8fafc" stroke="#667085" stroke-width="2"/>
<text x="800.0" y="92.0" text-anchor="middle" font-family="Arial, Noto Sans KR, sans-serif" font-size="18" font-weight="700" fill="#182230">공개 ECG 데이터</text>
<rect x="600" y="175" width="400" height="80" rx="4" fill="#ecfdf3" stroke="#2f855a" stroke-width="2"/>
<text x="800.0" y="222.0" text-anchor="middle" font-family="Arial, Noto Sans KR, sans-serif" font-size="18" font-weight="700" fill="#182230">MATLAB AFE·ADC 사전검증</text>
<rect x="600" y="305" width="400" height="80" rx="4" fill="#f8fafc" stroke="#667085" stroke-width="2"/>
<text x="800.0" y="352.0" text-anchor="middle" font-family="Arial, Noto Sans KR, sans-serif" font-size="18" font-weight="700" fill="#182230">Signed 12-bit 기준 Stream</text>
<polyline points="800,125 800,175" fill="none" stroke="#364152" stroke-width="2.5" stroke-linejoin="round" stroke-linecap="round" marker-end="url(#paper-arrow)"/>
<polyline points="800,255 800,305" fill="none" stroke="#364152" stroke-width="2.5" stroke-linejoin="round" stroke-linecap="round" marker-end="url(#paper-arrow)"/>
<circle cx="800" cy="430" r="5" fill="#364152"/>
<polyline points="800,385 800,430" fill="none" stroke="#364152" stroke-width="2.5" stroke-linejoin="round" stroke-linecap="round"/>
<polyline points="800,430 440,430 440,490" fill="none" stroke="#364152" stroke-width="2.5" stroke-linejoin="round" stroke-linecap="round" marker-end="url(#paper-arrow)"/>
<polyline points="800,430 1160,430 1160,490" fill="none" stroke="#364152" stroke-width="2.5" stroke-linejoin="round" stroke-linecap="round" marker-end="url(#paper-arrow)"/>
<text x="260" y="468" text-anchor="start" font-family="Arial, Noto Sans KR, sans-serif" font-size="15" font-weight="600" fill="#667085">혼합신호 모델</text>
<text x="1340" y="468" text-anchor="end" font-family="Arial, Noto Sans KR, sans-serif" font-size="15" font-weight="600" fill="#667085">디지털 가속기</text>
<rect x="260" y="490" width="360" height="90" rx="4" fill="#fff7ed" stroke="#c05621" stroke-width="2"/>
<text x="440.0" y="542.0" text-anchor="middle" font-family="Arial, Noto Sans KR, sans-serif" font-size="18" font-weight="700" fill="#182230">AFE·ADC XMODEL 검증</text>
<rect x="980" y="490" width="360" height="90" rx="4" fill="#f5f3ff" stroke="#6b46c1" stroke-width="2"/>
<text x="1160.0" y="542.0" text-anchor="middle" font-family="Arial, Noto Sans KR, sans-serif" font-size="18" font-weight="700" fill="#182230">Digital SNN RTL IP</text>
<circle cx="1160" cy="625" r="5" fill="#364152"/>
<polyline points="1160,580 1160,625" fill="none" stroke="#364152" stroke-width="2.5" stroke-linejoin="round" stroke-linecap="round"/>
<circle cx="430" cy="655" r="5" fill="#364152"/>
<polyline points="440,580 440,655 430,655" fill="none" stroke="#364152" stroke-width="2.5" stroke-linejoin="round" stroke-linecap="round"/>
<polyline points="1160,625 430,625 430,655" fill="none" stroke="#364152" stroke-width="2.5" stroke-linejoin="round" stroke-linecap="round"/>
<rect x="250" y="700" width="360" height="80" rx="4" fill="#ecfeff" stroke="#0e7490" stroke-width="2"/>
<text x="430.0" y="747.0" text-anchor="middle" font-family="Arial, Noto Sans KR, sans-serif" font-size="18" font-weight="700" fill="#182230">AFE–RTL 통합 검증</text>
<rect x="660" y="700" width="280" height="80" rx="4" fill="#f5f3ff" stroke="#6b46c1" stroke-width="2"/>
<text x="800.0" y="747.0" text-anchor="middle" font-family="Arial, Noto Sans KR, sans-serif" font-size="18" font-weight="700" fill="#182230">Accelerator Benchmark</text>
<rect x="990" y="700" width="330" height="80" rx="4" fill="#eff6ff" stroke="#2563a8" stroke-width="2"/>
<text x="1155.0" y="747.0" text-anchor="middle" font-family="Arial, Noto Sans KR, sans-serif" font-size="18" font-weight="700" fill="#182230">FPGA·IP 구현 검증</text>
<polyline points="430,655 430,700" fill="none" stroke="#364152" stroke-width="2.5" stroke-linejoin="round" stroke-linecap="round" marker-end="url(#paper-arrow)"/>
<polyline points="1160,625 800,625 800,700" fill="none" stroke="#364152" stroke-width="2.5" stroke-linejoin="round" stroke-linecap="round" marker-end="url(#paper-arrow)"/>
<polyline points="1160,625 1155,625 1155,700" fill="none" stroke="#364152" stroke-width="2.5" stroke-linejoin="round" stroke-linecap="round" marker-end="url(#paper-arrow)"/>
<circle cx="800" cy="830" r="5" fill="#364152"/>
<polyline points="430,780 430,810 800,810 800,830" fill="none" stroke="#364152" stroke-width="2.5" stroke-linejoin="round" stroke-linecap="round"/>
<polyline points="800,780 800,830" fill="none" stroke="#364152" stroke-width="2.5" stroke-linejoin="round" stroke-linecap="round"/>
<polyline points="1155,780 1155,810 800,810" fill="none" stroke="#364152" stroke-width="2.5" stroke-linejoin="round" stroke-linecap="round"/>
<rect x="600" y="860" width="400" height="70" rx="4" fill="#fffbeb" stroke="#b7791f" stroke-width="2"/>
<text x="800.0" y="902.0" text-anchor="middle" font-family="Arial, Noto Sans KR, sans-serif" font-size="18" font-weight="700" fill="#182230">최종 결과·보고서</text>
<polyline points="800,830 800,860" fill="none" stroke="#364152" stroke-width="2.5" stroke-linejoin="round" stroke-linecap="round" marker-end="url(#paper-arrow)"/>
</svg>
