<svg xmlns="http://www.w3.org/2000/svg" width="1500" height="1450" viewBox="0 0 1500 1450" role="img" aria-label="Public ECG data are split record-wise; train and validation data feed MATLAB, parallel XMODEL and RTL work, and three verification tracks, while locked test data remain isolated until one final test after design lock">
<defs><marker id="paper-arrow" markerWidth="10" markerHeight="10" refX="9" refY="3" orient="auto" markerUnits="strokeWidth"><path d="M0,0 L0,6 L9,3 z" fill="#364152"/></marker></defs>
<rect width="1500" height="1450" fill="#ffffff"/>
<rect x="550" y="30" width="400" height="70" rx="4" fill="#eff6ff" stroke="#2563a8" stroke-width="2"/>
<text x="750.0" y="72.0" text-anchor="middle" font-family="Arial, Noto Sans KR, sans-serif" font-size="18" font-weight="700" fill="#182230">공개 ECG 데이터</text>
<rect x="450" y="130" width="600" height="90" rx="4" fill="#eff6ff" stroke="#2563a8" stroke-width="2"/>
<text x="750.0" y="169.0" text-anchor="middle" font-family="Arial, Noto Sans KR, sans-serif" font-size="18" font-weight="700" fill="#182230">Record-wise Train / Validation /</text>
<text x="750.0" y="195.0" text-anchor="middle" font-family="Arial, Noto Sans KR, sans-serif" font-size="18" font-weight="700" fill="#182230">Locked Test Split</text>
<polyline points="750,100 750,130" fill="none" stroke="#364152" stroke-width="2.5" stroke-linejoin="round" stroke-linecap="round" marker-end="url(#paper-arrow)"/>
<rect x="540" y="255" width="420" height="60" rx="4" fill="#dbeafe" stroke="#2563a8" stroke-width="2"/>
<text x="750.0" y="292.0" text-anchor="middle" font-family="Arial, Noto Sans KR, sans-serif" font-size="18" font-weight="700" fill="#182230">Train / Validation Data Only</text>
<polyline points="750,220 750,255" fill="none" stroke="#364152" stroke-width="2.5" stroke-linejoin="round" stroke-linecap="round" marker-end="url(#paper-arrow)"/>
<rect x="540" y="355" width="420" height="80" rx="4" fill="#dbeafe" stroke="#2563a8" stroke-width="2"/>
<text x="750.0" y="402.0" text-anchor="middle" font-family="Arial, Noto Sans KR, sans-serif" font-size="18" font-weight="700" fill="#182230">MATLAB AFE·ADC 사전검증</text>
<polyline points="750,315 750,355" fill="none" stroke="#364152" stroke-width="2.5" stroke-linejoin="round" stroke-linecap="round" marker-end="url(#paper-arrow)"/>
<rect x="1190" y="255" width="260" height="70" rx="4" fill="#fef3c7" stroke="#b7791f" stroke-width="2"/>
<text x="1320.0" y="284.0" text-anchor="middle" font-family="Arial, Noto Sans KR, sans-serif" font-size="18" font-weight="700" fill="#182230">Locked Test Data</text>
<text x="1320.0" y="310.0" text-anchor="middle" font-family="Arial, Noto Sans KR, sans-serif" font-size="18" font-weight="700" fill="#182230">설계 단계 미사용</text>
<polyline points="1050,175 1320,175 1320,255" fill="none" stroke="#364152" stroke-width="2.5" stroke-linejoin="round" stroke-linecap="round" marker-end="url(#paper-arrow)"/>
<circle cx="750" cy="485" r="5" fill="#364152"/>
<polyline points="750,435 750,485" fill="none" stroke="#364152" stroke-width="2.5" stroke-linejoin="round" stroke-linecap="round"/>
<polyline points="750,485 370,485 370,525" fill="none" stroke="#364152" stroke-width="2.5" stroke-linejoin="round" stroke-linecap="round" marker-end="url(#paper-arrow)"/>
<polyline points="750,485 1030,485 1030,525" fill="none" stroke="#364152" stroke-width="2.5" stroke-linejoin="round" stroke-linecap="round" marker-end="url(#paper-arrow)"/>
<rect x="180" y="525" width="380" height="85" rx="4" fill="#dbeafe" stroke="#2563a8" stroke-width="2"/>
<text x="370.0" y="574.5" text-anchor="middle" font-family="Arial, Noto Sans KR, sans-serif" font-size="18" font-weight="700" fill="#182230">AFE–ADC XMODEL 검증</text>
<rect x="840" y="525" width="380" height="85" rx="4" fill="#dbeafe" stroke="#2563a8" stroke-width="2"/>
<text x="1030.0" y="574.5" text-anchor="middle" font-family="Arial, Noto Sans KR, sans-serif" font-size="18" font-weight="700" fill="#182230">Digital SNN RTL IP</text>
<rect x="270" y="710" width="440" height="90" rx="4" fill="#ede9fe" stroke="#6b46c1" stroke-width="2"/>
<text x="490.0" y="762.0" text-anchor="middle" font-family="Arial, Noto Sans KR, sans-serif" font-size="18" font-weight="700" fill="#182230">AFE–RTL 통합 검증</text>
<rect x="760" y="710" width="280" height="90" rx="4" fill="#ede9fe" stroke="#6b46c1" stroke-width="2"/>
<text x="900.0" y="762.0" text-anchor="middle" font-family="Arial, Noto Sans KR, sans-serif" font-size="18" font-weight="700" fill="#182230">Accelerator Benchmark</text>
<rect x="1090" y="710" width="330" height="90" rx="4" fill="#ede9fe" stroke="#6b46c1" stroke-width="2"/>
<text x="1255.0" y="749.0" text-anchor="middle" font-family="Arial, Noto Sans KR, sans-serif" font-size="18" font-weight="700" fill="#182230">FPGA Implementation</text>
<text x="1255.0" y="775.0" text-anchor="middle" font-family="Arial, Noto Sans KR, sans-serif" font-size="18" font-weight="700" fill="#182230">&amp; Board Replay</text>
<polyline points="370,610 370,680 400,680 400,710" fill="none" stroke="#364152" stroke-width="2.5" stroke-linejoin="round" stroke-linecap="round" marker-end="url(#paper-arrow)"/>
<polyline points="1030,610 1030,655" fill="none" stroke="#364152" stroke-width="2.5" stroke-linejoin="round" stroke-linecap="round"/>
<polyline points="620,655 1255,655" fill="none" stroke="#364152" stroke-width="2.5" stroke-linejoin="round" stroke-linecap="round"/>
<circle cx="620" cy="655" r="5" fill="#364152"/>
<circle cx="900" cy="655" r="5" fill="#364152"/>
<circle cx="1030" cy="655" r="5" fill="#364152"/>
<circle cx="1255" cy="655" r="5" fill="#364152"/>
<polyline points="620,655 620,710" fill="none" stroke="#364152" stroke-width="2.5" stroke-linejoin="round" stroke-linecap="round" marker-end="url(#paper-arrow)"/>
<polyline points="900,655 900,710" fill="none" stroke="#364152" stroke-width="2.5" stroke-linejoin="round" stroke-linecap="round" marker-end="url(#paper-arrow)"/>
<polyline points="1255,655 1255,710" fill="none" stroke="#364152" stroke-width="2.5" stroke-linejoin="round" stroke-linecap="round" marker-end="url(#paper-arrow)"/>
<polyline points="490,800 490,850" fill="none" stroke="#364152" stroke-width="2.5" stroke-linejoin="round" stroke-linecap="round"/>
<circle cx="490" cy="850" r="5" fill="#364152"/>
<polyline points="900,800 900,850" fill="none" stroke="#364152" stroke-width="2.5" stroke-linejoin="round" stroke-linecap="round"/>
<circle cx="900" cy="850" r="5" fill="#364152"/>
<polyline points="1255,800 1255,850" fill="none" stroke="#364152" stroke-width="2.5" stroke-linejoin="round" stroke-linecap="round"/>
<circle cx="1255" cy="850" r="5" fill="#364152"/>
<polyline points="490,850 1255,850" fill="none" stroke="#364152" stroke-width="2.5" stroke-linejoin="round" stroke-linecap="round"/>
<circle cx="750" cy="850" r="5" fill="#364152"/>
<polyline points="750,850 750,890" fill="none" stroke="#364152" stroke-width="2.5" stroke-linejoin="round" stroke-linecap="round" marker-end="url(#paper-arrow)"/>
<text x="750" y="840" text-anchor="middle" font-family="Arial, Noto Sans KR, sans-serif" font-size="15" font-weight="700" fill="#475467">세 검증 결과</text>
<polygon points="750,890 1000,980 750,1070 500,980" fill="#dcfce7" stroke="#2f855a" stroke-width="2.5"/>
<text x="750" y="973" text-anchor="middle" font-family="Arial, Noto Sans KR, sans-serif" font-size="19" font-weight="700" fill="#182230">설계·통합</text>
<text x="750" y="1001" text-anchor="middle" font-family="Arial, Noto Sans KR, sans-serif" font-size="19" font-weight="700" fill="#182230">검증 기준 충족?</text>
<rect x="80" y="940" width="320" height="80" rx="4" fill="#fee2e2" stroke="#c53030" stroke-width="2"/>
<text x="240.0" y="987.0" text-anchor="middle" font-family="Arial, Noto Sans KR, sans-serif" font-size="18" font-weight="700" fill="#182230">XMODEL / RTL 수정</text>
<polyline points="500,980 400,980" fill="none" stroke="#364152" stroke-width="2.5" stroke-linejoin="round" stroke-linecap="round" marker-end="url(#paper-arrow)"/>
<text x="450" y="962" text-anchor="middle" font-family="Arial, Noto Sans KR, sans-serif" font-size="15" font-weight="700" fill="#475467">아니오</text>
<polyline points="80,980 30,980 30,485 750,485" fill="none" stroke="#364152" stroke-width="2.5" stroke-linejoin="round" stroke-linecap="round" marker-end="url(#paper-arrow)"/>
<rect x="570" y="1120" width="360" height="70" rx="4" fill="#dbeafe" stroke="#2563a8" stroke-width="2"/>
<text x="750.0" y="1162.0" text-anchor="middle" font-family="Arial, Noto Sans KR, sans-serif" font-size="18" font-weight="700" fill="#182230">Design Lock</text>
<polyline points="750,1070 750,1120" fill="none" stroke="#364152" stroke-width="2.5" stroke-linejoin="round" stroke-linecap="round" marker-end="url(#paper-arrow)"/>
<text x="780" y="1100" text-anchor="start" font-family="Arial, Noto Sans KR, sans-serif" font-size="15" font-weight="700" fill="#475467">예</text>
<rect x="490" y="1230" width="520" height="90" rx="4" fill="#fef3c7" stroke="#b7791f" stroke-width="2"/>
<text x="750.0" y="1269.0" text-anchor="middle" font-family="Arial, Noto Sans KR, sans-serif" font-size="18" font-weight="700" fill="#182230">Locked Final Test</text>
<text x="750.0" y="1295.0" text-anchor="middle" font-family="Arial, Noto Sans KR, sans-serif" font-size="18" font-weight="700" fill="#182230">잠금된 Test 데이터만 최초 1회 사용</text>
<polyline points="750,1190 750,1230" fill="none" stroke="#364152" stroke-width="2.5" stroke-linejoin="round" stroke-linecap="round" marker-end="url(#paper-arrow)"/>
<polyline points="1320,325 1460,325 1460,1275 1010,1275" fill="none" stroke="#364152" stroke-width="2.5" stroke-linejoin="round" stroke-linecap="round" marker-end="url(#paper-arrow)"/>
<rect x="570" y="1360" width="360" height="65" rx="4" fill="#dbeafe" stroke="#2563a8" stroke-width="2"/>
<text x="750.0" y="1399.5" text-anchor="middle" font-family="Arial, Noto Sans KR, sans-serif" font-size="18" font-weight="700" fill="#182230">최종 결과·보고서</text>
<polyline points="750,1320 750,1360" fill="none" stroke="#364152" stroke-width="2.5" stroke-linejoin="round" stroke-linecap="round" marker-end="url(#paper-arrow)"/>
</svg>
