<svg xmlns="http://www.w3.org/2000/svg" width="1200" height="675" viewBox="0 0 1200 675">
<rect width="1200" height="675" fill="#f7f9fc"/>
<rect x="0" y="0" width="1200" height="92" fill="#102a43"/>
<text x="54" y="52" font-family="Arial, Noto Sans KR, sans-serif" font-size="30" font-weight="700" fill="white">전체 시스템 흐름</text>
<text x="54" y="78" font-family="Arial, Noto Sans KR, sans-serif" font-size="14" fill="#bcccdc">모델 기반 AFE·ADC에서 디지털 IP와 FPGA까지</text>
<rect x="45" y="210" width="160" height="190" rx="14" fill="#e8f1fb" stroke="#486581" stroke-width="2"/>
<text x="125.0" y="244" text-anchor="middle" font-family="Arial, Noto Sans KR, sans-serif" font-size="19" font-weight="700" fill="#102a43">공개 ECG</text>
<text x="125.0" y="274" text-anchor="middle" font-family="Arial, Noto Sans KR, sans-serif" font-size="15" font-weight="400" fill="#334e68">4개 원천 DB</text>
<line x1="205" y1="305" x2="285" y2="305" stroke="#486581" stroke-width="4"/>
<polygon points="285,305 271,297 271,313" fill="#486581"/>
<rect x="285" y="210" width="160" height="190" rx="14" fill="#e6fffa" stroke="#486581" stroke-width="2"/>
<text x="365.0" y="244" text-anchor="middle" font-family="Arial, Noto Sans KR, sans-serif" font-size="19" font-weight="700" fill="#102a43">MATLAB</text>
<text x="365.0" y="274" text-anchor="middle" font-family="Arial, Noto Sans KR, sans-serif" font-size="15" font-weight="400" fill="#334e68">공칭 AFE/ADC</text>
<text x="365.0" y="299" text-anchor="middle" font-family="Arial, Noto Sans KR, sans-serif" font-size="15" font-weight="400" fill="#334e68">기준 벡터</text>
<line x1="445" y1="305" x2="525" y2="305" stroke="#486581" stroke-width="4"/>
<polygon points="525,305 511,297 511,313" fill="#486581"/>
<rect x="525" y="210" width="160" height="190" rx="14" fill="#e6fffa" stroke="#486581" stroke-width="2"/>
<text x="605.0" y="244" text-anchor="middle" font-family="Arial, Noto Sans KR, sans-serif" font-size="19" font-weight="700" fill="#102a43">XMODEL</text>
<text x="605.0" y="274" text-anchor="middle" font-family="Arial, Noto Sans KR, sans-serif" font-size="15" font-weight="400" fill="#334e68">교란·비이상성</text>
<text x="605.0" y="299" text-anchor="middle" font-family="Arial, Noto Sans KR, sans-serif" font-size="15" font-weight="400" fill="#334e68">부호 스트림</text>
<line x1="685" y1="305" x2="765" y2="305" stroke="#486581" stroke-width="4"/>
<polygon points="765,305 751,297 751,313" fill="#486581"/>
<rect x="765" y="210" width="160" height="190" rx="14" fill="#e8f1fb" stroke="#486581" stroke-width="2"/>
<text x="845.0" y="244" text-anchor="middle" font-family="Arial, Noto Sans KR, sans-serif" font-size="19" font-weight="700" fill="#102a43">디지털 RTL</text>
<text x="845.0" y="274" text-anchor="middle" font-family="Arial, Noto Sans KR, sans-serif" font-size="15" font-weight="400" fill="#334e68">Snapshot + Final</text>
<text x="845.0" y="299" text-anchor="middle" font-family="Arial, Noto Sans KR, sans-serif" font-size="15" font-weight="400" fill="#334e68">IP-XACT</text>
<line x1="925" y1="305" x2="1005" y2="305" stroke="#486581" stroke-width="4"/>
<polygon points="1005,305 991,297 991,313" fill="#486581"/>
<rect x="1005" y="210" width="160" height="190" rx="14" fill="#e8f1fb" stroke="#486581" stroke-width="2"/>
<text x="1085.0" y="244" text-anchor="middle" font-family="Arial, Noto Sans KR, sans-serif" font-size="19" font-weight="700" fill="#102a43">FPGA 재생</text>
<text x="1085.0" y="274" text-anchor="middle" font-family="Arial, Noto Sans KR, sans-serif" font-size="15" font-weight="400" fill="#334e68">36개 사례</text>
<text x="1085.0" y="299" text-anchor="middle" font-family="Arial, Noto Sans KR, sans-serif" font-size="15" font-weight="400" fill="#334e68">기능 등가성</text>
<rect x="40" y="625" width="1120" height="32" rx="8" fill="#e1e8f0"/>
<text x="600" y="647" text-anchor="middle" font-family="Arial, Noto Sans KR, sans-serif" font-size="13" font-weight="400" fill="#486581">아날로그 계층은 모델 기반이며 FPGA는 디지털 통합 증거</text>
</svg>
