<svg xmlns="http://www.w3.org/2000/svg" width="1200" height="1150" viewBox="0 0 1200 1150" role="img" aria-label="Public ECG data pass through MATLAB prevalidation, parallel XMODEL and RTL development, three verification tracks, a single engineering gate, locked final test, and final reporting">
<defs><marker id="paper-arrow" markerWidth="10" markerHeight="10" refX="9" refY="3" orient="auto" markerUnits="strokeWidth"><path d="M0,0 L0,6 L9,3 z" fill="#364152"/></marker></defs>
<rect width="1200" height="1150" fill="#ffffff"/>
<rect x="430" y="35" width="340" height="70" rx="4" fill="#eff6ff" stroke="#2563a8" stroke-width="2"/>
<text x="600.0" y="77.0" text-anchor="middle" font-family="Arial, Noto Sans KR, sans-serif" font-size="18" font-weight="700" fill="#182230">공개 ECG 데이터</text>
<rect x="400" y="145" width="400" height="75" rx="4" fill="#dbeafe" stroke="#2563a8" stroke-width="2"/>
<text x="600.0" y="189.5" text-anchor="middle" font-family="Arial, Noto Sans KR, sans-serif" font-size="18" font-weight="700" fill="#182230">MATLAB AFE·ADC 사전검증</text>
<polyline points="600,105 600,145" fill="none" stroke="#364152" stroke-width="2.5" stroke-linejoin="round" stroke-linecap="round" marker-end="url(#paper-arrow)"/>
<circle cx="600" cy="270" r="5" fill="#364152"/>
<polyline points="600,220 600,270" fill="none" stroke="#364152" stroke-width="2.5" stroke-linejoin="round" stroke-linecap="round"/>
<polyline points="600,270 330,270 330,315" fill="none" stroke="#364152" stroke-width="2.5" stroke-linejoin="round" stroke-linecap="round" marker-end="url(#paper-arrow)"/>
<polyline points="600,270 870,270 870,315" fill="none" stroke="#364152" stroke-width="2.5" stroke-linejoin="round" stroke-linecap="round" marker-end="url(#paper-arrow)"/>
<rect x="160" y="315" width="340" height="80" rx="4" fill="#dbeafe" stroke="#2563a8" stroke-width="2"/>
<text x="330.0" y="362.0" text-anchor="middle" font-family="Arial, Noto Sans KR, sans-serif" font-size="18" font-weight="700" fill="#182230">AFE·ADC XMODEL 검증</text>
<rect x="700" y="315" width="340" height="80" rx="4" fill="#dbeafe" stroke="#2563a8" stroke-width="2"/>
<text x="870.0" y="362.0" text-anchor="middle" font-family="Arial, Noto Sans KR, sans-serif" font-size="18" font-weight="700" fill="#182230">Digital SNN RTL IP</text>
<circle cx="870" cy="440" r="5" fill="#364152"/>
<polyline points="870,395 870,440" fill="none" stroke="#364152" stroke-width="2.5" stroke-linejoin="round" stroke-linecap="round"/>
<circle cx="220" cy="455" r="5" fill="#364152"/>
<polyline points="330,395 330,455 220,455" fill="none" stroke="#364152" stroke-width="2.5" stroke-linejoin="round" stroke-linecap="round"/>
<polyline points="870,440 220,440 220,455" fill="none" stroke="#364152" stroke-width="2.5" stroke-linejoin="round" stroke-linecap="round"/>
<rect x="70" y="485" width="300" height="75" rx="4" fill="#ede9fe" stroke="#6b46c1" stroke-width="2"/>
<text x="220.0" y="529.5" text-anchor="middle" font-family="Arial, Noto Sans KR, sans-serif" font-size="18" font-weight="700" fill="#182230">AFE–RTL 통합 검증</text>
<rect x="450" y="485" width="300" height="75" rx="4" fill="#ede9fe" stroke="#6b46c1" stroke-width="2"/>
<text x="600.0" y="529.5" text-anchor="middle" font-family="Arial, Noto Sans KR, sans-serif" font-size="18" font-weight="700" fill="#182230">Accelerator Benchmark</text>
<rect x="830" y="485" width="300" height="75" rx="4" fill="#ede9fe" stroke="#6b46c1" stroke-width="2"/>
<text x="980.0" y="529.5" text-anchor="middle" font-family="Arial, Noto Sans KR, sans-serif" font-size="18" font-weight="700" fill="#182230">FPGA·IP 구현 검증</text>
<polyline points="220,455 220,485" fill="none" stroke="#364152" stroke-width="2.5" stroke-linejoin="round" stroke-linecap="round" marker-end="url(#paper-arrow)"/>
<polyline points="870,440 600,440 600,485" fill="none" stroke="#364152" stroke-width="2.5" stroke-linejoin="round" stroke-linecap="round" marker-end="url(#paper-arrow)"/>
<polyline points="870,440 980,440 980,485" fill="none" stroke="#364152" stroke-width="2.5" stroke-linejoin="round" stroke-linecap="round" marker-end="url(#paper-arrow)"/>
<polyline points="220,560 220,610 600,610" fill="none" stroke="#364152" stroke-width="2.5" stroke-linejoin="round" stroke-linecap="round"/>
<polyline points="600,560 600,610" fill="none" stroke="#364152" stroke-width="2.5" stroke-linejoin="round" stroke-linecap="round"/>
<polyline points="980,560 980,610 600,610" fill="none" stroke="#364152" stroke-width="2.5" stroke-linejoin="round" stroke-linecap="round"/>
<circle cx="600" cy="610" r="5" fill="#364152"/>
<polyline points="600,610 600,635" fill="none" stroke="#364152" stroke-width="2.5" stroke-linejoin="round" stroke-linecap="round" marker-end="url(#paper-arrow)"/>
<polygon points="600,635 820,720 600,805 380,720" fill="#dcfce7" stroke="#2f855a" stroke-width="2.5"/>
<text x="600" y="713" text-anchor="middle" font-family="Arial, Noto Sans KR, sans-serif" font-size="19" font-weight="700" fill="#182230">설계·통합</text>
<text x="600" y="741" text-anchor="middle" font-family="Arial, Noto Sans KR, sans-serif" font-size="19" font-weight="700" fill="#182230">검증 기준 충족?</text>
<rect x="900" y="680" width="250" height="80" rx="4" fill="#fee2e2" stroke="#c53030" stroke-width="2"/>
<text x="1025.0" y="727.0" text-anchor="middle" font-family="Arial, Noto Sans KR, sans-serif" font-size="18" font-weight="700" fill="#182230">모델·RTL 수정</text>
<polyline points="820,720 900,720" fill="none" stroke="#364152" stroke-width="2.5" stroke-linejoin="round" stroke-linecap="round" marker-end="url(#paper-arrow)"/>
<text x="852" y="704" text-anchor="middle" font-family="Arial, Noto Sans KR, sans-serif" font-size="15" font-weight="700" fill="#475467">아니오</text>
<polyline points="1150,720 1170,720 1170,250 600,250 600,270" fill="none" stroke="#364152" stroke-width="2.5" stroke-linejoin="round" stroke-linecap="round" marker-end="url(#paper-arrow)"/>
<rect x="430" y="855" width="340" height="70" rx="4" fill="#fef3c7" stroke="#b7791f" stroke-width="2"/>
<text x="600.0" y="897.0" text-anchor="middle" font-family="Arial, Noto Sans KR, sans-serif" font-size="18" font-weight="700" fill="#182230">Locked Final Test</text>
<polyline points="600,805 600,855" fill="none" stroke="#364152" stroke-width="2.5" stroke-linejoin="round" stroke-linecap="round" marker-end="url(#paper-arrow)"/>
<text x="630" y="835" text-anchor="start" font-family="Arial, Noto Sans KR, sans-serif" font-size="15" font-weight="700" fill="#475467">예</text>
<rect x="430" y="985" width="340" height="70" rx="4" fill="#dbeafe" stroke="#2563a8" stroke-width="2"/>
<text x="600.0" y="1027.0" text-anchor="middle" font-family="Arial, Noto Sans KR, sans-serif" font-size="18" font-weight="700" fill="#182230">최종 결과·보고서</text>
<polyline points="600,925 600,985" fill="none" stroke="#364152" stroke-width="2.5" stroke-linejoin="round" stroke-linecap="round" marker-end="url(#paper-arrow)"/>
</svg>
