<svg xmlns="http://www.w3.org/2000/svg" width="1600" height="900" viewBox="0 0 1600 900">
<defs><marker id="flow-arrow" markerWidth="10" markerHeight="10" refX="9" refY="3" orient="auto" markerUnits="strokeWidth"><path d="M0,0 L0,6 L9,3 z" fill="#34495e"/></marker></defs>
<rect width="1600" height="900" fill="#ffffff"/>
<rect x="0" y="0" width="1600" height="100" fill="#102a43"/>
<text x="54" y="56" font-family="Arial, Noto Sans KR, sans-serif" font-size="34" font-weight="700" fill="white">Digital signal flow</text>
<text x="54" y="83" font-family="Arial, Noto Sans KR, sans-serif" font-size="15" fill="#d9e2ec">signed ECG stream에서 4-class 기록 판정까지</text>
<rect x="25" y="350" width="150" height="120" rx="8" fill="#f4f8ff" stroke="#829ab1" stroke-width="2"/>
<rect x="25" y="350" width="150" height="8" rx="4" fill="#2f80ed"/>
<text x="100.0" y="417.0" text-anchor="middle" font-family="Arial, Noto Sans KR, sans-serif" font-size="18" font-weight="700" fill="#102a43">Signed ECG</text>
<line x1="175" y1="410.0" x2="200" y2="410.0" stroke="#34495e" stroke-width="3" marker-end="url(#flow-arrow)"/>
<rect x="200" y="350" width="150" height="120" rx="8" fill="#f1fbf7" stroke="#829ab1" stroke-width="2"/>
<rect x="200" y="350" width="150" height="8" rx="4" fill="#12b886"/>
<text x="275.0" y="417.0" text-anchor="middle" font-family="Arial, Noto Sans KR, sans-serif" font-size="18" font-weight="700" fill="#102a43">변화량 계산</text>
<line x1="350" y1="410.0" x2="375" y2="410.0" stroke="#34495e" stroke-width="3" marker-end="url(#flow-arrow)"/>
<rect x="375" y="350" width="170" height="120" rx="8" fill="#f1fbf7" stroke="#829ab1" stroke-width="2"/>
<rect x="375" y="350" width="170" height="8" rx="4" fill="#12b886"/>
<text x="460.0" y="417.0" text-anchor="middle" font-family="Arial, Noto Sans KR, sans-serif" font-size="18" font-weight="700" fill="#102a43">Strong Event</text>
<line x1="545" y1="410.0" x2="570" y2="410.0" stroke="#34495e" stroke-width="3" marker-end="url(#flow-arrow)"/>
<rect x="570" y="350" width="150" height="120" rx="8" fill="#fff9e8" stroke="#829ab1" stroke-width="2"/>
<rect x="570" y="350" width="150" height="8" rx="4" fill="#f59f00"/>
<text x="645.0" y="417.0" text-anchor="middle" font-family="Arial, Noto Sans KR, sans-serif" font-size="18" font-weight="700" fill="#102a43">QRS LIF</text>
<line x1="720" y1="410.0" x2="745" y2="410.0" stroke="#34495e" stroke-width="3" marker-end="url(#flow-arrow)"/>
<rect x="745" y="350" width="220" height="120" rx="8" fill="#eefafa" stroke="#829ab1" stroke-width="2"/>
<rect x="745" y="350" width="220" height="8" rx="4" fill="#0b7285"/>
<text x="855.0" y="404.0" text-anchor="middle" font-family="Arial, Noto Sans KR, sans-serif" font-size="18" font-weight="700" fill="#102a43">리듬·파형</text>
<text x="855.0" y="430.0" text-anchor="middle" font-family="Arial, Noto Sans KR, sans-serif" font-size="18" font-weight="700" fill="#102a43">증거 생성</text>
<line x1="965" y1="410.0" x2="990" y2="410.0" stroke="#34495e" stroke-width="3" marker-end="url(#flow-arrow)"/>
<rect x="990" y="350" width="170" height="120" rx="8" fill="#f5f0ff" stroke="#829ab1" stroke-width="2"/>
<rect x="990" y="350" width="170" height="8" rx="4" fill="#7950f2"/>
<text x="1075.0" y="417.0" text-anchor="middle" font-family="Arial, Noto Sans KR, sans-serif" font-size="18" font-weight="700" fill="#102a43">60초 Snapshot</text>
<line x1="1160" y1="410.0" x2="1185" y2="410.0" stroke="#34495e" stroke-width="3" marker-end="url(#flow-arrow)"/>
<rect x="1185" y="350" width="180" height="120" rx="8" fill="#fbf2ff" stroke="#829ab1" stroke-width="2"/>
<rect x="1185" y="350" width="180" height="8" rx="4" fill="#ae3ec9"/>
<text x="1275.0" y="417.0" text-anchor="middle" font-family="Arial, Noto Sans KR, sans-serif" font-size="18" font-weight="700" fill="#102a43">Final Membrane</text>
<line x1="1365" y1="410.0" x2="1390" y2="410.0" stroke="#34495e" stroke-width="3" marker-end="url(#flow-arrow)"/>
<rect x="1390" y="350" width="185" height="120" rx="8" fill="#f3f9ff" stroke="#829ab1" stroke-width="2"/>
<rect x="1390" y="350" width="185" height="8" rx="4" fill="#1971c2"/>
<text x="1482.5" y="417.0" text-anchor="middle" font-family="Arial, Noto Sans KR, sans-serif" font-size="18" font-weight="700" fill="#102a43">NSR·CHF·ARR·AFF</text>
<line x1="40" y1="838" x2="1560" y2="838" stroke="#d9e2ec" stroke-width="2"/>
<text x="800" y="870" text-anchor="middle" font-family="Arial, Noto Sans KR, sans-serif" font-size="14" font-weight="400" fill="#486581">세부 뉴런 상태, 리듬·파형 특징과 누적 규칙은 본문에서 설명한다.</text>
</svg>
