<svg xmlns="http://www.w3.org/2000/svg" width="1600" height="900" viewBox="0 0 1600 900">
<defs><marker id="flow-arrow" markerWidth="10" markerHeight="10" refX="9" refY="3" orient="auto" markerUnits="strokeWidth"><path d="M0,0 L0,6 L9,3 z" fill="#34495e"/></marker></defs>
<rect width="1600" height="900" fill="#ffffff"/>
<rect x="0" y="0" width="1600" height="100" fill="#102a43"/>
<text x="54" y="56" font-family="Arial, Noto Sans KR, sans-serif" font-size="34" font-weight="700" fill="white">Analog AFE·ADC signal flow</text>
<text x="54" y="83" font-family="Arial, Noto Sans KR, sans-serif" font-size="15" fill="#d9e2ec">ECG 입력에서 signed digital stream까지</text>
<rect x="25" y="350" width="140" height="120" rx="8" fill="#f4f8ff" stroke="#829ab1" stroke-width="2"/>
<rect x="25" y="350" width="140" height="8" rx="4" fill="#2f80ed"/>
<text x="95.0" y="417.0" text-anchor="middle" font-family="Arial, Noto Sans KR, sans-serif" font-size="18" font-weight="700" fill="#102a43">ECG 입력</text>
<line x1="165" y1="410.0" x2="190" y2="410.0" stroke="#34495e" stroke-width="3" marker-end="url(#flow-arrow)"/>
<rect x="190" y="350" width="140" height="120" rx="8" fill="#f1fbf7" stroke="#829ab1" stroke-width="2"/>
<rect x="190" y="350" width="140" height="8" rx="4" fill="#12b886"/>
<text x="260.0" y="417.0" text-anchor="middle" font-family="Arial, Noto Sans KR, sans-serif" font-size="18" font-weight="700" fill="#102a43">HPF</text>
<line x1="330" y1="410.0" x2="355" y2="410.0" stroke="#34495e" stroke-width="3" marker-end="url(#flow-arrow)"/>
<rect x="355" y="350" width="180" height="120" rx="8" fill="#f1fbf7" stroke="#829ab1" stroke-width="2"/>
<rect x="355" y="350" width="180" height="8" rx="4" fill="#12b886"/>
<text x="445.0" y="417.0" text-anchor="middle" font-family="Arial, Noto Sans KR, sans-serif" font-size="18" font-weight="700" fill="#102a43">3-op-amp IA</text>
<line x1="535" y1="410.0" x2="560" y2="410.0" stroke="#34495e" stroke-width="3" marker-end="url(#flow-arrow)"/>
<rect x="560" y="350" width="210" height="120" rx="8" fill="#fff9e8" stroke="#829ab1" stroke-width="2"/>
<rect x="560" y="350" width="210" height="8" rx="4" fill="#f59f00"/>
<text x="665.0" y="404.0" text-anchor="middle" font-family="Arial, Noto Sans KR, sans-serif" font-size="18" font-weight="700" fill="#102a43">Active Twin-T</text>
<text x="665.0" y="430.0" text-anchor="middle" font-family="Arial, Noto Sans KR, sans-serif" font-size="18" font-weight="700" fill="#102a43">60 Hz Notch</text>
<line x1="770" y1="410.0" x2="795" y2="410.0" stroke="#34495e" stroke-width="3" marker-end="url(#flow-arrow)"/>
<rect x="795" y="350" width="160" height="120" rx="8" fill="#fff9e8" stroke="#829ab1" stroke-width="2"/>
<rect x="795" y="350" width="160" height="8" rx="4" fill="#f59f00"/>
<text x="875.0" y="417.0" text-anchor="middle" font-family="Arial, Noto Sans KR, sans-serif" font-size="18" font-weight="700" fill="#102a43">150 Hz LPF</text>
<line x1="955" y1="410.0" x2="980" y2="410.0" stroke="#34495e" stroke-width="3" marker-end="url(#flow-arrow)"/>
<rect x="980" y="350" width="160" height="120" rx="8" fill="#f5f0ff" stroke="#829ab1" stroke-width="2"/>
<rect x="980" y="350" width="160" height="8" rx="4" fill="#7950f2"/>
<text x="1060.0" y="417.0" text-anchor="middle" font-family="Arial, Noto Sans KR, sans-serif" font-size="18" font-weight="700" fill="#102a43">12-bit ADC</text>
<line x1="1140" y1="410.0" x2="1165" y2="410.0" stroke="#34495e" stroke-width="3" marker-end="url(#flow-arrow)"/>
<rect x="1165" y="350" width="180" height="120" rx="8" fill="#f5f0ff" stroke="#829ab1" stroke-width="2"/>
<rect x="1165" y="350" width="180" height="8" rx="4" fill="#7950f2"/>
<text x="1255.0" y="417.0" text-anchor="middle" font-family="Arial, Noto Sans KR, sans-serif" font-size="18" font-weight="700" fill="#102a43">Signed 변환</text>
<line x1="1345" y1="410.0" x2="1370" y2="410.0" stroke="#34495e" stroke-width="3" marker-end="url(#flow-arrow)"/>
<rect x="1370" y="350" width="205" height="120" rx="8" fill="#eefafa" stroke="#829ab1" stroke-width="2"/>
<rect x="1370" y="350" width="205" height="8" rx="4" fill="#0b7285"/>
<text x="1472.5" y="417.0" text-anchor="middle" font-family="Arial, Noto Sans KR, sans-serif" font-size="18" font-weight="700" fill="#102a43">Digital RTL</text>
<line x1="40" y1="838" x2="1560" y2="838" stroke="#d9e2ec" stroke-width="2"/>
<text x="800" y="870" text-anchor="middle" font-family="Arial, Noto Sans KR, sans-serif" font-size="14" font-weight="400" fill="#486581">원본 LTspice schematic이 아닌 설명용 흐름도이며 세부 파라미터와 XMODEL stress는 본문에서 설명한다.</text>
</svg>
