<svg xmlns="http://www.w3.org/2000/svg" width="1200" height="675" viewBox="0 0 1200 675">
<rect width="1200" height="675" fill="#f7f9fc"/>
<rect x="0" y="0" width="1200" height="92" fill="#102a43"/>
<text x="54" y="52" font-family="Arial, Noto Sans KR, sans-serif" font-size="30" font-weight="700" fill="white">박동·리듬 경로</text>
<text x="54" y="78" font-family="Arial, Noto Sans KR, sans-serif" font-size="14" fill="#bcccdc">인접 표본값 차이에서 RR 패턴 증거까지</text>
<rect x="35" y="125" width="170" height="115" rx="14" fill="#e7f5ff" stroke="#486581" stroke-width="2"/>
<text x="120.0" y="159" text-anchor="middle" font-family="Arial, Noto Sans KR, sans-serif" font-size="19" font-weight="700" fill="#102a43">현재·이전 표본값</text>
<text x="120.0" y="189" text-anchor="middle" font-family="Arial, Noto Sans KR, sans-serif" font-size="15" font-weight="400" fill="#334e68">1 ms 간격</text>
<text x="120.0" y="214" text-anchor="middle" font-family="Arial, Noto Sans KR, sans-serif" font-size="15" font-weight="400" fill="#334e68">previous_sample</text>
<rect x="245" y="125" width="180" height="115" rx="14" fill="#e6fcf5" stroke="#486581" stroke-width="2"/>
<text x="335.0" y="159" text-anchor="middle" font-family="Arial, Noto Sans KR, sans-serif" font-size="19" font-weight="700" fill="#102a43">파형 변화 사건</text>
<text x="335.0" y="189" text-anchor="middle" font-family="Arial, Noto Sans KR, sans-serif" font-size="15" font-weight="400" fill="#334e68">부호 있는 차이</text>
<text x="335.0" y="214" text-anchor="middle" font-family="Arial, Noto Sans KR, sans-serif" font-size="15" font-weight="400" fill="#334e68">상승/하강/강한 사건</text>
<rect x="465" y="115" width="190" height="135" rx="14" fill="#e6fcf5" stroke="#486581" stroke-width="2"/>
<text x="560.0" y="149" text-anchor="middle" font-family="Arial, Noto Sans KR, sans-serif" font-size="19" font-weight="700" fill="#102a43">박동 검출</text>
<text x="560.0" y="179" text-anchor="middle" font-family="Arial, Noto Sans KR, sans-serif" font-size="15" font-weight="400" fill="#334e68">이전 막전위</text>
<text x="560.0" y="204" text-anchor="middle" font-family="Arial, Noto Sans KR, sans-serif" font-size="15" font-weight="400" fill="#334e68">사건 가산→문턱값</text>
<text x="560.0" y="229" text-anchor="middle" font-family="Arial, Noto Sans KR, sans-serif" font-size="15" font-weight="400" fill="#334e68">불응기</text>
<rect x="695" y="125" width="175" height="115" rx="14" fill="#fff9db" stroke="#486581" stroke-width="2"/>
<text x="782.5" y="159" text-anchor="middle" font-family="Arial, Noto Sans KR, sans-serif" font-size="19" font-weight="700" fill="#102a43">RR 간격</text>
<text x="782.5" y="189" text-anchor="middle" font-family="Arial, Noto Sans KR, sans-serif" font-size="15" font-weight="400" fill="#334e68">수락 틱 계수</text>
<text x="782.5" y="214" text-anchor="middle" font-family="Arial, Noto Sans KR, sans-serif" font-size="15" font-weight="400" fill="#334e68">박동에서 확정</text>
<rect x="910" y="115" width="255" height="135" rx="14" fill="#e5dbff" stroke="#486581" stroke-width="2"/>
<text x="1037.5" y="149" text-anchor="middle" font-family="Arial, Noto Sans KR, sans-serif" font-size="19" font-weight="700" fill="#102a43">리듬 증거</text>
<text x="1037.5" y="179" text-anchor="middle" font-family="Arial, Noto Sans KR, sans-serif" font-size="15" font-weight="400" fill="#334e68">PNN: 예측 일치</text>
<text x="1037.5" y="204" text-anchor="middle" font-family="Arial, Noto Sans KR, sans-serif" font-size="15" font-weight="400" fill="#334e68">RDM: 연속 차이</text>
<text x="1037.5" y="229" text-anchor="middle" font-family="Arial, Noto Sans KR, sans-serif" font-size="15" font-weight="400" fill="#334e68">early↔late 쌍</text>
<line x1="205" y1="182" x2="245" y2="182" stroke="#486581" stroke-width="4"/>
<polygon points="245,182 231,174 231,190" fill="#486581"/>
<line x1="425" y1="182" x2="465" y2="182" stroke="#486581" stroke-width="4"/>
<polygon points="465,182 451,174 451,190" fill="#486581"/>
<line x1="655" y1="182" x2="695" y2="182" stroke="#486581" stroke-width="4"/>
<polygon points="695,182 681,174 681,190" fill="#486581"/>
<line x1="870" y1="182" x2="910" y2="182" stroke="#486581" stroke-width="4"/>
<polygon points="910,182 896,174 896,190" fill="#486581"/>
<rect x="70" y="330" width="300" height="170" rx="14" fill="#fff4e6" stroke="#486581" stroke-width="2"/>
<text x="220.0" y="364" text-anchor="middle" font-family="Arial, Noto Sans KR, sans-serif" font-size="19" font-weight="700" fill="#102a43">상태 전이</text>
<text x="220.0" y="394" text-anchor="middle" font-family="Arial, Noto Sans KR, sans-serif" font-size="15" font-weight="400" fill="#334e68">이전 상태 읽기</text>
<text x="220.0" y="419" text-anchor="middle" font-family="Arial, Noto Sans KR, sans-serif" font-size="15" font-weight="400" fill="#334e68">다음 상태 계산</text>
<text x="220.0" y="444" text-anchor="middle" font-family="Arial, Noto Sans KR, sans-serif" font-size="15" font-weight="400" fill="#334e68">클록에서 확정</text>
<rect x="450" y="330" width="300" height="170" rx="14" fill="#fff3bf" stroke="#486581" stroke-width="2"/>
<text x="600.0" y="364" text-anchor="middle" font-family="Arial, Noto Sans KR, sans-serif" font-size="19" font-weight="700" fill="#102a43">60초 누적</text>
<text x="600.0" y="394" text-anchor="middle" font-family="Arial, Noto Sans KR, sans-serif" font-size="15" font-weight="400" fill="#334e68">박동/일치/불일치</text>
<text x="600.0" y="419" text-anchor="middle" font-family="Arial, Noto Sans KR, sans-serif" font-size="15" font-weight="400" fill="#334e68">RDM 코드</text>
<text x="600.0" y="444" text-anchor="middle" font-family="Arial, Noto Sans KR, sans-serif" font-size="15" font-weight="400" fill="#334e68">쌍 횟수</text>
<rect x="830" y="330" width="300" height="170" rx="14" fill="#d3f9d8" stroke="#486581" stroke-width="2"/>
<text x="980.0" y="364" text-anchor="middle" font-family="Arial, Noto Sans KR, sans-serif" font-size="19" font-weight="700" fill="#102a43">다음 단계</text>
<text x="980.0" y="394" text-anchor="middle" font-family="Arial, Noto Sans KR, sans-serif" font-size="15" font-weight="400" fill="#334e68">Snapshot 클래스 상태</text>
<text x="980.0" y="419" text-anchor="middle" font-family="Arial, Noto Sans KR, sans-serif" font-size="15" font-weight="400" fill="#334e68">Final 리듬 집계</text>
<line x1="370" y1="415" x2="450" y2="415" stroke="#486581" stroke-width="4"/>
<polygon points="450,415 436,407 436,423" fill="#486581"/>
<line x1="750" y1="415" x2="830" y2="415" stroke="#486581" stroke-width="4"/>
<polygon points="830,415 816,407 816,423" fill="#486581"/>
<rect x="40" y="625" width="1120" height="32" rx="8" fill="#e1e8f0"/>
<text x="600" y="647" text-anchor="middle" font-family="Arial, Noto Sans KR, sans-serif" font-size="13" font-weight="400" fill="#486581">설명용 상태 흐름이며 임상 박동·RR annotation을 뜻하지 않음</text>
</svg>
