<svg xmlns="http://www.w3.org/2000/svg" width="1200" height="675" viewBox="0 0 1200 675">
<rect width="1200" height="675" fill="#f7f9fc"/>
<rect x="0" y="0" width="1200" height="92" fill="#102a43"/>
<text x="54" y="52" font-family="Arial, Noto Sans KR, sans-serif" font-size="30" font-weight="700" fill="white">MATLAB → XMODEL → Digital → FPGA</text>
<text x="54" y="78" font-family="Arial, Noto Sans KR, sans-serif" font-size="14" fill="#bcccdc">세 고정 commit의 end-to-end evidence flow</text>
<rect x="45" y="210" width="160" height="190" rx="14" fill="#e8f1fb" stroke="#486581" stroke-width="2"/>
<text x="125.0" y="244" text-anchor="middle" font-family="Arial, Noto Sans KR, sans-serif" font-size="19" font-weight="700" fill="#102a43">Public ECG</text>
<text x="125.0" y="274" text-anchor="middle" font-family="Arial, Noto Sans KR, sans-serif" font-size="15" font-weight="400" fill="#334e68">4 source DBs</text>
<line x1="205" y1="305" x2="285" y2="305" stroke="#486581" stroke-width="4"/>
<polygon points="285,305 271,297 271,313" fill="#486581"/>
<rect x="285" y="210" width="160" height="190" rx="14" fill="#e6fffa" stroke="#486581" stroke-width="2"/>
<text x="365.0" y="244" text-anchor="middle" font-family="Arial, Noto Sans KR, sans-serif" font-size="19" font-weight="700" fill="#102a43">MATLAB</text>
<text x="365.0" y="274" text-anchor="middle" font-family="Arial, Noto Sans KR, sans-serif" font-size="15" font-weight="400" fill="#334e68">nominal AFE/ADC</text>
<text x="365.0" y="299" text-anchor="middle" font-family="Arial, Noto Sans KR, sans-serif" font-size="15" font-weight="400" fill="#334e68">reference vectors</text>
<line x1="445" y1="305" x2="525" y2="305" stroke="#486581" stroke-width="4"/>
<polygon points="525,305 511,297 511,313" fill="#486581"/>
<rect x="525" y="210" width="160" height="190" rx="14" fill="#e6fffa" stroke="#486581" stroke-width="2"/>
<text x="605.0" y="244" text-anchor="middle" font-family="Arial, Noto Sans KR, sans-serif" font-size="19" font-weight="700" fill="#102a43">XMODEL</text>
<text x="605.0" y="274" text-anchor="middle" font-family="Arial, Noto Sans KR, sans-serif" font-size="15" font-weight="400" fill="#334e68">stress/non-ideal</text>
<text x="605.0" y="299" text-anchor="middle" font-family="Arial, Noto Sans KR, sans-serif" font-size="15" font-weight="400" fill="#334e68">signed stream</text>
<line x1="685" y1="305" x2="765" y2="305" stroke="#486581" stroke-width="4"/>
<polygon points="765,305 751,297 751,313" fill="#486581"/>
<rect x="765" y="210" width="160" height="190" rx="14" fill="#e8f1fb" stroke="#486581" stroke-width="2"/>
<text x="845.0" y="244" text-anchor="middle" font-family="Arial, Noto Sans KR, sans-serif" font-size="19" font-weight="700" fill="#102a43">Digital RTL</text>
<text x="845.0" y="274" text-anchor="middle" font-family="Arial, Noto Sans KR, sans-serif" font-size="15" font-weight="400" fill="#334e68">Snapshot + Final</text>
<text x="845.0" y="299" text-anchor="middle" font-family="Arial, Noto Sans KR, sans-serif" font-size="15" font-weight="400" fill="#334e68">IP-XACT</text>
<line x1="925" y1="305" x2="1005" y2="305" stroke="#486581" stroke-width="4"/>
<polygon points="1005,305 991,297 991,313" fill="#486581"/>
<rect x="1005" y="210" width="160" height="190" rx="14" fill="#e8f1fb" stroke="#486581" stroke-width="2"/>
<text x="1085.0" y="244" text-anchor="middle" font-family="Arial, Noto Sans KR, sans-serif" font-size="19" font-weight="700" fill="#102a43">FPGA replay</text>
<text x="1085.0" y="274" text-anchor="middle" font-family="Arial, Noto Sans KR, sans-serif" font-size="15" font-weight="400" fill="#334e68">36-case</text>
<text x="1085.0" y="299" text-anchor="middle" font-family="Arial, Noto Sans KR, sans-serif" font-size="15" font-weight="400" fill="#334e68">equivalence</text>
<rect x="40" y="625" width="1120" height="32" rx="8" fill="#e1e8f0"/>
<text x="600" y="647" text-anchor="middle" font-family="Arial, Noto Sans KR, sans-serif" font-size="13" font-weight="400" fill="#486581">Analog layers are model-based; FPGA layer is digital integration proof</text>
</svg>
