<?xml version="1.0" encoding="UTF-8" standalone="no"?>
<svg
   width="196.3mm"
   height="86mm"
   viewBox="0 0 1963 860"
   role="img"
   aria-labelledby="title desc"
   version="1.1"
   id="svg56"
   sodipodi:docname="디지털 IP 패키징 통합 구조도_정리본.svg"
   inkscape:version="1.4.4 (dcaf3e7, 2026-05-05)"
   xmlns:inkscape="http://www.inkscape.org/namespaces/inkscape"
   xmlns:sodipodi="http://sodipodi.sourceforge.net/DTD/sodipodi-0.dtd"
   xmlns="http://www.w3.org/2000/svg"
   xmlns:svg="http://www.w3.org/2000/svg">
  <sodipodi:namedview
     id="namedview56"
     pagecolor="#ffffff"
     bordercolor="#000000"
     borderopacity="0.25"
     inkscape:showpageshadow="2"
     inkscape:pageopacity="0.0"
     inkscape:pagecheckerboard="0"
     inkscape:deskcolor="#d1d1d1"
     inkscape:zoom="0.88397353"
     inkscape:cx="1036.2301"
     inkscape:cy="411.21141"
     inkscape:window-width="2560"
     inkscape:window-height="1494"
     inkscape:window-x="-11"
     inkscape:window-y="-11"
     inkscape:window-maximized="1"
     inkscape:current-layer="svg56" />
  <title
     id="title">ECG 가속기 IP 통합 구조</title>
  <desc
     id="desc">Vivado block design의 주요 IP와 AXI-Lite, AXI-Stream, IRQ, UART, Clock/Reset 연결을 겹침 없이 정리한 구조도</desc>
  <defs
     id="defs5">
    <marker
       id="blue-arrow"
       markerWidth="16"
       markerHeight="16"
       refX="14"
       refY="8"
       orient="auto"
       markerUnits="userSpaceOnUse"
       viewBox="0 0 16 16">
      <path
         d="M0 0 L16 8 L0 16 Z"
         fill="#2c68a2"
         id="path1" />
    </marker>
    <marker
       id="green-arrow"
       markerWidth="16"
       markerHeight="16"
       refX="14"
       refY="8"
       orient="auto"
       markerUnits="userSpaceOnUse"
       viewBox="0 0 16 16">
      <path
         d="M0 0 L16 8 L0 16 Z"
         fill="#238a5a"
         id="path2" />
    </marker>
    <marker
       id="orange-arrow"
       markerWidth="16"
       markerHeight="16"
       refX="14"
       refY="8"
       orient="auto"
       markerUnits="userSpaceOnUse"
       viewBox="0 0 16 16">
      <path
         d="M0 0 L16 8 L0 16 Z"
         fill="#d86d12"
         id="path3" />
    </marker>
    <marker
       id="purple-arrow"
       markerWidth="16"
       markerHeight="16"
       refX="14"
       refY="8"
       orient="auto"
       markerUnits="userSpaceOnUse"
       viewBox="0 0 16 16">
      <path
         d="M0 0 L16 8 L0 16 Z"
         fill="#6b5bb5"
         id="path4" />
    </marker>
    <marker
       id="gray-arrow"
       markerWidth="16"
       markerHeight="16"
       refX="14"
       refY="8"
       orient="auto"
       markerUnits="userSpaceOnUse"
       viewBox="0 0 16 16"
       preserveAspectRatio="xMidYMid">
      <path
         d="M0 0 L16 8 L0 16 Z"
         fill="#748193"
         id="path5" />
    </marker>
    <style
       id="style5">
      text { font-family: &quot;Malgun Gothic&quot;, &quot;맑은 고딕&quot;, Arial, sans-serif; fill: #172638; }
      .figure-title { font-size: 38px; font-weight: 800; }
      .subtitle { font-size: 21px; font-weight: 700; fill: #44596e; }
      .block-title { font-size: 29px; font-weight: 800; }
      .block-title-small { font-size: 25px; font-weight: 800; }
      .wire-label { font-size: 21px; font-weight: 800; }
      .io-label { font-size: 20px; font-weight: 800; fill: #44596e; }
      .control { stroke: #2c68a2; stroke-width: 7; fill: none; stroke-linecap: round; stroke-linejoin: round; }
      .stream { stroke: #238a5a; stroke-width: 8; fill: none; stroke-linecap: round; stroke-linejoin: round; }
      .irq { stroke: #d86d12; stroke-width: 7; fill: none; stroke-linecap: round; stroke-linejoin: round; }
      .local { stroke: #6b5bb5; stroke-width: 6; fill: none; stroke-linecap: round; stroke-linejoin: round; }
      .uart { stroke: #6f7e8e; stroke-width: 5; fill: none; stroke-linecap: round; stroke-linejoin: round; }
      .clock { stroke: #748193; stroke-width: 5; fill: none; stroke-dasharray: 13 10; stroke-linecap: round; stroke-linejoin: round; }
      .label-bg { fill: #ffffff; stroke-width: 2; }
    </style>
  </defs>
  <rect
     width="1963"
     height="860"
     fill="#ffffff"
     id="rect5" />
  <path
     d="M 75.055664,58 H 59.24707 V 30.6875 h 15.196289 v 4.397461 h -9.908203 v 6.958008 h 9.203125 v 4.378906 h -9.203125 v 7.199219 h 10.520508 z m 23.935547,-1.020508 q -2.96875,1.50293 -7.71875,1.50293 -6.067383,0 -9.685547,-3.692383 -3.599609,-3.710937 -3.599609,-9.871094 0,-6.457031 4.026367,-10.557617 4.026367,-4.119141 10.334961,-4.119141 3.970703,0 6.642578,1.057618 v 5.158203 q -2.783203,-1.614258 -6.308594,-1.614258 -4.137695,0 -6.642578,2.69043 -2.486328,2.690429 -2.486328,7.013672 0,4.249023 2.375,6.791015 2.375,2.541992 6.327148,2.541992 3.729493,0 6.735352,-1.78125 z m 25.624019,-0.834961 q -4.02636,2.337891 -9.72265,2.337891 -6.3457,0 -10.09375,-3.673828 -3.74805,-3.692383 -3.74805,-10.038086 0,-6.382813 4.08203,-10.446289 4.08203,-4.082032 10.79883,-4.082032 4.37891,0 7.60742,1.261719 v 5.139649 q -3.15429,-1.911133 -7.75586,-1.911133 -4.06347,0 -6.62402,2.69043 -2.54199,2.671875 -2.54199,7.069335 0,4.490235 2.30078,6.995118 2.30078,2.486328 6.30859,2.486328 2.44922,0 4.08203,-0.797852 v -6.030273 h -5.60351 V 42.84082 h 10.91015 z m 46.99903,-12.580078 v 17.775391 h -4.67578 V 25.547852 h 4.67578 v 14.101562 h 5.54785 v 3.915039 z m -25.47559,9.945313 -3.48828,-3.265625 q 12.00488,-6.586914 14.50977,-17.701172 h -12.4502 V 28.62793 h 17.73828 q -1.46582,15.734375 -16.30957,24.881836 z m 64.27344,-14.732422 q -8.25684,-1.22461 -13.08106,-6.234375 -1.91113,2.170898 -5.41796,3.896484 -3.50684,1.707031 -7.45899,2.300781 l -2.46777,-3.581054 q 5.86328,-0.463868 9.44433,-2.838868 3.58106,-2.393554 3.58106,-4.638671 v -1.911133 h 4.60156 v 1.911133 q 0,2.208007 3.65527,4.638671 3.65528,2.430665 9.33301,2.875977 z m -29.6875,7.032226 v -3.915039 h 14.25 v -4.267578 h 4.67578 v 4.267578 h 14.28711 v 3.915039 z m 23.67578,15.530274 v -8.813477 h -19.25977 v -3.915039 h 23.93555 v 12.728516 z m 39.70703,0 V 25.547852 h 4.56445 v 35.791992 z m -5.47363,-32.637696 q -0.12988,7.663086 -4.3418,14.157227 -4.19336,6.475586 -11.80078,10.650391 l -3.58105,-3.376954 q 5.49218,-2.096679 9.66699,-6.939453 4.1748,-4.842773 5.12109,-10.576172 H 221.08105 V 28.702148 Z M 276.20703,30.6875 V 58 h -5.28808 V 30.6875 Z m 11.80078,17.626953 V 58 h -5.28808 V 30.6875 h 9.01757 q 9.98243,0 9.98243,8.553711 0,4.137695 -3.02442,6.661133 -3.00586,2.523437 -7.57031,2.412109 z m 0,-13.415039 v 9.277344 h 2.69043 q 5.47363,0 5.47363,-4.731446 0,-4.545898 -5.3623,-4.545898 z m 30.57813,12.19043 v -3.952149 h 14.28711 V 40.818359 H 323.5957 V 26.419922 h 23.26758 v 3.729492 h -18.55469 v 1.744141 h 17.86817 v 3.488281 h -17.86817 v 1.725586 h 18.92578 v 3.710937 h -9.72265 v 2.319336 h 14.28711 v 3.952149 z m 16.60644,14.138672 q -5.9375,0 -9.05468,-1.651368 -3.09864,-1.651367 -3.09864,-4.731445 0,-3.024414 3.11719,-4.657226 3.11719,-1.651368 9.03613,-1.651368 5.91895,0 9.03614,1.651368 3.11718,1.632812 3.11718,4.657226 0,3.080078 -3.11718,4.731445 -3.09864,1.651368 -9.03614,1.651368 z m 0,-8.850586 q -3.65527,0 -5.52929,0.55664 -1.87403,0.556641 -1.87403,1.911133 0,2.579102 7.40332,2.579102 7.40332,0 7.40332,-2.579102 0,-1.354492 -1.87402,-1.911133 -1.87402,-0.55664 -5.5293,-0.55664 z M 356.8457,32.431641 v -3.729493 h 8.62793 v -3.655273 h 4.67578 v 3.655273 h 8.62793 v 3.729493 z m 28.57422,6.791015 V 46.44043 H 380.7998 V 25.547852 h 4.62012 v 9.722656 h 5.43653 v 3.952148 z m -17.55273,7.421875 q -4.28614,0 -6.79102,-1.799804 -2.50488,-1.799805 -2.50488,-4.675782 0,-2.857422 2.50488,-4.657226 2.52344,-1.799805 6.82813,-1.799805 4.32324,0 6.82812,1.799805 2.52344,1.799804 2.52344,4.657226 0,2.913086 -2.56055,4.694336 -2.54199,1.78125 -6.82812,1.78125 z m 0.0371,-9.203125 q -2.35645,0 -3.52539,0.760742 -1.15039,0.742188 -1.15039,1.966797 0,2.783203 4.67578,2.783203 4.71289,0 4.71289,-2.783203 0,-2.727539 -4.71289,-2.727539 z m -5.38086,23.416016 V 47.924805 h 4.62011 v 2.96875 h 13.69336 v -2.96875 h 4.58301 v 12.932617 z m 18.31347,-6.271485 h -13.69336 v 2.504883 h 13.69336 z m 41.09864,6.753907 V 45.53125 h -13.99024 v -3.952148 h 23.21192 q 0.50097,-6.772461 0.50097,-10.557618 h -18.66601 v -3.915039 h 23.30468 q 0,6.56836 -0.64941,14.472657 h 5.51074 v 3.952148 h -14.54687 v 15.808594 z m 53.2705,-15.270508 q -3.61816,-1.001953 -7.42187,-3.543945 -3.80371,-2.541993 -5.26953,-4.824219 -1.46582,2.412109 -4.91699,4.731445 -3.45118,2.319336 -7.66309,3.636719 L 446.92871,42.5625 q 5.30664,-0.816406 9.11035,-3.84082 3.82227,-3.042969 4.15625,-6.178711 h -10.66894 v -3.840821 h 26.01367 v 3.840821 H 464.9082 q 0.24121,3.117187 3.84082,5.956054 3.59961,2.838868 9.27735,4.063477 z m -29.26074,10.334961 v -3.84082 h 14.25 v -7.978516 h 4.67578 v 7.978516 h 14.28711 v 3.84082 z"
     id="text5"
     class="figure-title"
     style="font-weight:800;font-size:38px;font-family:'Malgun Gothic', '맑은 고딕', Arial, sans-serif;fill:#172638"
     aria-label="ECG 가속기 IP 통합 구조" />
  <path
     d="M 71.955566,75.90625 66.654297,91 H 63.362793 L 58.123047,75.90625 h 3.168457 l 3.445312,10.930664 q 0.215332,0.687012 0.307618,1.466309 h 0.06152 q 0.04102,-0.574219 0.328125,-1.497071 L 68.889648,75.90625 Z m 1.36377,0.769043 q 0,-0.65625 0.461426,-1.097168 0.471679,-0.440918 1.209961,-0.440918 0.717773,0 1.199707,0.440918 0.481933,0.430664 0.481933,1.097168 0,0.666504 -0.481933,1.107422 -0.47168,0.440918 -1.199707,0.440918 -0.728028,0 -1.199707,-0.451172 -0.47168,-0.451172 -0.47168,-1.097168 z M 73.544922,91 V 80.223145 h 2.850586 V 91 Z M 89.089844,80.223145 84.988281,91 H 81.819824 L 77.92334,80.223145 h 3.076172 l 2.122558,6.993164 q 0.297364,0.994628 0.369141,1.784179 h 0.05127 q 0.08203,-0.769043 0.369141,-1.73291 l 2.184082,-7.044433 z m 1.435547,0.687011 q 0.728027,-0.42041 1.886718,-0.676758 1.158692,-0.266601 2.081543,-0.266601 4.368164,0 4.368164,4.429687 V 91 h -2.727539 v -1.589355 h -0.05127 q -1.086914,1.855957 -3.229981,1.855957 -1.558593,0 -2.471191,-0.871582 -0.912598,-0.881836 -0.912598,-2.358399 0,-3.086426 3.670899,-3.578613 l 3.004394,-0.410156 q 0,-2.061036 -2.009765,-2.061036 -1.917481,0 -3.609375,1.199707 z m 3.476074,5.167969 q -1.845703,0.23584 -1.845703,1.650879 0,0.635742 0.440918,1.035644 0.440918,0.399903 1.189453,0.399903 1.02539,0 1.691894,-0.717774 0.666504,-0.728027 0.666504,-1.825195 V 85.80127 Z M 111.82275,91 h -2.85058 v -1.589355 h -0.0513 q -1.14844,1.855957 -3.43506,1.855957 -2.03027,0 -3.25049,-1.456055 -1.22021,-1.456055 -1.22021,-3.958008 0,-2.655762 1.36377,-4.265625 1.36377,-1.620117 3.54785,-1.620117 2.12256,0 2.99414,1.568848 h 0.0513 v -6.480469 h 2.85058 z m -2.80957,-6.162598 q 0,-1.138183 -0.69726,-1.886718 -0.69727,-0.758789 -1.75342,-0.758789 -1.23047,0 -1.94824,0.963867 -0.70752,0.963867 -0.70752,2.614746 0,1.54834 0.68701,2.409668 0.68701,0.851074 1.85596,0.851074 1.12793,0 1.8457,-0.89209 0.71777,-0.89209 0.71777,-2.276367 z m 5.14746,0.840821 q 0,-2.645508 1.5586,-4.17334 1.55859,-1.538086 4.22461,-1.538086 2.57373,0 4.06054,1.507324 1.49707,1.49707 1.49707,4.019531 0,2.625 -1.54833,4.204102 -1.53809,1.568848 -4.17334,1.568848 -2.58399,0 -4.10157,-1.507325 -1.51758,-1.517578 -1.51758,-4.081054 z m 2.89161,-0.04102 q 0,3.394043 2.81982,3.394043 2.71729,0 2.71729,-3.476074 0,-3.363281 -2.72754,-3.363281 -1.33301,0 -2.07129,0.922851 -0.73828,0.912598 -0.73828,2.522461 z m 21.0205,4.019531 V 91 h -2.86084 V 75.055176 h 2.86084 v 6.870117 h 0.0308 q 1.25097,-1.958496 3.56835,-1.958496 2.05079,0 3.20948,1.435547 1.15869,1.435547 1.15869,3.906738 0,2.696777 -1.33301,4.327148 -1.32275,1.630372 -3.52734,1.630372 -2.02002,0 -3.07617,-1.609864 z m -0.041,-3.260742 q 0,1.117676 0.68701,1.876465 0.68701,0.758789 1.72266,0.758789 1.25097,0 1.95849,-0.974121 0.70752,-0.974121 0.70752,-2.737793 0,-1.466309 -0.64599,-2.296875 -0.646,-0.830566 -1.8252,-0.830566 -1.13818,0 -1.87646,0.84082 -0.72803,0.84082 -0.72803,2.143066 z M 148.32666,91 V 75.055176 h 2.85059 V 91 Z m 5.14746,-5.321777 q 0,-2.645508 1.55859,-4.17334 1.5586,-1.538086 4.22461,-1.538086 2.57373,0 4.06055,1.507324 1.49707,1.49707 1.49707,4.019531 0,2.625 -1.54834,4.204102 -1.53808,1.568848 -4.17334,1.568848 -2.58398,0 -4.10156,-1.507325 -1.51758,-1.517578 -1.51758,-4.081054 z m 2.8916,-0.04102 q 0,3.394043 2.81983,3.394043 2.71728,0 2.71728,-3.476074 0,-3.363281 -2.72754,-3.363281 -1.333,0 -2.07129,0.922851 -0.73828,0.912598 -0.73828,2.522461 z m 18.71338,4.942383 q -1.15869,0.687012 -3.16846,0.687012 -2.41992,0 -3.92724,-1.486817 -1.49707,-1.49707 -1.49707,-3.906738 0,-2.748047 1.60986,-4.327149 1.60986,-1.579101 4.29639,-1.579101 1.75342,0 2.68652,0.512695 v 2.512207 q -1.08691,-0.799804 -2.39941,-0.799804 -1.49707,0 -2.39942,0.943359 -0.90234,0.933105 -0.90234,2.532715 0,1.579101 0.85107,2.471191 0.85108,0.89209 2.33789,0.89209 1.30225,0 2.51221,-0.820313 z M 187.62988,91 h -3.53759 l -3.82471,-5.30127 h -0.0308 V 91 h -2.86084 V 75.055176 h 2.86084 v 10.141113 h 0.0308 l 3.59912,-4.973144 h 3.45557 l -4.19385,5.106445 z m 18.93897,0 h -2.85059 v -1.589355 h -0.0513 q -1.14844,1.855957 -3.43506,1.855957 -2.03027,0 -3.25048,-1.456055 -1.22022,-1.456055 -1.22022,-3.958008 0,-2.655762 1.36377,-4.265625 1.36377,-1.620117 3.54785,-1.620117 2.12256,0 2.99414,1.568848 h 0.0513 v -6.480469 h 2.85059 z m -2.80957,-6.162598 q 0,-1.138183 -0.69727,-1.886718 -0.69726,-0.758789 -1.75342,-0.758789 -1.23047,0 -1.94824,0.963867 -0.70752,0.963867 -0.70752,2.614746 0,1.54834 0.68701,2.409668 0.68702,0.851074 1.85596,0.851074 1.12793,0 1.8457,-0.89209 0.71778,-0.89209 0.71778,-2.276367 z m 15.18603,1.579102 h -7.19824 q 0.17432,2.748047 3.11719,2.748047 1.79443,0 3.19922,-0.94336 v 2.173829 q -1.49707,0.871582 -3.84522,0.871582 -2.51221,0 -3.91699,-1.456055 -1.39453,-1.456055 -1.39453,-4.070801 0,-2.563476 1.49707,-4.163086 1.50732,-1.609863 3.76318,-1.609863 2.25586,0 3.51709,1.384277 1.26123,1.384278 1.26123,3.804199 z m -2.69677,-1.876465 q 0,-2.563477 -2.11231,-2.563477 -0.88184,0 -1.55859,0.697266 -0.66651,0.697266 -0.83057,1.866211 z m 4.50146,3.691406 q 1.59961,1.004883 3.1582,1.004883 2.00977,0 2.00977,-1.138183 0,-0.789551 -1.58936,-1.333008 -2.31738,-0.779297 -2.94287,-1.527832 -0.62549,-0.758789 -0.62549,-1.937989 0,-1.558593 1.27149,-2.440429 1.27148,-0.89209 3.27099,-0.89209 1.39454,0 2.78907,0.440918 v 2.327637 q -1.26123,-0.748536 -2.7583,-0.748536 -0.78955,0 -1.27149,0.297364 -0.48193,0.297363 -0.48193,0.78955 0,0.810059 1.34326,1.281739 1.52783,0.553711 2.24561,0.933105 0.71777,0.369141 1.11767,1.015137 0.3999,0.645996 0.3999,1.517578 0,1.640625 -1.3125,2.542969 -1.30224,0.902344 -3.44531,0.902344 -1.80469,0 -3.17871,-0.574219 z m 9.79248,-11.556152 q 0,-0.65625 0.46143,-1.097168 0.47168,-0.440918 1.20996,-0.440918 0.71777,0 1.1997,0.440918 0.48194,0.430664 0.48194,1.097168 0,0.666504 -0.48194,1.107422 -0.47168,0.440918 -1.1997,0.440918 -0.72803,0 -1.19971,-0.451172 -0.47168,-0.451172 -0.47168,-1.097168 z M 230.76807,91 V 80.223145 h 2.85058 V 91 Z m 15.96533,-1.117676 q 0,2.994141 -1.65088,4.583496 -1.65088,1.59961 -4.78857,1.59961 -2.13282,0 -3.46583,-0.666504 V 92.91748 q 1.6919,0.974122 3.39405,0.974122 1.74316,0 2.69678,-0.933106 0.96386,-0.922851 0.96386,-2.635254 v -0.953613 h -0.041 q -1.16895,1.896973 -3.45557,1.896973 -2.00977,0 -3.24023,-1.445801 -1.23047,-1.445801 -1.23047,-3.896485 0,-2.717285 1.34326,-4.337402 1.35351,-1.620117 3.5581,-1.620117 1.99952,0 3.02491,1.579101 h 0.041 v -1.322753 h 2.85059 z m -2.81983,-5.034668 q 0,-1.097168 -0.68701,-1.876465 -0.68701,-0.779296 -1.74316,-0.779296 -1.23047,0 -1.9585,0.953613 -0.71777,0.953613 -0.71777,2.666015 0,1.476563 0.68701,2.348145 0.68701,0.871582 1.8252,0.871582 1.15869,0 1.87646,-0.871582 0.71777,-0.871582 0.71777,-2.245606 z M 259.69434,91 h -2.85059 v -6.039551 q 0,-2.768554 -1.99951,-2.768554 -1.00488,0 -1.64063,0.758789 -0.62549,0.748535 -0.62549,1.907226 V 91 h -2.86083 V 80.223145 h 2.86083 v 1.73291 h 0.0308 q 1.18945,-1.989258 3.49658,-1.989258 3.58887,0 3.58887,4.439941 z m 24.67089,1.845703 v -9.884766 h -1.59961 v 9.300293 h -2.54296 V 73.46582 h 2.54296 v 7.331543 h 1.59961 v -7.731445 h 2.55323 V 92.845703 Z M 270.46094,87.370117 V 74.552734 h 2.52246 v 4.604004 h 2.99414 V 74.552734 H 278.5 v 12.817383 z m 5.5166,-6.070312 h -2.99414 v 3.927246 h 2.99414 z m 28.79297,11.545898 V 73.065918 h 2.56347 v 19.779785 z m -2.8916,-4.788574 q -3.34278,-2.307129 -4.70655,-4.788574 -0.64599,1.363769 -2.02002,2.932617 -1.37402,1.568848 -2.50195,2.276367 l -1.8457,-1.702148 q 2.18408,-1.240723 3.62988,-3.404297 1.45605,-2.173828 1.45605,-4.193848 v -1.363769 h -4.51171 v -2.163575 h 4.49121 v -2.583984 h 2.58398 v 2.583984 h 4.53223 v 2.163575 h -4.53223 v 1.4458 q 0,1.927735 1.41504,3.886231 1.42529,1.958496 3.59912,2.942871 z m 31.23339,4.788574 V 73.065918 h 2.52247 v 19.779785 z m -3.0249,-18.036621 q -0.0718,4.234863 -2.39941,7.82373 -2.31738,3.578614 -6.52149,5.885743 l -1.979,-1.866211 q 3.03516,-1.158692 5.34229,-3.834961 2.30712,-2.67627 2.83007,-5.844727 h -6.97265 v -2.163574 z m 26.33203,6.552246 q -4.76806,-0.789551 -7.15722,-3.188965 -0.88184,1.015137 -2.95313,1.948242 -2.07129,0.922852 -4.10156,1.220215 l -1.4458,-1.999511 q 2.56348,-0.164063 4.57324,-1.097168 2.00977,-0.933106 2.44043,-2.050782 h -5.58838 v -2.163574 h 14.15039 v 2.163574 h -5.58838 q 0.53321,1.12793 2.53272,2.091797 2.00976,0.953614 4.37842,1.056153 z m -5.87548,3.486328 v 3.783692 h -2.58399 v -3.783692 h -7.875 v -2.184082 h 18.35449 v 2.184082 z m -7.73145,7.372559 v -6.029297 h 2.58398 v 3.865723 h 10.69483 v 2.163574 z"
     id="text6"
     class="subtitle"
     style="font-weight:700;font-size:21px;font-family:'Malgun Gothic', '맑은 고딕', Arial, sans-serif;fill:#44596e"
     aria-label="Vivado block design 배치 기준" />
  <!-- Blocks -->
  <g
     id="blocks">
    <rect
       x="1055"
       y="35"
       width="170"
       height="70"
       rx="17"
       fill="#f2f5f8"
       stroke="#7f94aa"
       stroke-width="3"
       id="rect6" />
    <rect
       x="1640"
       y="60"
       width="190"
       height="130"
       rx="19"
       fill="#e8f1fb"
       stroke="#3578b6"
       stroke-width="4"
       id="rect7" />
    <rect
       x="1000"
       y="130"
       width="280"
       height="230"
       rx="22"
       fill="#e8f1fb"
       stroke="#5f83aa"
       stroke-width="4"
       id="rect8" />
    <rect
       x="1370"
       y="145"
       width="220"
       height="115"
       rx="19"
       fill="#e9f7ef"
       stroke="#4a9c72"
       stroke-width="4"
       id="rect9" />
    <rect
       x="1370"
       y="290"
       width="200"
       height="120"
       rx="19"
       fill="#fff3e7"
       stroke="#d8873e"
       stroke-width="4"
       id="rect10" />
    <rect
       x="1370"
       y="475"
       width="220"
       height="130"
       rx="19"
       fill="#f2f5f8"
       stroke="#7890a7"
       stroke-width="4"
       id="rect11" />
    <rect
       x="220"
       y="430"
       width="180"
       height="100"
       rx="18"
       fill="#f2f5f8"
       stroke="#8da0b5"
       stroke-width="3"
       id="rect12" />
    <rect
       x="520"
       y="400"
       width="410"
       height="150"
       rx="22"
       fill="#e8f1fb"
       stroke="#5f83aa"
       stroke-width="4"
       id="rect13" />
    <rect
       x="1040"
       y="410"
       width="170"
       height="140"
       rx="19"
       fill="#f0ecfb"
       stroke="#8878c5"
       stroke-width="4"
       id="rect14" />
    <rect
       x="180"
       y="680"
       width="280"
       height="140"
       rx="20"
       fill="#f3f5f7"
       stroke="#8f9aaa"
       stroke-width="4"
       id="rect15" />
  </g>
  <!-- Block names -->
  <path
     d="m 1113.8037,78.328613 q -1.9531,0.98877 -5.0781,0.98877 -3.9917,0 -6.3721,-2.429199 -2.3681,-2.441407 -2.3681,-6.494141 0,-4.248047 2.6489,-6.945801 2.6489,-2.709961 6.7993,-2.709961 2.6123,0 4.3701,0.695801 v 3.393555 q -1.831,-1.062012 -4.1504,-1.062012 -2.7221,0 -4.3701,1.77002 -1.6357,1.770019 -1.6357,4.614257 0,2.79541 1.5625,4.467774 1.5625,1.672363 4.1626,1.672363 2.4536,0 4.4311,-1.171875 z m 2.1484,-5.664062 q 0,-3.149414 1.8555,-4.968262 1.8555,-1.831055 5.0293,-1.831055 3.064,0 4.834,1.794434 1.7822,1.782227 1.7822,4.785156 0,3.125 -1.8432,5.004883 -1.8311,1.867676 -4.9683,1.867676 -3.0762,0 -4.8828,-1.794434 -1.8067,-1.80664 -1.8067,-4.858398 z m 3.4424,-0.04883 q 0,4.040527 3.357,4.040527 3.2348,0 3.2348,-4.138184 0,-4.003906 -3.247,-4.003906 -1.587,0 -2.4659,1.098633 -0.8789,1.086426 -0.8789,3.00293 z M 1144.1016,79 h -3.3936 v -7.189941 q 0,-3.295899 -2.3804,-3.295899 -1.1963,0 -1.9531,0.90332 -0.7446,0.891114 -0.7446,2.270508 V 79 h -3.4058 V 66.17041 h 3.4058 v 2.062988 h 0.037 q 1.416,-2.368164 4.1626,-2.368164 4.2725,0 4.2725,5.285645 z m 12.7807,-0.500488 q -1.3794,0.817871 -3.7719,0.817871 -2.8809,0 -4.6753,-1.77002 -1.7823,-1.782226 -1.7823,-4.650879 0,-3.271484 1.9165,-5.151367 1.9165,-1.879883 5.1148,-1.879883 2.0874,0 3.1982,0.610352 v 2.990723 q -1.2939,-0.952149 -2.8564,-0.952149 -1.7822,0 -2.8565,1.123047 -1.0742,1.11084 -1.0742,3.015137 0,1.879883 1.0132,2.941894 1.0132,1.062012 2.7832,1.062012 1.5503,0 2.9907,-0.976563 z m 3.0396,-11.511231 q 0.8667,-0.500488 2.2461,-0.805664 1.3794,-0.317383 2.478,-0.317383 5.2002,0 5.2002,5.273438 V 79 h -3.2471 v -1.89209 h -0.061 q -1.294,2.209473 -3.8452,2.209473 -1.8555,0 -2.9419,-1.037598 -1.0864,-1.049805 -1.0864,-2.807617 0,-3.674316 4.3701,-4.260254 l 3.5766,-0.488281 q 0,-2.453613 -2.3925,-2.453613 -2.2828,0 -4.2969,1.428222 z m 4.1382,6.152344 q -2.1973,0.280762 -2.1973,1.965332 0,0.756836 0.5249,1.23291 0.5249,0.476074 1.416,0.476074 1.2207,0 2.0142,-0.854492 0.7934,-0.866699 0.7934,-2.172851 v -0.976563 z m 16.3452,5.725098 q -0.8667,0.439453 -2.417,0.439453 -3.9429,0 -3.9429,-4.174805 v -6.37207 h -2.124 V 66.17041 h 2.124 v -2.868652 l 3.3936,-0.98877 v 3.857422 h 2.9663 v 2.587891 h -2.9663 v 5.773926 q 0,2.124023 1.6723,2.124023 0.6958,0 1.294,-0.390625 z"
     id="text15"
     class="block-title-small"
     style="font-weight:800;font-size:25px;font-family:'Malgun Gothic', '맑은 고딕', Arial, sans-serif;text-anchor:middle;fill:#172638"
     aria-label="Concat" />
  <rect
     x="1659"
     y="78"
     width="14"
     height="14"
     rx="2"
     fill="#2f74b8"
     id="rect16" />
  <path
     d="m 1681.5454,111.73975 q 2.1362,1.77002 4.895,1.77002 1.6602,0 2.4781,-0.57373 0.8178,-0.58594 0.8178,-1.52588 0,-0.81787 -0.6836,-1.50147 -0.6836,-0.68359 -3.3081,-1.80664 -2.2339,-1.00098 -3.247,-2.24609 -1.001,-1.25733 -1.001,-2.9419 0,-2.4292 1.8799,-3.796384 1.8798,-1.379395 4.9316,-1.379395 2.7344,0 4.3091,0.683594 v 3.332515 q -1.7456,-1.19628 -4.2114,-1.19628 -1.4527,0 -2.356,0.54931 -0.8911,0.54932 -0.8911,1.51367 0,0.76905 0.6226,1.40381 0.6225,0.63477 2.9174,1.64795 2.6367,1.14746 3.6621,2.41699 1.0254,1.25733 1.0254,3.01514 0,2.53906 -1.8188,3.88184 -1.8067,1.33056 -5.0781,1.33056 -3.0396,0 -4.9439,-1.01318 z M 1712.1851,116 h -3.6377 l -7.9468,-12.17041 q -0.4883,-0.74463 -0.8057,-1.3916 h -0.049 q 0.098,0.85449 0.098,2.7832 V 116 h -3.3204 V 98.03125 h 3.8819 l 7.666,11.85303 q 0.5859,0.90332 0.8545,1.3916 h 0.049 q -0.098,-0.47608 -0.098,-2.51465 V 98.03125 h 3.3081 z m 19.9462,0 h -3.6376 l -7.9468,-12.17041 q -0.4883,-0.74463 -0.8057,-1.3916 h -0.049 q 0.098,0.85449 0.098,2.7832 V 116 h -3.3203 V 98.03125 h 3.8819 l 7.666,11.85303 q 0.5859,0.90332 0.8545,1.3916 h 0.049 q -0.098,-0.47608 -0.098,-2.51465 V 98.03125 h 3.3081 z m 23.4742,0 h -10.4004 V 98.03125 h 9.9975 v 2.89307 h -6.5185 v 4.57763 h 6.0547 v 2.88086 h -6.0547 v 4.73633 h 6.9214 z m 15.747,-0.67139 q -1.9531,0.98877 -5.0781,0.98877 -3.9917,0 -6.3721,-2.4292 -2.3681,-2.4414 -2.3681,-6.49414 0,-4.24804 2.6489,-6.9458 2.6489,-2.709959 6.7993,-2.709959 2.6123,0 4.3701,0.695801 v 3.393558 q -1.831,-1.06201 -4.1504,-1.06201 -2.7221,0 -4.3701,1.77001 -1.6357,1.77002 -1.6357,4.61426 0,2.79541 1.5625,4.46778 1.5625,1.67236 4.1626,1.67236 2.4536,0 4.4311,-1.17188 z m 16.8579,-0.54931 q -2.6489,1.53808 -6.3964,1.53808 -4.1748,0 -6.6407,-2.41699 -2.4658,-2.4292 -2.4658,-6.604 0,-4.19922 2.6856,-6.87256 2.6855,-2.685549 7.1045,-2.685549 2.8808,0 5.0048,0.830078 v 3.381351 q -2.0752,-1.25733 -5.1025,-1.25733 -2.6733,0 -4.3579,1.77002 -1.6724,1.75781 -1.6724,4.65088 0,2.9541 1.5137,4.60205 1.5137,1.63574 4.1504,1.63574 1.6113,0 2.6855,-0.5249 v -3.96728 h -3.6865 v -2.83203 h 7.1777 z"
     id="text16"
     class="block-title-small"
     style="font-weight:800;font-size:25px;font-family:'Malgun Gothic', '맑은 고딕', Arial, sans-serif;text-anchor:middle;fill:#172638"
     aria-label="SNN ECG" />
  <path
     d="m 1685.0977,151 h -3.7964 l -1.4527,-4.29688 h -6.7505 L 1671.6821,151 h -3.7964 l 6.6529,-17.96875 h 4.0161 z m -6.1158,-7.05566 -2.1972,-6.50635 q -0.1343,-0.39063 -0.2808,-1.48926 h -0.085 q -0.098,0.81787 -0.3052,1.46484 l -2.2095,6.53077 z m 17.566,6.55517 q -1.3794,0.81787 -3.772,0.81787 -2.8809,0 -4.6753,-1.77002 -1.7822,-1.78222 -1.7822,-4.65088 0,-3.27148 1.9165,-5.15136 1.9165,-1.87989 5.1147,-1.87989 2.0874,0 3.1983,0.61036 v 2.99072 q -1.294,-0.95215 -2.8565,-0.95215 -1.7822,0 -2.8564,1.12305 -1.0743,1.11084 -1.0743,3.01513 0,1.87989 1.0132,2.9419 1.0132,1.06201 2.7832,1.06201 1.5503,0 2.9908,-0.97656 z m 12.1826,0 q -1.3794,0.81787 -3.772,0.81787 -2.8809,0 -4.6753,-1.77002 -1.7822,-1.78222 -1.7822,-4.65088 0,-3.27148 1.9165,-5.15136 1.9165,-1.87989 5.1147,-1.87989 2.0874,0 3.1983,0.61036 v 2.99072 q -1.294,-0.95215 -2.8565,-0.95215 -1.7822,0 -2.8564,1.12305 -1.0742,1.11084 -1.0742,3.01513 0,1.87989 1.0131,2.9419 1.0132,1.06201 2.7832,1.06201 1.5503,0 2.9908,-0.97656 z m 13.9038,-4.95605 h -8.5694 q 0.2076,3.27148 3.711,3.27148 2.1362,0 3.8086,-1.12305 v 2.5879 q -1.7823,1.03759 -4.5777,1.03759 -2.9907,0 -4.663,-1.7334 -1.6602,-1.73339 -1.6602,-4.84619 0,-3.05175 1.7822,-4.95605 1.7945,-1.91651 4.48,-1.91651 2.6855,0 4.187,1.64795 1.5015,1.64795 1.5015,4.52881 z m -3.2105,-2.23389 q 0,-3.05176 -2.5146,-3.05176 -1.0498,0 -1.8555,0.83008 -0.7934,0.83008 -0.9888,2.22168 z M 1725.1611,151 v -18.98193 h 3.3936 V 151 Z m 18.0786,-5.45654 h -8.5693 q 0.2075,3.27148 3.7109,3.27148 2.1363,0 3.8086,-1.12305 v 2.5879 q -1.7822,1.03759 -4.5776,1.03759 -2.9907,0 -4.6631,-1.7334 -1.6601,-1.73339 -1.6601,-4.84619 0,-3.05175 1.7822,-4.95605 1.7944,-1.91651 4.48,-1.91651 2.6855,0 4.187,1.64795 1.5014,1.64795 1.5014,4.52881 z m -3.2104,-2.23389 q 0,-3.05176 -2.5147,-3.05176 -1.0498,0 -1.8554,0.83008 -0.7935,0.83008 -0.9888,2.22168 z m 13.6597,-2.00195 q -0.6714,-0.40283 -1.648,-0.40283 -1.2817,0 -2.0508,1.0498 -0.769,1.0376 -0.769,2.79541 V 151 h -3.4058 v -12.82959 h 3.4058 v 2.46582 h 0.037 q 0.94,-2.68555 3.3814,-2.68555 0.6958,0 1.0498,0.1709 z m 2.2705,-2.31934 q 0.8667,-0.50049 2.2461,-0.80566 1.3794,-0.31739 2.478,-0.31739 5.2002,0 5.2002,5.27344 V 151 h -3.2471 v -1.89209 h -0.061 q -1.294,2.20947 -3.8452,2.20947 -1.8555,0 -2.9419,-1.03759 -1.0865,-1.04981 -1.0865,-2.80762 0,-3.67432 4.3702,-4.26026 l 3.5766,-0.48828 q 0,-2.45361 -2.3926,-2.45361 -2.2827,0 -4.2968,1.42822 z m 4.1382,6.15234 q -2.1973,0.28077 -2.1973,1.96534 0,0.75683 0.5249,1.23291 0.5249,0.47607 1.416,0.47607 1.2207,0 2.0142,-0.85449 0.7934,-0.8667 0.7934,-2.17285 v -0.97656 z m 16.3452,5.7251 q -0.8667,0.43946 -2.417,0.43946 -3.9429,0 -3.9429,-4.17481 v -6.37207 h -2.124 v -2.58789 h 2.124 v -2.86865 l 3.3936,-0.98877 v 3.85742 h 2.9663 v 2.58789 h -2.9663 v 5.77393 q 0,2.12402 1.6723,2.12402 0.6958,0 1.294,-0.39063 z m 1.5014,-6.20117 q 0,-3.14941 1.8555,-4.96826 1.8555,-1.83106 5.0293,-1.83106 3.064,0 4.834,1.79444 1.7822,1.78222 1.7822,4.78515 0,3.125 -1.8432,5.00489 -1.8311,1.86767 -4.9683,1.86767 -3.0762,0 -4.8828,-1.79443 -1.8067,-1.80664 -1.8067,-4.8584 z m 3.4424,-0.0488 q 0,4.04053 3.357,4.04053 3.2348,0 3.2348,-4.13818 0,-4.00391 -3.2471,-4.00391 -1.5869,0 -2.4658,1.09863 -0.8789,1.08643 -0.8789,3.00293 z m 20.7031,-3.3081 q -0.6713,-0.40283 -1.6479,-0.40283 -1.2817,0 -2.0508,1.0498 -0.769,1.0376 -0.769,2.79541 V 151 h -3.4058 v -12.82959 h 3.4058 v 2.46582 h 0.037 q 0.9399,-2.68555 3.3813,-2.68555 0.6958,0 1.0498,0.1709 z"
     id="text17"
     class="block-title-small"
     style="font-weight:800;font-size:25px;font-family:'Malgun Gothic', '맑은 고딕', Arial, sans-serif;text-anchor:middle;fill:#172638"
     aria-label="Accelerator" />
  <rect
     x="1020"
     y="150"
     width="14"
     height="14"
     rx="2"
     fill="#2f74b8"
     id="rect17" />
  <path
     d="m 1136.5332,242 h -3.7964 l -1.4526,-4.29688 h -6.7505 L 1123.1177,242 h -3.7964 l 6.6528,-17.96875 h 4.0161 z m -6.1157,-7.05566 -2.1973,-6.50635 q -0.1343,-0.39063 -0.2807,-1.48926 h -0.085 q -0.098,0.81787 -0.3052,1.46484 l -2.2094,6.53077 z M 1152.8906,242 h -4.1382 l -3.4057,-6.15234 q -0.1709,-0.31739 -0.3662,-1.11084 h -0.049 q -0.1953,0.62255 -0.415,1.14746 L 1141.062,242 h -4.1748 l 5.8106,-8.98438 -5.3101,-8.98437 h 4.2358 l 2.8931,5.66406 q 0.3052,0.59815 0.5615,1.44043 h 0.049 q 0.1831,-0.51269 0.6103,-1.50146 l 3.1372,-5.60303 h 3.8941 l -5.4566,8.91113 z m 5.7984,-17.96875 V 242 h -3.479 v -17.96875 z"
     id="text18"
     class="block-title-small"
     style="font-weight:800;font-size:25px;font-family:'Malgun Gothic', '맑은 고딕', Arial, sans-serif;text-anchor:middle;fill:#172638"
     aria-label="AXI" />
  <path
     d="M 1070.8289,259.03125 V 277 h -3.479 V 259.03125 Z M 1086.637,277 h -3.3936 v -7.18994 q 0,-3.2959 -2.3804,-3.2959 -1.1963,0 -1.9531,0.90332 -0.7446,0.89111 -0.7446,2.27051 V 277 h -3.4058 v -12.82959 h 3.4058 v 2.06299 h 0.037 q 1.416,-2.36817 4.1626,-2.36817 4.2725,0 4.2725,5.28565 z m 10.5468,-0.13428 q -0.8667,0.43946 -2.417,0.43946 -3.9428,0 -3.9428,-4.17481 v -6.37207 h -2.124 v -2.58789 h 2.124 v -2.86865 l 3.3935,-0.98877 v 3.85742 h 2.9663 v 2.58789 h -2.9663 v 5.77393 q 0,2.12402 1.6724,2.12402 0.6958,0 1.2939,-0.39063 z m 13.4522,-5.32226 h -8.5693 q 0.2075,3.27148 3.7109,3.27148 2.1362,0 3.8086,-1.12305 v 2.5879 q -1.7822,1.03759 -4.5777,1.03759 -2.9907,0 -4.663,-1.7334 -1.6602,-1.73339 -1.6602,-4.84619 0,-3.05175 1.7822,-4.95605 1.7945,-1.91651 4.48,-1.91651 2.6856,0 4.187,1.64795 1.5015,1.64795 1.5015,4.52881 z m -3.2105,-2.23389 q 0,-3.05176 -2.5146,-3.05176 -1.0498,0 -1.8555,0.83008 -0.7934,0.83008 -0.9887,2.22168 z m 13.6597,-2.00195 q -0.6714,-0.40283 -1.6479,-0.40283 -1.2818,0 -2.0508,1.0498 -0.7691,1.0376 -0.7691,2.79541 V 277 h -3.4057 v -12.82959 h 3.4057 v 2.46582 h 0.037 q 0.9399,-2.68555 3.3813,-2.68555 0.6958,0 1.0498,0.1709 z m 11.2915,9.19189 q -1.3794,0.81787 -3.772,0.81787 -2.8808,0 -4.6753,-1.77002 -1.7822,-1.78222 -1.7822,-4.65088 0,-3.27148 1.9165,-5.15136 1.9165,-1.87989 5.1148,-1.87989 2.0874,0 3.1982,0.61036 v 2.99072 q -1.2939,-0.95215 -2.8564,-0.95215 -1.7823,0 -2.8565,1.12305 -1.0742,1.11084 -1.0742,3.01513 0,1.87989 1.0132,2.9419 1.0132,1.06201 2.7832,1.06201 1.5503,0 2.9907,-0.97656 z m 1.9531,-5.83496 q 0,-3.14941 1.8555,-4.96826 1.8555,-1.83106 5.0293,-1.83106 3.064,0 4.834,1.79444 1.7822,1.78222 1.7822,4.78515 0,3.125 -1.8433,5.00489 -1.831,1.86767 -4.9682,1.86767 -3.0762,0 -4.8828,-1.79443 -1.8067,-1.80664 -1.8067,-4.8584 z m 3.4424,-0.0488 q 0,4.04053 3.357,4.04053 3.2348,0 3.2348,-4.13818 0,-4.00391 -3.2471,-4.00391 -1.5869,0 -2.4658,1.09863 -0.8789,1.08643 -0.8789,3.00293 z M 1162.4792,277 h -3.3935 v -7.18994 q 0,-3.2959 -2.3804,-3.2959 -1.1963,0 -1.9531,0.90332 -0.7446,0.89111 -0.7446,2.27051 V 277 h -3.4058 v -12.82959 h 3.4058 v 2.06299 h 0.037 q 1.416,-2.36817 4.1626,-2.36817 4.2724,0 4.2724,5.28565 z m 15.21,0 h -3.3935 v -7.18994 q 0,-3.2959 -2.3804,-3.2959 -1.1963,0 -1.9531,0.90332 -0.7447,0.89111 -0.7447,2.27051 V 277 h -3.4057 v -12.82959 h 3.4057 v 2.06299 h 0.037 q 1.416,-2.36817 4.1625,-2.36817 4.2725,0 4.2725,5.28565 z m 14.502,-5.45654 h -8.5694 q 0.2075,3.27148 3.711,3.27148 2.1362,0 3.8086,-1.12305 v 2.5879 q -1.7823,1.03759 -4.5777,1.03759 -2.9907,0 -4.6631,-1.7334 -1.6601,-1.73339 -1.6601,-4.84619 0,-3.05175 1.7822,-4.95605 1.7944,-1.91651 4.48,-1.91651 2.6855,0 4.187,1.64795 1.5015,1.64795 1.5015,4.52881 z m -3.2105,-2.23389 q 0,-3.05176 -2.5146,-3.05176 -1.0498,0 -1.8555,0.83008 -0.7935,0.83008 -0.9888,2.22168 z m 15.2344,7.18994 q -1.3794,0.81787 -3.772,0.81787 -2.8808,0 -4.6753,-1.77002 -1.7822,-1.78222 -1.7822,-4.65088 0,-3.27148 1.9165,-5.15136 1.9165,-1.87989 5.1147,-1.87989 2.0874,0 3.1983,0.61036 v 2.99072 q -1.294,-0.95215 -2.8565,-0.95215 -1.7822,0 -2.8564,1.12305 -1.0742,1.11084 -1.0742,3.01513 0,1.87989 1.0132,2.9419 1.0131,1.06201 2.7832,1.06201 1.5503,0 2.9907,-0.97656 z m 9.9487,0.36621 q -0.8667,0.43946 -2.417,0.43946 -3.9428,0 -3.9428,-4.17481 v -6.37207 h -2.1241 v -2.58789 h 2.1241 v -2.86865 l 3.3935,-0.98877 v 3.85742 h 2.9663 v 2.58789 h -2.9663 v 5.77393 q 0,2.12402 1.6724,2.12402 0.6958,0 1.2939,-0.39063 z"
     id="text19"
     class="block-title-small"
     style="font-weight:800;font-size:25px;font-family:'Malgun Gothic', '맑은 고딕', Arial, sans-serif;text-anchor:middle;fill:#172638"
     aria-label="Interconnect" />
  <path
     d="m 1393.4583,208.73975 q 2.1362,1.77002 4.895,1.77002 1.6601,0 2.478,-0.57373 0.8179,-0.58594 0.8179,-1.52588 0,-0.81787 -0.6836,-1.50147 -0.6836,-0.68359 -3.3081,-1.80664 -2.2339,-1.00098 -3.2471,-2.24609 -1.001,-1.25733 -1.001,-2.9419 0,-2.4292 1.8799,-3.79638 1.8799,-1.3794 4.9316,-1.3794 2.7344,0 4.3091,0.68359 v 3.33252 q -1.7456,-1.19628 -4.2114,-1.19628 -1.4526,0 -2.356,0.54931 -0.8911,0.54932 -0.8911,1.51367 0,0.76905 0.6226,1.40381 0.6226,0.63477 2.9175,1.64795 2.6367,1.14746 3.6621,2.41699 1.0254,1.25733 1.0254,3.01514 0,2.53906 -1.8189,3.88184 -1.8066,1.33056 -5.0781,1.33056 -3.0396,0 -4.9438,-1.01318 z m 14.9292,-7.75147 q 0.8667,-0.50049 2.246,-0.80566 1.3794,-0.31739 2.4781,-0.31739 5.2002,0 5.2002,5.27344 V 213 h -3.2471 v -1.89209 h -0.061 q -1.294,2.20947 -3.8453,2.20947 -1.8554,0 -2.9418,-1.03759 -1.0865,-1.04981 -1.0865,-2.80762 0,-3.67432 4.3701,-4.26026 l 3.5767,-0.48828 q 0,-2.45361 -2.3926,-2.45361 -2.2827,0 -4.2968,1.42822 z m 4.1381,6.15234 q -2.1972,0.28077 -2.1972,1.96534 0,0.75683 0.5249,1.23291 0.5249,0.47607 1.416,0.47607 1.2207,0 2.0141,-0.85449 0.7935,-0.8667 0.7935,-2.17285 v -0.97656 z M 1441.3953,213 h -3.3936 v -7.32422 q 0,-3.16162 -2.2949,-3.16162 -1.062,0 -1.7822,0.96436 -0.708,0.95214 -0.708,2.29492 V 213 h -3.3936 v -7.4585 q 0,-3.02734 -2.2827,-3.02734 -1.0864,0 -1.7822,0.90332 -0.6958,0.89111 -0.6958,2.39258 V 213 h -3.4058 v -12.82959 h 3.4058 v 2.02637 h 0.037 q 1.4404,-2.33155 4.1137,-2.33155 2.71,0 3.6866,2.46582 1.4648,-2.46582 4.2846,-2.46582 4.2115,0 4.2115,5.17579 z m 6.7505,-1.59912 v 7.50732 h -3.4058 v -18.73779 h 3.4058 v 2.02637 h 0.037 q 1.4892,-2.33155 4.2236,-2.33155 2.4292,0 3.8208,1.69678 1.4038,1.69678 1.4038,4.66309 0,3.19824 -1.5991,5.15136 -1.5869,1.94092 -4.2114,1.94092 -2.3682,0 -3.6377,-1.9165 z m -0.049,-3.97949 q 0,1.3916 0.8057,2.31933 0.8057,0.91553 2.063,0.91553 1.4892,0 2.3315,-1.15967 0.8423,-1.15967 0.8423,-3.25928 0,-3.72314 -2.9419,-3.72314 -1.3916,0 -2.2461,1.0376 -0.8545,1.0376 -0.8545,2.6123 z M 1460.3528,213 v -18.98193 h 3.3935 V 213 Z m 18.0786,-5.45654 h -8.5693 q 0.2075,3.27148 3.7109,3.27148 2.1362,0 3.8086,-1.12305 v 2.5879 q -1.7822,1.03759 -4.5776,1.03759 -2.9908,0 -4.6631,-1.7334 -1.6602,-1.73339 -1.6602,-4.84619 0,-3.05175 1.7822,-4.95605 1.7945,-1.91651 4.48,-1.91651 2.6856,0 4.187,1.64795 1.5015,1.64795 1.5015,4.52881 z m -3.2105,-2.23389 q 0,-3.05176 -2.5146,-3.05176 -1.0498,0 -1.8555,0.83008 -0.7934,0.83008 -0.9887,2.22168 z m 24.939,-7.38525 h -6.5307 v 4.94384 h 6.018 v 2.85645 h -6.018 V 213 h -3.4791 v -17.96875 h 10.0098 z m 13.916,9.61914 h -8.5693 q 0.2075,3.27148 3.7109,3.27148 2.1363,0 3.8086,-1.12305 v 2.5879 q -1.7822,1.03759 -4.5776,1.03759 -2.9907,0 -4.6631,-1.7334 -1.6602,-1.73339 -1.6602,-4.84619 0,-3.05175 1.7823,-4.95605 1.7944,-1.91651 4.48,-1.91651 2.6855,0 4.187,1.64795 1.5014,1.64795 1.5014,4.52881 z m -3.2104,-2.23389 q 0,-3.05176 -2.5147,-3.05176 -1.0498,0 -1.8554,0.83008 -0.7935,0.83008 -0.9888,2.22168 z m 16.9555,2.23389 h -8.5693 q 0.2075,3.27148 3.7109,3.27148 2.1363,0 3.8086,-1.12305 v 2.5879 q -1.7822,1.03759 -4.5776,1.03759 -2.9907,0 -4.6631,-1.7334 -1.6601,-1.73339 -1.6601,-4.84619 0,-3.05175 1.7822,-4.95605 1.7944,-1.91651 4.48,-1.91651 2.6855,0 4.187,1.64795 1.5014,1.64795 1.5014,4.52881 z m -3.2104,-2.23389 q 0,-3.05176 -2.5147,-3.05176 -1.0498,0 -1.8554,0.83008 -0.7935,0.83008 -0.9888,2.22168 z M 1542.4817,213 h -3.3936 v -1.89209 h -0.061 q -1.3672,2.20947 -4.0894,2.20947 -2.4169,0 -3.8696,-1.7334 -1.4526,-1.73339 -1.4526,-4.71191 0,-3.16162 1.6235,-5.07812 1.6235,-1.92872 4.2236,-1.92872 2.5269,0 3.5645,1.86768 h 0.061 v -7.71484 h 3.3936 z m -3.3447,-7.33643 q 0,-1.35498 -0.8301,-2.24609 -0.8301,-0.90332 -2.0874,-0.90332 -1.4649,0 -2.3194,1.14746 -0.8422,1.14746 -0.8422,3.11279 0,1.84327 0.8178,2.86866 0.8179,1.01318 2.2095,1.01318 1.3428,0 2.1973,-1.06201 0.8545,-1.06201 0.8545,-2.70996 z m 18.0786,1.87989 h -8.5694 q 0.2076,3.27148 3.711,3.27148 2.1362,0 3.8086,-1.12305 v 2.5879 q -1.7823,1.03759 -4.5777,1.03759 -2.9907,0 -4.6631,-1.7334 -1.6601,-1.73339 -1.6601,-4.84619 0,-3.05175 1.7822,-4.95605 1.7945,-1.91651 4.48,-1.91651 2.6855,0 4.187,1.64795 1.5015,1.64795 1.5015,4.52881 z m -3.2105,-2.23389 q 0,-3.05176 -2.5146,-3.05176 -1.0498,0 -1.8555,0.83008 -0.7934,0.83008 -0.9888,2.22168 z m 13.6597,-2.00195 q -0.6714,-0.40283 -1.648,-0.40283 -1.2817,0 -2.0507,1.0498 -0.7691,1.0376 -0.7691,2.79541 V 213 h -3.4057 v -12.82959 h 3.4057 v 2.46582 h 0.037 q 0.94,-2.68555 3.3814,-2.68555 0.6958,0 1.0498,0.1709 z"
     id="text20"
     class="block-title-small"
     style="font-weight:800;font-size:25px;font-family:'Malgun Gothic', '맑은 고딕', Arial, sans-serif;text-anchor:middle;fill:#172638"
     aria-label="Sample Feeder" />
  <path
     d="m 1433.5132,358 h -3.7964 l -1.4526,-4.29688 h -6.7505 L 1420.0977,358 h -3.7964 l 6.6528,-17.96875 h 4.0161 z m -6.1157,-7.05566 -2.1973,-6.50635 q -0.1343,-0.39063 -0.2808,-1.48926 h -0.085 q -0.098,0.81787 -0.3052,1.46484 l -2.2095,6.53077 z M 1449.8706,358 h -4.1382 l -3.4057,-6.15234 q -0.1709,-0.31739 -0.3663,-1.11084 h -0.049 q -0.1953,0.62255 -0.415,1.14746 L 1438.042,358 h -4.1748 l 5.8105,-8.98438 -5.31,-8.98437 h 4.2358 l 2.8931,5.66406 q 0.3052,0.59815 0.5615,1.44043 h 0.049 q 0.1831,-0.51269 0.6104,-1.50146 l 3.1372,-5.60303 h 3.894 l -5.4565,8.91113 z m 5.7983,-17.96875 V 358 h -3.479 v -17.96875 z m 16.5406,0 V 358 h -3.479 V 340.03125 Z M 1492.1558,358 h -3.6377 l -7.9468,-12.17041 q -0.4883,-0.74463 -0.8057,-1.3916 h -0.049 q 0.098,0.85449 0.098,2.7832 V 358 h -3.3204 v -17.96875 h 3.8819 l 7.666,11.85303 q 0.5859,0.90332 0.8545,1.3916 h 0.049 q -0.098,-0.47608 -0.098,-2.51465 v -10.72998 h 3.3081 z m 16.3208,-15.07568 h -5.1392 V 358 h -3.4912 v -15.07568 h -5.127 v -2.89307 h 13.7574 z m 14.2334,14.40429 q -1.9532,0.98877 -5.0782,0.98877 -3.9917,0 -6.372,-2.4292 -2.3682,-2.4414 -2.3682,-6.49414 0,-4.24804 2.6489,-6.9458 2.649,-2.70996 6.7993,-2.70996 2.6123,0 4.3702,0.6958 v 3.39356 q -1.8311,-1.06202 -4.1504,-1.06202 -2.7222,0 -4.3701,1.77002 -1.6358,1.77002 -1.6358,4.61426 0,2.79541 1.5625,4.46778 1.5625,1.67236 4.1626,1.67236 2.4536,0 4.4312,-1.17188 z"
     id="text21"
     class="block-title-small"
     style="font-weight:800;font-size:25px;font-family:'Malgun Gothic', '맑은 고딕', Arial, sans-serif;text-anchor:middle;fill:#172638"
     aria-label="AXI INTC" />
  <path
     d="m 1417.8662,551 h -3.7964 l -1.4526,-4.29688 h -6.7505 L 1404.4507,551 h -3.7964 l 6.6528,-17.96875 h 4.0161 z m -6.1157,-7.05566 -2.1973,-6.50635 q -0.1343,-0.39063 -0.2807,-1.48926 h -0.086 q -0.098,0.81787 -0.3052,1.46484 l -2.2094,6.53077 z M 1434.2236,551 h -4.1382 l -3.4057,-6.15234 q -0.1709,-0.31739 -0.3662,-1.11084 h -0.049 q -0.1953,0.62255 -0.415,1.14746 L 1422.395,551 h -4.1748 l 5.8106,-8.98438 -5.3101,-8.98437 h 4.2358 l 2.8931,5.66406 q 0.3052,0.59815 0.5615,1.44043 h 0.049 q 0.1831,-0.51269 0.6103,-1.50146 l 3.1372,-5.60303 h 3.8941 l -5.4566,8.91113 z m 5.7984,-17.96875 V 551 h -3.479 v -17.96875 z m 27.2949,10.33936 q 0,7.94677 -7.3486,7.94677 -7.0679,0 -7.0679,-7.72705 v -10.55908 h 3.4912 v 10.55908 q 0,4.69971 3.7598,4.69971 3.6865,0 3.6865,-4.54102 v -10.71777 h 3.479 z M 1486.0181,551 h -3.7964 l -1.4527,-4.29688 h -6.7504 L 1472.6025,551 h -3.7963 l 6.6528,-17.96875 h 4.0161 z m -6.1158,-7.05566 -2.1972,-6.50635 q -0.1343,-0.39063 -0.2808,-1.48926 h -0.085 q -0.098,0.81787 -0.3052,1.46484 l -2.2095,6.53077 z M 1502.8027,551 h -4.0283 l -2.8564,-4.74854 q -0.8667,-1.44042 -1.4771,-1.89209 -0.6103,-0.45166 -1.3183,-0.45166 h -1.2696 V 551 h -3.479 v -17.96875 h 6.1035 q 6.2256,0 6.2256,4.8584 0,1.78222 -1.0498,3.10058 -1.0376,1.30616 -2.9663,1.85547 v 0.0488 q 1.2329,0.41504 2.7222,2.771 z m -10.9497,-15.25879 v 5.44434 h 2.0752 q 1.416,0 2.2583,-0.81787 0.8545,-0.83008 0.8545,-2.06299 0,-2.56348 -3.0517,-2.56348 z m 24.3531,0.18311 h -5.1392 V 551 h -3.4912 v -15.07568 h -5.127 v -2.89307 h 13.7574 z M 1529.0112,551 h -10.2783 v -17.96875 h 3.479 v 15.08789 h 6.7993 z m 1.8555,-17.05322 q 0,-0.78125 0.5493,-1.30616 0.5615,-0.5249 1.4404,-0.5249 0.8545,0 1.4283,0.5249 0.5737,0.5127 0.5737,1.30616 0,0.79345 -0.5737,1.31836 -0.5616,0.5249 -1.4283,0.5249 -0.8667,0 -1.4282,-0.53711 -0.5615,-0.53711 -0.5615,-1.30615 z M 1531.1353,551 v -12.82959 h 3.3935 V 551 Z m 14.1235,-0.13428 q -0.8667,0.43946 -2.417,0.43946 -3.9429,0 -3.9429,-4.17481 v -6.37207 h -2.124 v -2.58789 h 2.124 v -2.86865 l 3.3936,-0.98877 v 3.85742 h 2.9663 v 2.58789 h -2.9663 v 5.77393 q 0,2.12402 1.6723,2.12402 0.6958,0 1.294,-0.39063 z m 13.4521,-5.32226 h -8.5693 q 0.2075,3.27148 3.7109,3.27148 2.1363,0 3.8086,-1.12305 v 2.5879 q -1.7822,1.03759 -4.5776,1.03759 -2.9907,0 -4.6631,-1.7334 -1.6601,-1.73339 -1.6601,-4.84619 0,-3.05175 1.7822,-4.95605 1.7944,-1.91651 4.48,-1.91651 2.6855,0 4.187,1.64795 1.5014,1.64795 1.5014,4.52881 z m -3.2104,-2.23389 q 0,-3.05176 -2.5147,-3.05176 -1.0498,0 -1.8554,0.83008 -0.7935,0.83008 -0.9888,2.22168 z"
     id="text22"
     class="block-title-small"
     style="font-weight:800;font-size:25px;font-family:'Malgun Gothic', '맑은 고딕', Arial, sans-serif;text-anchor:middle;fill:#172638"
     aria-label="AXI UARTLite" />
  <path
     d="m 292.71753,490 v -12.91406 q 0,-1.41602 0.16992,-4.33301 h -0.085 q -0.354,1.78418 -0.65137,2.54883 L 286.62866,490 h -3.07275 l -5.59326,-14.5708 q -0.21241,-0.56641 -0.65137,-2.67627 h -0.0991 q 0.15576,2.30811 0.15576,5.01269 V 490 h -3.66748 v -20.84375 h 5.80566 l 4.8711,12.98486 q 0.60888,1.61426 0.80713,2.86035 h 0.0991 q 0.31152,-1.23193 0.87793,-2.88867 l 4.91357,-12.95654 h 5.63574 V 490 Z m 8.94922,0 v -20.84375 h 6.91015 q 11.07325,0 11.07325,10.16699 0,4.84278 -3.1294,7.75977 Q 313.40552,490 308.49194,490 Z m 4.03564,-17.48779 v 14.14599 h 2.54883 q 3.35596,0 5.25342,-1.93994 1.89746,-1.9541 1.89746,-5.33838 0,-3.32763 -1.89746,-5.09765 -1.89746,-1.77002 -5.2251,-1.77002 z M 342.3064,490 v -12.91406 q 0,-1.41602 0.16992,-4.33301 h -0.085 q -0.35401,1.78418 -0.65137,2.54883 L 336.21753,490 h -3.07275 l -5.59327,-14.5708 q -0.2124,-0.56641 -0.65136,-2.67627 h -0.0991 q 0.15576,2.30811 0.15576,5.01269 V 490 h -3.66748 v -20.84375 h 5.80566 l 4.87109,12.98486 q 0.60889,1.61426 0.80713,2.86035 h 0.0991 q 0.31153,-1.23193 0.87793,-2.88867 l 4.91358,-12.95654 h 5.63574 V 490 Z"
     id="text23"
     class="block-title"
     style="font-weight:800;font-size:29px;font-family:'Malgun Gothic', '맑은 고딕', Arial, sans-serif;text-anchor:middle;fill:#172638"
     aria-label="MDM" />
  <rect
     x="542"
     y="422"
     width="14"
     height="14"
     rx="2"
     fill="#2f74b8"
     id="rect23" />
  <path
     d="m 670.77368,490 v -12.91406 q 0,-1.41602 0.16992,-4.33301 h -0.085 q -0.354,1.78418 -0.65136,2.54883 L 664.68481,490 h -3.07275 l -5.59326,-14.5708 q -0.2124,-0.56641 -0.65137,-2.67627 h -0.0991 q 0.15576,2.30811 0.15576,5.01269 V 490 h -3.66748 v -20.84375 h 5.80567 l 4.87109,12.98486 q 0.60889,1.61426 0.80713,2.86035 h 0.0991 q 0.31152,-1.23193 0.87793,-2.88867 l 4.91357,-12.95654 h 5.63575 V 490 Z m 8.17041,-19.78174 q 0,-0.90625 0.63721,-1.51514 0.65137,-0.60888 1.6709,-0.60888 0.99121,0 1.65674,0.60888 0.66552,0.59473 0.66552,1.51514 0,0.92041 -0.66552,1.5293 -0.65137,0.60889 -1.65674,0.60889 -1.00537,0 -1.65674,-0.62305 -0.65137,-0.62305 -0.65137,-1.51514 z M 679.25562,490 v -14.88232 h 3.93652 V 490 Z m 18.9746,-0.58057 q -1.60009,0.94873 -4.37548,0.94873 -3.3418,0 -5.42334,-2.05322 -2.06739,-2.06738 -2.06739,-5.39502 0,-3.79492 2.22315,-5.97558 2.22314,-2.18067 5.9331,-2.18067 2.42139,0 3.70996,0.70801 v 3.46924 q -1.50097,-1.10449 -3.31347,-1.10449 -2.06738,0 -3.31348,1.30273 -1.24609,1.28857 -1.24609,3.49756 0,2.18066 1.17529,3.4126 1.17529,1.23193 3.22852,1.23193 1.79834,0 3.46923,-1.13281 z m 12.30518,-10.66259 q -0.77881,-0.46729 -1.91162,-0.46729 -1.48682,0 -2.37891,1.21777 -0.89209,1.20362 -0.89209,3.24268 V 490 h -3.95068 v -14.88232 h 3.95068 v 2.86035 h 0.0425 q 1.09034,-3.11524 3.92237,-3.11524 0.80713,0 1.21777,0.19825 z m 1.23193,3.89404 q 0,-3.65332 2.15235,-5.76318 2.15234,-2.12403 5.83398,-2.12403 3.5542,0 5.60742,2.08154 2.06739,2.06739 2.06739,5.55079 0,3.625 -2.13819,5.80566 -2.12402,2.1665 -5.76318,2.1665 -3.56836,0 -5.66406,-2.08154 -2.09571,-2.0957 -2.09571,-5.63574 z m 3.99317,-0.0566 q 0,4.68701 3.89404,4.68701 3.75244,0 3.75244,-4.80029 0,-4.64453 -3.7666,-4.64453 -1.84082,0 -2.86035,1.27441 -1.01953,1.26025 -1.01953,3.4834 z M 731.05347,490 v -20.84375 h 7.09424 q 3.21435,0 5.02685,1.28857 1.8125,1.27442 1.8125,3.56836 0,1.6709 -1.06201,2.95948 -1.06201,1.27441 -2.86035,1.82666 v 0.0425 q 2.20898,0.2832 3.51172,1.64257 1.30273,1.35938 1.30273,3.37012 0,2.80371 -2.01074,4.47461 Q 741.85767,490 738.48755,490 Z m 4.03564,-17.74268 v 5.46582 h 2.19483 q 1.62841,0 2.54882,-0.76464 0.92041,-0.77881 0.92041,-2.18067 0,-2.52051 -3.59668,-2.52051 z m 0,8.58106 v 6.06055 h 2.77539 q 1.78418,0 2.77539,-0.82129 0.99121,-0.82129 0.99121,-2.27979 0,-2.95947 -3.9082,-2.95947 z M 749.06519,490 v -22.01904 h 3.93652 V 490 Z m 8.36865,-13.93359 q 1.00537,-0.58057 2.60547,-0.93457 1.60009,-0.36817 2.87451,-0.36817 6.03222,0 6.03222,6.11719 V 490 h -3.7666 v -2.19482 h -0.0708 q -1.50097,2.56298 -4.46045,2.56298 -2.15234,0 -3.41259,-1.20361 -1.26026,-1.21777 -1.26026,-3.25684 0,-4.2622 5.06934,-4.94189 l 4.14892,-0.56641 q 0,-2.84619 -2.77539,-2.84619 -2.64795,0 -4.98437,1.65674 z m 4.80029,7.13671 q -2.54883,0.32569 -2.54883,2.27979 0,0.87793 0.60889,1.43018 0.60889,0.55224 1.64258,0.55224 1.41601,0 2.33642,-0.99121 0.92041,-1.00537 0.92041,-2.52051 V 482.8208 Z M 784.18237,490 h -13.01318 v -1.55762 l 7.84473,-10.32275 h -7.09424 v -3.00195 h 12.23437 v 1.82666 l -7.57568,10.05371 h 7.604 z m 15.61866,-6.32959 h -9.94043 q 0.24072,3.79492 4.30468,3.79492 2.47803,0 4.41797,-1.30273 v 3.00195 q -2.06738,1.20361 -5.31006,1.20361 -3.46923,0 -5.40918,-2.01074 -1.92578,-2.01074 -1.92578,-5.62158 0,-3.54004 2.06739,-5.74902 2.08154,-2.22315 5.19677,-2.22315 3.11524,0 4.85694,1.91162 1.7417,1.91162 1.7417,5.25342 z m -3.72413,-2.59131 q 0,-3.54004 -2.91699,-3.54004 -1.21777,0 -2.15234,0.96289 -0.92041,0.96289 -1.14697,2.57715 z"
     id="text24"
     class="block-title"
     style="font-weight:800;font-size:29px;font-family:'Malgun Gothic', '맑은 고딕', Arial, sans-serif;text-anchor:middle;fill:#172638"
     aria-label="MicroBlaze" />
  <path
     d="m 1106.958,470 h -10.2783 v -17.96875 h 3.479 v 15.08789 h 6.7993 z m 1.3916,-6.33545 q 0,-3.14941 1.8555,-4.96826 1.8554,-1.83106 5.0293,-1.83106 3.0639,0 4.834,1.79444 1.7822,1.78222 1.7822,4.78515 0,3.125 -1.8433,5.00489 -1.831,1.86767 -4.9682,1.86767 -3.0762,0 -4.8828,-1.79443 -1.8067,-1.80664 -1.8067,-4.8584 z m 3.4424,-0.0488 q 0,4.04053 3.3569,4.04053 3.2349,0 3.2349,-4.13818 0,-4.00391 -3.2471,-4.00391 -1.5869,0 -2.4658,1.09863 -0.8789,1.08643 -0.8789,3.00293 z m 22.2778,5.88379 q -1.3794,0.81787 -3.7719,0.81787 -2.8809,0 -4.6753,-1.77002 -1.7823,-1.78222 -1.7823,-4.65088 0,-3.27148 1.9165,-5.15136 1.9165,-1.87989 5.1148,-1.87989 2.0874,0 3.1982,0.61036 v 2.99072 q -1.2939,-0.95215 -2.8564,-0.95215 -1.7822,0 -2.8565,1.12305 -1.0742,1.11084 -1.0742,3.01513 0,1.87989 1.0132,2.9419 1.0132,1.06201 2.7832,1.06201 1.5503,0 2.9907,-0.97656 z m 3.0396,-11.51123 q 0.8667,-0.50049 2.2461,-0.80566 1.3794,-0.31739 2.478,-0.31739 5.2002,0 5.2002,5.27344 V 470 h -3.2471 v -1.89209 h -0.061 q -1.294,2.20947 -3.8452,2.20947 -1.8555,0 -2.9419,-1.03759 -1.0864,-1.04981 -1.0864,-2.80762 0,-3.67432 4.3701,-4.26026 l 3.5766,-0.48828 q 0,-2.45361 -2.3925,-2.45361 -2.2828,0 -4.2969,1.42822 z m 4.1382,6.15234 q -2.1973,0.28077 -2.1973,1.96534 0,0.75683 0.5249,1.23291 0.5249,0.47607 1.416,0.47607 1.2207,0 2.0142,-0.85449 0.7934,-0.8667 0.7934,-2.17285 v -0.97656 z m 9.082,5.85938 v -18.98193 h 3.3935 V 470 Z"
     id="text25"
     class="block-title-small"
     style="font-weight:800;font-size:25px;font-family:'Malgun Gothic', '맑은 고딕', Arial, sans-serif;text-anchor:middle;fill:#172638"
     aria-label="Local" />
  <path
     d="m 1093.1641,505 v -11.13281 q 0,-1.22071 0.1464,-3.73535 h -0.073 q -0.3052,1.53808 -0.5615,2.19726 L 1087.915,505 h -2.6489 l -4.8218,-12.56104 q -0.1831,-0.48828 -0.5615,-2.30712 h -0.085 q 0.1342,1.98974 0.1342,4.32128 V 505 h -3.1616 v -17.96875 h 5.0049 l 4.1992,11.19385 q 0.5249,1.3916 0.6958,2.46582 h 0.085 q 0.2685,-1.06201 0.7568,-2.49024 l 4.2358,-11.16943 h 4.8584 V 505 Z m 18.5302,-5.45654 h -8.5693 q 0.2075,3.27148 3.7109,3.27148 2.1363,0 3.8086,-1.12305 v 2.5879 q -1.7822,1.03759 -4.5776,1.03759 -2.9907,0 -4.6631,-1.7334 -1.6601,-1.73339 -1.6601,-4.84619 0,-3.05175 1.7822,-4.95605 1.7944,-1.91651 4.48,-1.91651 2.6855,0 4.187,1.64795 1.5014,1.64795 1.5014,4.52881 z m -3.2104,-2.23389 q 0,-3.05176 -2.5147,-3.05176 -1.0498,0 -1.8554,0.83008 -0.7935,0.83008 -0.9888,2.22168 z M 1134.0088,505 h -3.3936 v -7.32422 q 0,-3.16162 -2.2949,-3.16162 -1.062,0 -1.7822,0.96436 -0.708,0.95214 -0.708,2.29492 V 505 h -3.3936 v -7.4585 q 0,-3.02734 -2.2827,-3.02734 -1.0864,0 -1.7822,0.90332 -0.6958,0.89111 -0.6958,2.39258 V 505 h -3.4058 v -12.82959 h 3.4058 v 2.02637 h 0.037 q 1.4404,-2.33155 4.1138,-2.33155 2.7099,0 3.6865,2.46582 1.4648,-2.46582 4.2847,-2.46582 4.2114,0 4.2114,5.17579 z m 2.5635,-6.33545 q 0,-3.14941 1.8554,-4.96826 1.8555,-1.83106 5.0293,-1.83106 3.064,0 4.834,1.79444 1.7822,1.78222 1.7822,4.78515 0,3.125 -1.8432,5.00489 -1.8311,1.86767 -4.9683,1.86767 -3.0762,0 -4.8828,-1.79443 -1.8066,-1.80664 -1.8066,-4.8584 z m 3.4423,-0.0488 q 0,4.04053 3.357,4.04053 3.2348,0 3.2348,-4.13818 0,-4.00391 -3.247,-4.00391 -1.5869,0 -2.4658,1.09863 -0.879,1.08643 -0.879,3.00293 z m 20.7032,-3.3081 q -0.6714,-0.40283 -1.648,-0.40283 -1.2817,0 -2.0508,1.0498 -0.769,1.0376 -0.769,2.79541 V 505 h -3.4058 v -12.82959 h 3.4058 v 2.46582 h 0.037 q 0.94,-2.68555 3.3814,-2.68555 0.6958,0 1.0498,0.1709 z m 14.6728,-3.13721 -5.4077,14.16016 q -1.7944,4.6997 -5.3223,4.6997 -1.2207,0 -2.0629,-0.28076 v -2.77099 q 0.7324,0.39062 1.5869,0.39062 1.5258,0 2.185,-1.5625 l 0.7813,-1.83105 -5.1514,-12.80518 h 3.772 l 2.6977,8.41064 q 0.1221,0.40284 0.3296,1.50147 h 0.049 q 0.098,-0.63477 0.3662,-1.47705 l 2.7832,-8.43506 z"
     id="text26"
     class="block-title-small"
     style="font-weight:800;font-size:25px;font-family:'Malgun Gothic', '맑은 고딕', Arial, sans-serif;text-anchor:middle;fill:#172638"
     aria-label="Memory" />
  <path
     d="M 221.3855,741.62793 V 748 h -3.47901 v -17.96875 h 5.93262 q 6.56738,0 6.56738,5.62744 0,2.72217 -1.98974,4.38233 -1.97754,1.66015 -4.98047,1.58691 z m 0,-8.82568 v 6.10351 h 1.77002 q 3.60107,0 3.60107,-3.11279 0,-2.99072 -3.52783,-2.99072 z m 19.40918,5.50537 q -0.67139,-0.40283 -1.64795,-0.40283 -1.28174,0 -2.05078,1.0498 -0.76905,1.0376 -0.76905,2.79541 V 748 h -3.40576 v -12.82959 h 3.40576 v 2.46582 h 0.0366 q 0.93994,-2.68555 3.38134,-2.68555 0.6958,0 1.04981,0.1709 z m 1.06201,3.35693 q 0,-3.14941 1.85547,-4.96826 1.85547,-1.83106 5.0293,-1.83106 3.06396,0 4.83398,1.79444 1.78223,1.78222 1.78223,4.78515 0,3.125 -1.84327,5.00489 -1.83105,1.86767 -4.96826,1.86767 -3.07617,0 -4.88281,-1.79443 -1.80664,-1.80664 -1.80664,-4.8584 z m 3.44238,-0.0488 q 0,4.04053 3.35694,4.04053 3.23486,0 3.23486,-4.13818 0,-4.00391 -3.24707,-4.00391 -1.58692,0 -2.46582,1.09863 -0.87891,1.08643 -0.87891,3.00293 z m 22.27783,5.88379 q -1.37939,0.81787 -3.77197,0.81787 -2.88086,0 -4.67529,-1.77002 -1.78223,-1.78222 -1.78223,-4.65088 0,-3.27148 1.91651,-5.15136 1.9165,-1.87989 5.11474,-1.87989 2.0874,0 3.19824,0.61036 v 2.99072 q -1.29394,-0.95215 -2.85644,-0.95215 -1.78223,0 -2.85645,1.12305 -1.07422,1.11084 -1.07422,3.01513 0,1.87989 1.01319,2.9419 1.01318,1.06201 2.7832,1.06201 1.55029,0 2.99072,-0.97656 z m 13.90381,-4.95605 h -8.56933 q 0.20752,3.27148 3.71093,3.27148 2.13623,0 3.8086,-1.12305 v 2.5879 q -1.78223,1.03759 -4.57764,1.03759 -2.99072,0 -4.66308,-1.7334 -1.66016,-1.73339 -1.66016,-4.84619 0,-3.05175 1.78223,-4.95605 1.79443,-1.91651 4.47998,-1.91651 2.68554,0 4.18701,1.64795 1.50146,1.64795 1.50146,4.52881 z m -3.21045,-2.23389 q 0,-3.05176 -2.51464,-3.05176 -1.04981,0 -1.85547,0.83008 -0.79346,0.83008 -0.98877,2.22168 z m 5.35889,4.39453 q 1.9043,1.19629 3.75977,1.19629 2.39257,0 2.39257,-1.35498 0,-0.93994 -1.89209,-1.58691 -2.75878,-0.92774 -3.50341,-1.81885 -0.74463,-0.90332 -0.74463,-2.30713 0,-1.85547 1.51367,-2.90527 1.51367,-1.06202 3.89404,-1.06202 1.66016,0 3.32031,0.52491 v 2.77099 q -1.50146,-0.89111 -3.28369,-0.89111 -0.93994,0 -1.51367,0.354 -0.57373,0.35401 -0.57373,0.93994 0,0.96436 1.59912,1.52588 1.81885,0.65918 2.67334,1.11084 0.85449,0.43946 1.33057,1.2085 0.47607,0.76904 0.47607,1.80664 0,1.95313 -1.5625,3.02734 -1.55029,1.07422 -4.10156,1.07422 -2.14844,0 -3.78418,-0.68359 z m 11.54785,0 q 1.9043,1.19629 3.75977,1.19629 2.39258,0 2.39258,-1.35498 0,-0.93994 -1.89209,-1.58691 -2.75879,-0.92774 -3.50342,-1.81885 -0.74463,-0.90332 -0.74463,-2.30713 0,-1.85547 1.51367,-2.90527 1.51367,-1.06202 3.89404,-1.06202 1.66016,0 3.32032,0.52491 v 2.77099 q -1.50147,-0.89111 -3.2837,-0.89111 -0.93994,0 -1.51367,0.354 -0.57373,0.35401 -0.57373,0.93994 0,0.96436 1.59912,1.52588 1.81885,0.65918 2.67334,1.11084 0.8545,0.43946 1.33057,1.2085 0.47607,0.76904 0.47607,1.80664 0,1.95313 -1.5625,3.02734 -1.55029,1.07422 -4.10156,1.07422 -2.14844,0 -3.78418,-0.68359 z m 11.19385,-3.03955 q 0,-3.14941 1.85547,-4.96826 1.85547,-1.83106 5.0293,-1.83106 3.06396,0 4.83398,1.79444 1.78223,1.78222 1.78223,4.78515 0,3.125 -1.84327,5.00489 -1.83105,1.86767 -4.96826,1.86767 -3.07617,0 -4.88281,-1.79443 -1.80664,-1.80664 -1.80664,-4.8584 z m 3.44238,-0.0488 q 0,4.04053 3.35694,4.04053 3.23486,0 3.23486,-4.13818 0,-4.00391 -3.24707,-4.00391 -1.58692,0 -2.46582,1.09863 -0.87891,1.08643 -0.87891,3.00293 z m 20.70313,-3.3081 q -0.67139,-0.40283 -1.64795,-0.40283 -1.28174,0 -2.05078,1.0498 -0.76905,1.0376 -0.76905,2.79541 V 748 h -3.40576 v -12.82959 h 3.40576 v 2.46582 h 0.0366 q 0.93994,-2.68555 3.38134,-2.68555 0.6958,0 1.04981,0.1709 z m 10.27832,5.43213 q 2.13623,1.77002 4.89502,1.77002 1.66015,0 2.47802,-0.57373 0.81788,-0.58594 0.81788,-1.52588 0,-0.81787 -0.6836,-1.50147 -0.68359,-0.68359 -3.3081,-1.80664 -2.23389,-1.00098 -3.24707,-2.24609 -1.00098,-1.25733 -1.00098,-2.9419 0,-2.4292 1.87988,-3.79638 1.87989,-1.3794 4.93164,-1.3794 2.73438,0 4.30909,0.68359 v 3.33252 q -1.74561,-1.19628 -4.21143,-1.19628 -1.45264,0 -2.35596,0.54931 -0.89111,0.54932 -0.89111,1.51367 0,0.76905 0.62256,1.40381 0.62256,0.63477 2.91748,1.64795 2.63672,1.14746 3.66211,2.41699 1.02539,1.25733 1.02539,3.01514 0,2.53906 -1.81885,3.88184 -1.80664,1.33056 -5.07812,1.33056 -3.03956,0 -4.94385,-1.01318 z m 25.58594,-8.56934 -5.40772,14.16016 q -1.79443,4.6997 -5.32227,4.6997 -1.2207,0 -2.06298,-0.28076 v -2.77099 q 0.73242,0.39062 1.58691,0.39062 1.52588,0 2.18506,-1.5625 l 0.78125,-1.83105 -5.15137,-12.80518 h 3.77197 l 2.69776,8.41064 q 0.12207,0.40284 0.32959,1.50147 h 0.0488 q 0.0976,-0.63477 0.36621,-1.47705 l 2.7832,-8.43506 z m 1.33056,9.53369 q 1.9043,1.19629 3.75977,1.19629 2.39258,0 2.39258,-1.35498 0,-0.93994 -1.89209,-1.58691 -2.75879,-0.92774 -3.50342,-1.81885 -0.74463,-0.90332 -0.74463,-2.30713 0,-1.85547 1.51367,-2.90527 1.51367,-1.06202 3.89404,-1.06202 1.66016,0 3.32032,0.52491 v 2.77099 q -1.50147,-0.89111 -3.2837,-0.89111 -0.93994,0 -1.51367,0.354 -0.57373,0.35401 -0.57373,0.93994 0,0.96436 1.59912,1.52588 1.81885,0.65918 2.67334,1.11084 0.8545,0.43946 1.33057,1.2085 0.47607,0.76904 0.47607,1.80664 0,1.95313 -1.5625,3.02734 -1.55029,1.07422 -4.10156,1.07422 -2.14844,0 -3.78418,-0.68359 z m 19.18945,3.16162 q -0.86669,0.43946 -2.41699,0.43946 -3.94287,0 -3.94287,-4.17481 v -6.37207 h -2.12402 v -2.58789 h 2.12402 v -2.86865 l 3.39356,-0.98877 v 3.85742 h 2.9663 v 2.58789 h -2.9663 v 5.77393 q 0,2.12402 1.67236,2.12402 0.6958,0 1.29394,-0.39063 z m 13.45215,-5.32226 h -8.56933 q 0.20752,3.27148 3.71093,3.27148 2.13624,0 3.8086,-1.12305 v 2.5879 q -1.78223,1.03759 -4.57764,1.03759 -2.99072,0 -4.66308,-1.7334 -1.66016,-1.73339 -1.66016,-4.84619 0,-3.05175 1.78223,-4.95605 1.79443,-1.91651 4.47998,-1.91651 2.68554,0 4.18701,1.64795 1.50146,1.64795 1.50146,4.52881 z m -3.21045,-2.23389 q 0,-3.05176 -2.51464,-3.05176 -1.04981,0 -1.85547,0.83008 -0.79346,0.83008 -0.98877,2.22168 z M 422.66724,748 h -3.39356 v -7.32422 q 0,-3.16162 -2.29492,-3.16162 -1.06201,0 -1.78223,0.96436 -0.708,0.95214 -0.708,2.29492 V 748 h -3.39356 v -7.4585 q 0,-3.02734 -2.28271,-3.02734 -1.08643,0 -1.78223,0.90332 -0.6958,0.89111 -0.6958,2.39258 V 748 h -3.40576 v -12.82959 h 3.40576 v 2.02637 h 0.0366 q 1.44043,-2.33155 4.11377,-2.33155 2.70996,0 3.68652,2.46582 1.46485,-2.46582 4.28467,-2.46582 4.21143,0 4.21143,5.17579 z"
     id="text27"
     class="block-title-small"
     style="font-weight:800;font-size:25px;font-family:'Malgun Gothic', '맑은 고딕', Arial, sans-serif;text-anchor:middle;fill:#172638"
     aria-label="Processor System" />
  <path
     d="m 304.41162,785 h -4.02832 l -2.85644,-4.74854 q -0.8667,-1.44042 -1.47706,-1.89209 -0.61035,-0.45166 -1.31835,-0.45166 h -1.26954 V 785 h -3.479 v -17.96875 h 6.10352 q 6.22558,0 6.22558,4.8584 0,1.78222 -1.0498,3.10058 -1.0376,1.30616 -2.96631,1.85547 v 0.0488 q 1.23291,0.41504 2.72217,2.771 z m -10.94971,-15.25879 v 5.44434 h 2.0752 q 1.41601,0 2.2583,-0.81787 0.85449,-0.83008 0.85449,-2.06299 0,-2.56348 -3.05176,-2.56348 z m 22.99805,9.80225 h -8.56934 q 0.20752,3.27148 3.71094,3.27148 2.13623,0 3.8086,-1.12305 v 2.5879 q -1.78223,1.03759 -4.57764,1.03759 -2.99072,0 -4.66309,-1.7334 -1.66015,-1.73339 -1.66015,-4.84619 0,-3.05175 1.78222,-4.95605 1.79444,-1.91651 4.47998,-1.91651 2.68555,0 4.18702,1.64795 1.50146,1.64795 1.50146,4.52881 z m -3.21045,-2.23389 q 0,-3.05176 -2.51465,-3.05176 -1.0498,0 -1.85547,0.83008 -0.79345,0.83008 -0.98877,2.22168 z m 5.35889,4.39453 q 1.9043,1.19629 3.75976,1.19629 2.39258,0 2.39258,-1.35498 0,-0.93994 -1.89209,-1.58691 -2.75879,-0.92774 -3.50342,-1.81885 -0.74462,-0.90332 -0.74462,-2.30713 0,-1.85547 1.51367,-2.90527 1.51367,-1.06202 3.89404,-1.06202 1.66016,0 3.32031,0.52491 v 2.77099 q -1.50146,-0.89111 -3.28369,-0.89111 -0.93994,0 -1.51367,0.354 -0.57373,0.35401 -0.57373,0.93994 0,0.96436 1.59912,1.52588 1.81885,0.65918 2.67334,1.11084 0.85449,0.43946 1.33057,1.2085 0.47607,0.76904 0.47607,1.80664 0,1.95313 -1.5625,3.02734 -1.55029,1.07422 -4.10156,1.07422 -2.14844,0 -3.78418,-0.68359 z m 23.14453,-2.16064 h -8.56934 q 0.20752,3.27148 3.71094,3.27148 2.13623,0 3.80859,-1.12305 v 2.5879 q -1.78222,1.03759 -4.57763,1.03759 -2.99072,0 -4.66309,-1.7334 -1.66015,-1.73339 -1.66015,-4.84619 0,-3.05175 1.78222,-4.95605 1.79444,-1.91651 4.47998,-1.91651 2.68555,0 4.18701,1.64795 1.50147,1.64795 1.50147,4.52881 z m -3.21045,-2.23389 q 0,-3.05176 -2.51465,-3.05176 -1.0498,0 -1.85547,0.83008 -0.79345,0.83008 -0.98877,2.22168 z m 13.00049,7.55615 q -0.8667,0.43946 -2.41699,0.43946 -3.94287,0 -3.94287,-4.17481 v -6.37207 h -2.12403 v -2.58789 h 2.12403 v -2.86865 l 3.39355,-0.98877 v 3.85742 h 2.96631 v 2.58789 h -2.96631 v 5.77393 q 0,2.12402 1.67236,2.12402 0.6958,0 1.29395,-0.39063 z"
     id="text28"
     class="block-title-small"
     style="font-weight:800;font-size:25px;font-family:'Malgun Gothic', '맑은 고딕', Arial, sans-serif;text-anchor:middle;fill:#172638"
     aria-label="Reset" />
  <!-- Clock/reset plane is drawn first so functional wires remain legible at crossings -->
  <path
     d="m 150,720 h 30"
     class="clock"
     marker-end="url(#gray-arrow)"
     id="path28" />
  <path
     d="m 24.855469,726.46289 q -1.5625,0.79102 -4.0625,0.79102 -3.19336,0 -5.097656,-1.94336 -1.894532,-1.95313 -1.894532,-5.19532 0,-3.39843 2.119141,-5.55664 2.11914,-2.16797 5.439453,-2.16797 2.089844,0 3.496094,0.55665 v 2.71484 q -1.464844,-0.84961 -3.320313,-0.84961 -2.177734,0 -3.496094,1.41602 -1.308593,1.41601 -1.308593,3.6914 0,2.23633 1.25,3.57422 1.25,1.33789 3.330078,1.33789 1.96289,0 3.544922,-0.9375 z M 35.705078,727 h -8.222656 v -14.375 h 2.783203 v 12.07031 h 5.439453 z m 13.398438,0 h -3.583985 l -4.580078,-6.33789 q -0.15625,-0.22461 -0.380859,-0.70313 h -0.04883 V 727 h -2.783204 v -14.375 h 2.783204 v 6.79687 h 0.04883 q 0.117187,-0.27343 0.390625,-0.72265 l 4.375,-6.07422 h 3.349609 l -5.351562,6.86523 z M 63.869141,712.39062 V 727 h -2.72461 v -11.29883 q -0.458984,0.41992 -1.298828,0.78125 -0.839844,0.36133 -1.748047,0.46875 v -2.41211 q 2.148438,-0.64453 4.052735,-2.14844 z m 4.423828,7.66602 q 0,-3.75 1.33789,-5.70312 1.347657,-1.9629 3.90625,-1.9629 4.863282,0 4.863282,7.33399 0,3.61328 -1.328125,5.57617 -1.31836,1.95313 -3.828125,1.95313 -4.951172,0 -4.951172,-7.19727 z m 2.763672,-0.0684 q 0,5.13672 2.304687,5.13672 2.255859,0 2.255859,-5.27344 0,-5.34179 -2.207031,-5.34179 -2.353515,0 -2.353515,5.47851 z m 8.828125,0.0684 q 0,-3.75 1.33789,-5.70312 1.347656,-1.9629 3.90625,-1.9629 4.863281,0 4.863281,7.33399 0,3.61328 -1.328125,5.57617 -1.318359,1.95313 -3.828125,1.95313 -4.951171,0 -4.951171,-7.19727 z m 2.763671,-0.0684 q 0,5.13672 2.304688,5.13672 2.255859,0 2.255859,-5.27344 0,-5.34179 -2.207031,-5.34179 -2.353516,0 -2.353516,5.47851 z M 112.58008,727 v -8.90625 q 0,-0.97656 0.11719,-2.98828 h -0.0586 q -0.24414,1.23047 -0.44922,1.75781 L 108.38086,727 h -2.11914 l -3.85742,-10.04883 q -0.14649,-0.39062 -0.44922,-1.8457 h -0.0684 q 0.10742,1.5918 0.10742,3.45703 V 727 h -2.529296 v -14.375 h 4.003906 l 3.35938,8.95508 q 0.41992,1.11328 0.55664,1.97265 h 0.0684 q 0.21484,-0.84961 0.60546,-1.99218 l 3.38868,-8.93555 h 3.88671 V 727 Z m 18.125,0 h -2.7832 v -6.05469 h -6.38672 V 727 h -2.78321 v -14.375 h 2.78321 v 5.9082 h 6.38672 v -5.9082 h 2.7832 z m 10.98633,0 h -8.97461 v -1.07422 l 5.41015,-7.11914 h -4.89258 v -2.07031 h 8.4375 v 1.25976 l -5.2246,6.9336 h 5.24414 z"
     id="text29"
     class="io-label"
     style="font-weight:800;font-size:20px;font-family:'Malgun Gothic', '맑은 고딕', Arial, sans-serif;fill:#44596e"
     aria-label="CLK 100 MHz" />
  <path
     d="m 150,780 h 30"
     class="clock"
     marker-end="url(#gray-arrow)"
     id="path29" />
  <path
     d="m 32.855469,786.46289 q -1.5625,0.79102 -4.0625,0.79102 -3.19336,0 -5.097657,-1.94336 -1.894531,-1.95313 -1.894531,-5.19532 0,-3.39843 2.119141,-5.55664 2.11914,-2.16797 5.439453,-2.16797 2.089844,0 3.496094,0.55665 v 2.71484 q -1.464844,-0.84961 -3.320313,-0.84961 -2.177734,0 -3.496094,1.41602 -1.308593,1.41601 -1.308593,3.6914 0,2.23633 1.25,3.57422 1.25,1.33789 3.330078,1.33789 1.96289,0 3.544922,-0.9375 z m 5.410156,-4.56055 V 787 h -2.783203 v -14.375 h 4.746094 q 5.253906,0 5.253906,4.50195 0,2.17774 -1.591797,3.50586 -1.582031,1.32813 -3.984375,1.26953 z m 0,-7.06054 v 4.88281 h 1.416016 q 2.880859,0 2.880859,-2.49024 0,-2.39257 -2.822266,-2.39257 z m 20.888672,6.05468 q 0,6.35743 -5.878906,6.35743 -5.654297,0 -5.654297,-6.18164 V 772.625 h 2.792968 v 8.44727 q 0,3.75976 3.007813,3.75976 2.949219,0 2.949219,-3.63281 V 772.625 h 2.783203 z M 80.970703,787 h -3.222656 l -2.285156,-3.79883 q -0.69336,-1.15234 -1.181641,-1.51367 -0.488281,-0.36133 -1.054688,-0.36133 H 72.210937 V 787 h -2.783203 v -14.375 h 4.882813 q 4.980469,0 4.980469,3.88672 0,1.42578 -0.839844,2.48047 -0.830078,1.04492 -2.373047,1.48437 v 0.0391 q 0.986328,0.33204 2.177734,2.2168 z m -8.759766,-12.20703 v 4.35547 h 1.660157 q 1.132812,0 1.80664,-0.6543 0.683594,-0.66406 0.683594,-1.65039 0,-2.05078 -2.441406,-2.05078 z M 90.824219,787 h -8.320313 v -14.375 h 7.998047 v 2.31445 h -5.214844 v 3.66211 h 4.84375 v 2.30469 h -4.84375 v 3.78906 h 5.53711 z m 1.787109,-3.4082 q 1.708984,1.41601 3.916016,1.41601 1.328125,0 1.982422,-0.45898 0.654296,-0.46875 0.654296,-1.22071 0,-0.65429 -0.546875,-1.20117 -0.546875,-0.54687 -2.646484,-1.44531 -1.787109,-0.80078 -2.597656,-1.79687 -0.800781,-1.00586 -0.800781,-2.35352 0,-1.94336 1.503906,-3.03711 1.503906,-1.10352 3.945312,-1.10352 2.187496,0 3.447266,0.54688 v 2.66602 q -1.39648,-0.95704 -3.369141,-0.95704 -1.162109,0 -1.884765,0.43946 -0.712891,0.43945 -0.712891,1.21093 0,0.61524 0.498047,1.12305 0.498047,0.50781 2.333984,1.31836 2.109376,0.91797 2.929686,1.93359 0.82031,1.00586 0.82031,2.41211 0,2.03125 -1.45507,3.10547 -1.445316,1.06446 -4.062504,1.06446 -2.43164,0 -3.955078,-0.81055 z M 112.91406,787 h -8.32031 v -14.375 h 7.99805 v 2.31445 h -5.21485 v 3.66211 h 4.84375 v 2.30469 h -4.84375 v 3.78906 h 5.53711 z m 12.23633,-12.06055 h -4.11133 V 787 h -2.79297 v -12.06055 h -4.10156 V 772.625 h 11.00586 z M 139.70117,787 h -2.91015 l -6.35743,-9.73633 q -0.39062,-0.5957 -0.64453,-1.11328 H 129.75 q 0.0781,0.68359 0.0781,2.22656 V 787 h -2.65624 v -14.375 h 3.10546 l 6.13282,9.48242 q 0.46875,0.72266 0.68359,1.11328 h 0.0391 q -0.0781,-0.38086 -0.0781,-2.01172 V 772.625 h 2.64648 z"
     id="text30"
     class="io-label"
     style="font-weight:800;font-size:20px;font-family:'Malgun Gothic', '맑은 고딕', Arial, sans-serif;fill:#44596e"
     aria-label="CPU RESETN" />
  <path
     d="M460 750 H490 V790 H1930"
     class="clock"
     id="path30" />
  <path
     d="M790 790 V550"
     class="clock"
     marker-end="url(#gray-arrow)"
     id="path31" />
  <path
     d="M1260 790 V360"
     class="clock"
     marker-end="url(#gray-arrow)"
     id="path32" />
  <path
     d="M 1929.9438,789.98069 V 170.9623 h -99.8876"
     class="clock"
     marker-end="url(#gray-arrow)"
     id="path33" />
  <!-- Debug and local memory -->
  <path
     d="M400 480 H520"
     class="local"
     marker-end="url(#purple-arrow)"
     id="path34" />
  <path
     d="M930 450 H1040"
     class="local"
     marker-end="url(#purple-arrow)"
     id="path35" />
  <path
     d="M1040 510 H930"
     class="local"
     marker-end="url(#purple-arrow)"
     id="path36" />
  <!-- AXI-Lite control plane -->
  <path
     d="M930 535 H970 V245 H1000"
     class="control"
     marker-end="url(#blue-arrow)"
     id="path37" />
  <path
     d="M1280 185 H1370"
     class="control"
     marker-end="url(#blue-arrow)"
     id="path38" />
  <path
     d="M1280 155 H1320 V110 H1640"
     class="control"
     marker-end="url(#blue-arrow)"
     id="path39" />
  <path
     d="M1280 305 H1370"
     class="control"
     marker-end="url(#blue-arrow)"
     id="path40" />
  <path
     d="M1280 340 H1320 V535 H1370"
     class="control"
     marker-end="url(#blue-arrow)"
     id="path41" />
  <!-- AXI-Stream data plane -->
  <path
     d="M1590 205 H1615 V155 H1640"
     class="stream"
     marker-end="url(#green-arrow)"
     id="path42" />
  <!-- IRQ plane uses separate upper and middle routing lanes -->
  <path
     d="M1830 125 H1880 V18 H1030 V70 H1055"
     class="irq"
     marker-end="url(#orange-arrow)"
     id="path43" />
  <path
     d="M1225 70 H1340 V350 H1370"
     class="irq"
     marker-end="url(#orange-arrow)"
     id="path44" />
  <path
     d="M1570 350 H1620 V435 H1345 V380 H480 V430 H520"
     class="irq"
     marker-end="url(#orange-arrow)"
     id="path45" />
  <!-- UART uses a dedicated lower routing lane -->
  <path
     d="M 149.47955,620.22517 H 1315.875 v -58.71598 h 49.8459"
     class="uart"
     marker-end="url(#gray-arrow)"
     id="path46" />
  <path
     d="M1590 540 H1785"
     class="uart"
     marker-end="url(#gray-arrow)"
     id="path47" />
  <!-- Wire labels: opaque backgrounds keep text clear -->
  <g
     id="wire-labels"
     inkscape:groupmode="layer">
    <rect
       x="410"
       y="440"
       width="96"
       height="34"
       rx="16"
       class="label-bg"
       stroke="#ffffff"
       id="rect47" />
    <path
       d="m 424.36206,467 v -15.09375 h 5.00391 q 8.01855,0 8.01855,7.3623 0,3.50684 -2.26611,5.61915 Q 432.86255,467 429.30444,467 Z m 2.92236,-12.66357 v 10.24365 h 1.84571 q 2.43017,0 3.8042,-1.40479 1.37402,-1.41504 1.37402,-3.86572 0,-2.40967 -1.37402,-3.69141 -1.37403,-1.28173 -3.7837,-1.28173 z M 448.7561,467 h -8.73632 v -15.09375 h 8.39794 v 2.43018 h -5.47558 v 3.84521 h 5.08594 v 2.41992 h -5.08594 v 3.97852 h 5.81396 z m 2.57373,0 v -15.09375 h 5.13721 q 2.32764,0 3.64014,0.93311 1.3125,0.92285 1.3125,2.58398 0,1.20996 -0.76905,2.14307 -0.76904,0.92285 -2.07128,1.32275 v 0.0308 q 1.59961,0.20508 2.54296,1.18945 0.94336,0.98438 0.94336,2.44043 0,2.03028 -1.45605,3.24024 Q 459.15356,467 456.71313,467 Z m 2.92237,-12.84814 v 3.958 h 1.58935 q 1.1792,0 1.84571,-0.55371 0.6665,-0.56396 0.6665,-1.5791 0,-1.82519 -2.60449,-1.82519 z m 0,6.21386 v 4.38867 h 2.00976 q 1.292,0 2.00977,-0.59472 0.71777,-0.59473 0.71777,-1.65088 0,-2.14307 -2.83008,-2.14307 z m 22.40478,0.22559 q 0,6.67529 -6.17285,6.67529 -5.93701,0 -5.93701,-6.49072 v -8.86963 h 2.93262 v 8.86963 q 0,3.94775 3.1582,3.94775 3.09668,0 3.09668,-3.81445 v -9.00293 h 2.92236 z m 15.47315,5.3833 q -2.2251,1.29199 -5.37305,1.29199 -3.50684,0 -5.57812,-2.03027 -2.07129,-2.04053 -2.07129,-5.54737 0,-3.52734 2.25586,-5.77294 2.25585,-2.25586 5.96777,-2.25586 2.41992,0 4.2041,0.69726 v 2.84033 q -1.74316,-1.05615 -4.28613,-1.05615 -2.24561,0 -3.66065,1.48682 -1.40478,1.47656 -1.40478,3.90674 0,2.48144 1.27148,3.86572 1.27149,1.37402 3.48633,1.37402 1.35352,0 2.25586,-0.44092 v -3.33252 h -3.09668 v -2.3789 h 6.0293 z"
       id="text47"
       class="wire-label"
       style="font-weight:800;font-size:21px;font-family:'Malgun Gothic', '맑은 고딕', Arial, sans-serif;text-anchor:middle;fill:#172638"
       aria-label="DEBUG" />
    <rect
       x="923.10187"
       y="461.10184"
       width="123.63387"
       height="36.058807"
       rx="18.31613"
       class="label-bg"
       stroke="#ffffff"
       id="rect48" />
    <path
       d="M 929.62378,472.90625 V 488 h -2.92236 V 472.90625 Z M 941.85669,488 h -8.63379 v -15.09375 h 2.92236 v 12.67383 h 5.71143 z m 15.89355,0 v -9.35156 q 0,-1.02539 0.12305,-3.1377 h -0.0615 q -0.25635,1.29199 -0.47168,1.84571 L 953.34106,488 h -2.22509 l -4.0503,-10.55127 q -0.1538,-0.41016 -0.47168,-1.93799 h -0.0718 q 0.11279,1.67139 0.11279,3.62988 V 488 h -2.65576 v -15.09375 h 4.2041 l 3.52734,9.40283 q 0.44092,1.16895 0.58448,2.07129 h 0.0718 q 0.22559,-0.89209 0.63575,-2.0918 l 3.5581,-9.38232 h 4.08106 V 488 Z m 6.48047,0 v -15.09375 h 5.13721 q 2.32764,0 3.64014,0.93311 1.3125,0.92285 1.3125,2.58398 0,1.20996 -0.76905,2.14307 -0.76904,0.92285 -2.07129,1.32275 v 0.0308 q 1.59961,0.20508 2.54297,1.18945 0.94336,0.98438 0.94336,2.44043 0,2.03028 -1.45605,3.24024 Q 972.05444,488 969.61401,488 Z m 2.92237,-12.84814 v 3.958 h 1.58935 q 1.1792,0 1.8457,-0.55371 0.66651,-0.56396 0.66651,-1.5791 0,-1.82519 -2.60449,-1.82519 z m 0,6.21386 v 4.38867 h 2.00976 q 1.29199,0 2.00977,-0.59472 0.71777,-0.59473 0.71777,-1.65088 0,-2.14307 -2.83008,-2.14307 z m 18.10839,-8.45947 -7.32128,17.5957 h -2.57373 l 7.30078,-17.5957 z M 986.83032,488 v -15.09375 h 5.00391 q 8.01855,0 8.01855,7.3623 0,3.50684 -2.26611,5.61915 Q 995.33081,488 991.77271,488 Z m 2.92237,-12.66357 v 10.24365 h 1.8457 q 2.43017,0 3.8042,-1.40479 1.37402,-1.41504 1.37402,-3.86572 0,-2.40967 -1.37402,-3.69141 -1.37403,-1.28173 -3.78369,-1.28173 z M 1011.1218,488 h -8.6338 v -15.09375 h 2.9224 v 12.67383 h 5.7114 z m 15.8936,0 v -9.35156 q 0,-1.02539 0.123,-3.1377 h -0.062 q -0.2563,1.29199 -0.4717,1.84571 L 1022.6062,488 h -2.2251 l -4.0503,-10.55127 q -0.1538,-0.41016 -0.4717,-1.93799 h -0.072 q 0.1127,1.67139 0.1127,3.62988 V 488 h -2.6557 v -15.09375 h 4.2041 l 3.5273,9.40283 q 0.4409,1.16895 0.5845,2.07129 h 0.072 q 0.2256,-0.89209 0.6357,-2.0918 l 3.5581,-9.38232 h 4.0811 V 488 Z m 6.4804,0 v -15.09375 h 5.1373 q 2.3276,0 3.6401,0.93311 1.3125,0.92285 1.3125,2.58398 0,1.20996 -0.769,2.14307 -0.7691,0.92285 -2.0713,1.32275 v 0.0308 q 1.5996,0.20508 2.5429,1.18945 0.9434,0.98438 0.9434,2.44043 0,2.03028 -1.4561,3.24024 Q 1041.3196,488 1038.8792,488 Z m 2.9224,-12.84814 v 3.958 h 1.5894 q 1.1792,0 1.8457,-0.55371 0.6665,-0.56396 0.6665,-1.5791 0,-1.82519 -2.6045,-1.82519 z m 0,6.21386 v 4.38867 h 2.0098 q 1.292,0 2.0097,-0.59472 0.7178,-0.59473 0.7178,-1.65088 0,-2.14307 -2.8301,-2.14307 z"
       id="text48"
       class="wire-label"
       style="font-weight:800;font-size:21px;font-family:'Malgun Gothic', '맑은 고딕', Arial, sans-serif;text-anchor:middle;fill:#172638"
       aria-label="ILMB/DLMB" />
    <rect
       x="918"
       y="272"
       width="105"
       height="34"
       rx="17"
       class="label-bg"
       stroke="#bfd0e0"
       id="rect49" />
    <path
       d="m 945.72412,297 h -3.18896 l -1.22022,-3.60938 h -5.67041 L 934.45508,297 h -3.18897 l 5.58838,-15.09375 h 3.37354 z m -5.13721,-5.92676 -1.8457,-5.46533 q -0.11279,-0.32812 -0.23584,-1.25098 h -0.0718 q -0.082,0.68702 -0.25634,1.23047 l -1.85596,5.48584 z M 959.46436,297 h -3.47608 l -2.86084,-5.16797 q -0.14355,-0.2666 -0.30762,-0.9331 h -0.041 q -0.16406,0.52294 -0.34863,0.96386 L 949.52832,297 h -3.50684 l 4.88086,-7.54688 -4.46045,-7.54687 H 950 l 2.43018,4.75781 q 0.25634,0.50244 0.47168,1.20996 h 0.041 q 0.15381,-0.43066 0.5127,-1.26123 l 2.63525,-4.70654 h 3.271 l -4.5835,7.48535 z m 4.8706,-15.09375 V 297 h -2.92236 v -15.09375 z m 9.06445,10.29492 h -5.75244 v -2.05078 h 5.75244 z M 985.25293,297 h -8.63379 v -15.09375 h 2.92236 v 12.67383 h 5.71143 z m 1.55859,-14.32471 q 0,-0.65625 0.46143,-1.09717 0.47168,-0.44091 1.20996,-0.44091 0.71777,0 1.19971,0.44091 0.48193,0.43067 0.48193,1.09717 0,0.66651 -0.48193,1.10742 -0.47168,0.44092 -1.19971,0.44092 -0.72803,0 -1.19971,-0.45117 -0.47168,-0.45117 -0.47168,-1.09717 z M 987.03711,297 v -10.77686 h 2.85059 V 297 Z m 11.86377,-0.11279 q -0.72803,0.36914 -2.03027,0.36914 -3.31202,0 -3.31202,-3.50684 v -5.35254 h -1.78418 v -2.17383 h 1.78418 v -2.40966 l 2.85059,-0.83057 v 3.24023 h 2.4917 v 2.17383 h -2.4917 v 4.8501 q 0,1.78418 1.40478,1.78418 0.58448,0 1.08692,-0.32813 z m 11.29982,-4.47071 h -7.1983 q 0.1744,2.74805 3.1172,2.74805 1.7945,0 3.1992,-0.94336 v 2.17383 q -1.497,0.87158 -3.8452,0.87158 -2.5122,0 -3.917,-1.45605 -1.3945,-1.45606 -1.3945,-4.0708 0,-2.56348 1.4971,-4.16309 1.5073,-1.60986 3.7632,-1.60986 2.2558,0 3.5171,1.38427 1.2612,1.38428 1.2612,3.8042 z m -2.6968,-1.87646 q 0,-2.56348 -2.1123,-2.56348 -0.8818,0 -1.5586,0.69727 -0.6665,0.69726 -0.8306,1.86621 z"
       id="text49"
       class="wire-label"
       style="font-weight:800;font-size:21px;font-family:'Malgun Gothic', '맑은 고딕', Arial, sans-serif;text-anchor:middle;fill:#172638"
       aria-label="AXI-Lite" />
    <rect
       x="1587.7893"
       y="171.78935"
       width="55.108742"
       height="25.371254"
       rx="14.194676"
       class="label-bg"
       stroke="#a7d1ba"
       id="rect50" />
    <path
       d="m 1606.1458,191 h -3.189 l -1.2202,-3.60938 h -5.6704 L 1594.8767,191 h -3.189 l 5.5884,-15.09375 h 3.3736 z m -5.1373,-5.92676 -1.8457,-5.46533 q -0.1128,-0.32812 -0.2358,-1.25098 h -0.072 q -0.082,0.68702 -0.2563,1.23047 l -1.856,5.48584 z M 1619.886,191 h -3.4761 l -2.8608,-5.16797 q -0.1436,-0.2666 -0.3076,-0.9331 h -0.041 q -0.164,0.52294 -0.3486,0.96386 L 1609.95,191 h -3.5069 l 4.8809,-7.54688 -4.4605,-7.54687 h 3.5581 l 2.4302,4.75781 q 0.2564,0.50244 0.4717,1.20996 h 0.041 q 0.1538,-0.43066 0.5127,-1.26123 l 2.6353,-4.70654 h 3.2709 l -4.5834,7.48535 z m 4.8706,-15.09375 V 191 h -2.9224 v -15.09375 z m 2.9018,11.51514 q 1.7945,1.48681 4.1119,1.48681 1.3945,0 2.0815,-0.48193 0.687,-0.49219 0.687,-1.28174 0,-0.68701 -0.5742,-1.26123 -0.5742,-0.57422 -2.7788,-1.51758 -1.8765,-0.84082 -2.7275,-1.88672 -0.8409,-1.05615 -0.8409,-2.47119 0,-2.04052 1.5791,-3.18896 1.5791,-1.15869 4.1426,-1.15869 2.2969,0 3.6196,0.57421 v 2.79932 q -1.4663,-1.00488 -3.5376,-1.00488 -1.2202,0 -1.979,0.46142 -0.7485,0.46143 -0.7485,1.27149 0,0.64599 0.523,1.1792 0.5229,0.5332 2.4506,1.38428 2.2149,0.96386 3.0762,2.03027 0.8613,1.05615 0.8613,2.53271 0,2.13282 -1.5278,3.26075 -1.5176,1.11767 -4.2656,1.11767 -2.5532,0 -4.1529,-0.85107 z"
       id="text50"
       class="wire-label"
       style="font-weight:800;font-size:21px;font-family:'Malgun Gothic', '맑은 고딕', Arial, sans-serif;text-anchor:middle;fill:#172638"
       aria-label="AXIS" />
    <rect
       x="1430"
       y="3"
       width="64"
       height="31"
       rx="15"
       class="label-bg"
       stroke="#ffffff"
       id="rect51" />
    <path
       d="M 1448.552,11.90625 V 27 h -2.9224 V 11.90625 Z M 1464.2712,27 h -3.3837 l -2.3995,-3.98877 q -0.728,-1.20996 -1.2407,-1.589355 -0.5127,-0.379395 -1.1074,-0.379395 h -1.0664 V 27 h -2.9224 V 11.90625 h 5.127 q 5.2295,0 5.2295,4.081055 0,1.49707 -0.8819,2.604492 -0.8715,1.097168 -2.4917,1.558594 v 0.04102 q 1.0357,0.348633 2.2867,2.327637 z m -9.1977,-12.817383 v 4.573242 h 1.7432 q 1.1894,0 1.8969,-0.687011 0.7178,-0.697266 0.7178,-1.732911 0,-2.15332 -2.5635,-2.15332 z m 9.6182,5.465332 q 0,-3.558105 2.0405,-5.772949 2.0508,-2.214844 5.4448,-2.214844 3.2197,0 5.1782,2.153321 1.9688,2.143066 1.9688,5.506347 0,3.845215 -2.3482,6.070313 l 3.794,3.640136 h -4.481 l -2.0405,-2.071289 q -1.0664,0.307618 -2.3071,0.307618 -3.2403,0 -5.25,-2.143067 -1.9995,-2.143066 -1.9995,-5.475586 z m 3.0761,-0.164062 q 0,2.296875 1.128,3.773437 1.1381,1.466309 3.0864,1.466309 2.02,0 3.1377,-1.394531 1.1279,-1.404786 1.1279,-3.8042 0,-2.471191 -1.0869,-3.896484 -1.0869,-1.425293 -3.0762,-1.425293 -2.0097,0 -3.1684,1.49707 -1.1485,1.486817 -1.1485,3.783692 z"
       id="text51"
       class="wire-label"
       style="font-weight:800;font-size:21px;font-family:'Malgun Gothic', '맑은 고딕', Arial, sans-serif;text-anchor:middle;fill:#172638"
       aria-label="IRQ" />
    <rect
       x="805"
       y="363"
       width="64"
       height="32"
       rx="16"
       class="label-bg"
       stroke="#ffffff"
       id="rect52" />
    <path
       d="M 823.552,371.90625 V 387 h -2.92236 V 371.90625 Z M 839.27124,387 h -3.38379 l -2.39941,-3.98877 q -0.72803,-1.20996 -1.24073,-1.58936 -0.51269,-0.37939 -1.10742,-0.37939 h -1.0664 V 387 h -2.92237 v -15.09375 h 5.12696 q 5.22949,0 5.22949,4.08105 0,1.49707 -0.88184,2.6045 -0.87158,1.09716 -2.4917,1.55859 v 0.041 q 1.03565,0.34863 2.28662,2.32763 z m -9.19775,-12.81738 v 4.57324 h 1.74316 q 1.18945,0 1.89697,-0.68701 0.71778,-0.69727 0.71778,-1.73291 0,-2.15332 -2.56348,-2.15332 z m 9.61816,5.46533 q 0,-3.55811 2.04053,-5.77295 2.05078,-2.21484 5.44482,-2.21484 3.21973,0 5.17822,2.15332 1.96875,2.14306 1.96875,5.50634 0,3.84522 -2.34814,6.07032 l 3.79395,3.64013 h -4.48096 l -2.04053,-2.07129 q -1.06641,0.30762 -2.30713,0.30762 -3.24023,0 -5.25,-2.14306 -1.99951,-2.14307 -1.99951,-5.47559 z m 3.07617,-0.16406 q 0,2.29687 1.12793,3.77343 1.13819,1.46631 3.08643,1.46631 2.02002,0 3.13769,-1.39453 1.12793,-1.40478 1.12793,-3.8042 0,-2.47119 -1.08691,-3.89648 -1.08692,-1.4253 -3.07617,-1.4253 -2.00977,0 -3.16846,1.49708 -1.14844,1.48681 -1.14844,3.78369 z"
       id="text52"
       class="wire-label"
       style="font-weight:800;font-size:21px;font-family:'Malgun Gothic', '맑은 고딕', Arial, sans-serif;text-anchor:middle;fill:#172638"
       aria-label="IRQ" />
    <rect
       x="845"
       y="603"
       width="78"
       height="33"
       rx="16"
       class="label-bg"
       stroke="#ffffff"
       id="rect53" />
    <path
       d="m 870.17261,620.59131 q 0,6.67529 -6.17285,6.67529 -5.93702,0 -5.93702,-6.49072 v -8.86963 h 2.93262 v 8.86963 q 0,3.94775 3.1582,3.94775 3.09668,0 3.09668,-3.81445 v -9.00293 h 2.92237 z M 885.88159,627 h -3.18896 l -1.22022,-3.60938 H 875.802 L 874.61255,627 h -3.18897 l 5.58838,-15.09375 h 3.37354 z m -5.13721,-5.92676 -1.8457,-5.46533 q -0.11279,-0.32812 -0.23584,-1.25098 h -0.0718 q -0.082,0.68702 -0.25634,1.23047 l -1.85596,5.48584 z M 899.98071,627 h -3.38379 l -2.39941,-3.98877 q -0.72803,-1.20996 -1.24072,-1.58936 -0.5127,-0.37939 -1.10742,-0.37939 h -1.06641 V 627 h -2.92236 v -15.09375 h 5.12695 q 5.22949,0 5.22949,4.08105 0,1.49707 -0.88183,2.6045 -0.87159,1.09716 -2.4917,1.55859 v 0.041 q 1.03564,0.34863 2.28662,2.32763 z m -9.19775,-12.81738 v 4.57324 h 1.74316 q 1.18946,0 1.89698,-0.68701 0.71777,-0.69727 0.71777,-1.73291 0,-2.15332 -2.56348,-2.15332 z m 20.45654,0.15381 h -4.31689 V 627 h -2.93262 v -12.66357 h -4.30664 v -2.43018 h 11.55615 z"
       id="text53"
       class="wire-label"
       style="font-weight:800;font-size:21px;font-family:'Malgun Gothic', '맑은 고딕', Arial, sans-serif;text-anchor:middle;fill:#172638"
       aria-label="UART" />
    <rect
       x="1010"
       y="771"
       width="150"
       height="35"
       rx="17"
       class="label-bg"
       stroke="#c5ced8"
       id="rect54" />
    <path
       d="m 1031.408,796.43604 q -1.6407,0.83056 -4.2657,0.83056 -3.353,0 -5.3525,-2.04053 -1.9893,-2.05078 -1.9893,-5.45507 0,-3.56836 2.2251,-5.83448 2.2251,-2.27636 5.7115,-2.27636 2.1943,0 3.6709,0.58447 v 2.85058 q -1.5381,-0.89209 -3.4864,-0.89209 -2.2866,0 -3.6709,1.48682 -1.374,1.48682 -1.374,3.87598 0,2.34814 1.3125,3.75293 1.3125,1.40478 3.4966,1.40478 2.061,0 3.7222,-0.98437 z M 1033.8279,797 v -15.94482 h 2.8506 V 797 Z m 5.1474,-5.32178 q 0,-2.64551 1.5586,-4.17334 1.5586,-1.53808 4.2246,-1.53808 2.5738,0 4.0606,1.50732 1.4971,1.49707 1.4971,4.01953 0,2.625 -1.5484,4.2041 -1.5381,1.56885 -4.1733,1.56885 -2.584,0 -4.1016,-1.50732 -1.5176,-1.51758 -1.5176,-4.08106 z m 2.8916,-0.041 q 0,3.39404 2.8199,3.39404 2.7173,0 2.7173,-3.47607 0,-3.36329 -2.7276,-3.36329 -1.333,0 -2.0713,0.92286 -0.7383,0.91259 -0.7383,2.52246 z m 18.7134,4.94238 q -1.1587,0.68701 -3.1684,0.68701 -2.42,0 -3.9273,-1.48681 -1.4971,-1.49708 -1.4971,-3.90674 0,-2.74805 1.6099,-4.32715 1.6099,-1.5791 4.2964,-1.5791 1.7534,0 2.6865,0.51269 v 2.51221 q -1.0869,-0.79981 -2.3994,-0.79981 -1.4971,0 -2.3994,0.94336 -0.9023,0.93311 -0.9023,2.53272 0,1.5791 0.851,2.47119 0.8511,0.89209 2.3379,0.89209 1.3023,0 2.5122,-0.82031 z M 1073.1311,797 h -3.5376 l -3.8247,-5.30127 h -0.031 V 797 h -2.8608 v -15.94482 h 2.8608 v 10.14111 h 0.031 l 3.5991,-4.97315 h 3.4556 l -4.1939,5.10645 z m 16.7344,-15.09375 -7.3213,17.5957 h -2.5737 l 7.3007,-17.5957 z M 1110.9373,797 h -3.3838 l -2.3994,-3.98877 q -0.7281,-1.20996 -1.2408,-1.58936 -0.5127,-0.37939 -1.1074,-0.37939 h -1.0664 V 797 h -2.9224 v -15.09375 h 5.127 q 5.2295,0 5.2295,4.08105 0,1.49707 -0.8819,2.6045 -0.8715,1.09716 -2.4917,1.55859 v 0.041 q 1.0357,0.34863 2.2867,2.32763 z m -9.1978,-12.81738 v 4.57324 h 1.7432 q 1.1894,0 1.8969,-0.68701 0.7178,-0.69727 0.7178,-1.73291 0,-2.15332 -2.5635,-2.15332 z m 19.3184,8.23388 h -7.1983 q 0.1743,2.74805 3.1172,2.74805 1.7944,0 3.1992,-0.94336 v 2.17383 q -1.497,0.87158 -3.8452,0.87158 -2.5122,0 -3.917,-1.45605 -1.3945,-1.45606 -1.3945,-4.0708 0,-2.56348 1.4971,-4.16309 1.5073,-1.60986 3.7631,-1.60986 2.2559,0 3.5171,1.38427 1.2613,1.38428 1.2613,3.8042 z m -2.6968,-1.87646 q 0,-2.56348 -2.1123,-2.56348 -0.8819,0 -1.5586,0.69727 -0.6665,0.69726 -0.8306,1.86621 z m 4.5014,3.69141 q 1.5997,1.00488 3.1583,1.00488 2.0097,0 2.0097,-1.13819 0,-0.78955 -1.5893,-1.333 -2.3174,-0.7793 -2.9429,-1.52784 -0.6255,-0.75878 -0.6255,-1.93798 0,-1.5586 1.2715,-2.44043 1.2715,-0.89209 3.271,-0.89209 1.3945,0 2.789,0.44091 v 2.32764 q -1.2612,-0.74853 -2.7583,-0.74853 -0.7895,0 -1.2714,0.29736 -0.482,0.29736 -0.482,0.78955 0,0.81006 1.3433,1.28174 1.5278,0.55371 2.2456,0.9331 0.7178,0.36914 1.1177,1.01514 0.3999,0.646 0.3999,1.51758 0,1.64062 -1.3125,2.54297 -1.3023,0.90234 -3.4453,0.90234 -1.8047,0 -3.1788,-0.57422 z m 19.4415,-1.81495 h -7.1983 q 0.1743,2.74805 3.1172,2.74805 1.7944,0 3.1992,-0.94336 v 2.17383 q -1.4971,0.87158 -3.8452,0.87158 -2.5122,0 -3.917,-1.45605 -1.3945,-1.45606 -1.3945,-4.0708 0,-2.56348 1.4971,-4.16309 1.5073,-1.60986 3.7631,-1.60986 2.2559,0 3.5171,1.38427 1.2613,1.38428 1.2613,3.8042 z m -2.6968,-1.87646 q 0,-2.56348 -2.1123,-2.56348 -0.8819,0 -1.5586,0.69727 -0.6665,0.69726 -0.8306,1.86621 z m 10.9204,6.34717 q -0.728,0.36914 -2.0303,0.36914 -3.312,0 -3.312,-3.50684 v -5.35254 h -1.7842 v -2.17383 h 1.7842 v -2.40966 l 2.8506,-0.83057 v 3.24023 h 2.4917 v 2.17383 h -2.4917 v 4.8501 q 0,1.78418 1.4048,1.78418 0.5844,0 1.0869,-0.32813 z"
       id="text54"
       class="wire-label"
       style="font-weight:800;font-size:21px;font-family:'Malgun Gothic', '맑은 고딕', Arial, sans-serif;text-anchor:middle;fill:#172638"
       aria-label="Clock / Reset" />
  </g>
  <!-- External I/O labels -->
  <path
     d="m 38.085937,620.89648 q 0,6.35743 -5.878906,6.35743 -5.654297,0 -5.654297,-6.18164 V 612.625 h 2.792969 v 8.44727 q 0,3.75976 3.007813,3.75976 2.949218,0 2.949218,-3.63281 V 612.625 h 2.783203 z M 53.046875,627 h -3.037109 l -1.16211,-3.4375 h -5.40039 L 42.314453,627 h -3.037109 l 5.322265,-14.375 H 47.8125 Z m -4.892578,-5.64453 -1.757813,-5.20508 q -0.107422,-0.3125 -0.224609,-1.19141 h -0.06836 q -0.07813,0.6543 -0.244141,1.17188 l -1.767578,5.22461 z M 66.474609,627 h -3.222656 l -2.285156,-3.79883 q -0.69336,-1.15234 -1.181641,-1.51367 -0.488281,-0.36133 -1.054687,-0.36133 H 57.714844 V 627 h -2.783203 v -14.375 h 4.882812 q 4.980469,0 4.980469,3.88672 0,1.42578 -0.839844,2.48047 -0.830078,1.04492 -2.373047,1.48437 v 0.0391 q 0.986328,0.33204 2.177735,2.2168 z m -8.759765,-12.20703 v 4.35547 H 59.375 q 1.132812,0 1.806641,-0.6543 0.683593,-0.66406 0.683593,-1.65039 0,-2.05078 -2.441406,-2.05078 z m 19.482422,0.14648 H 73.085937 V 627 H 70.292969 V 614.93945 H 66.191406 V 612.625 h 11.00586 z M 89.023437,612.625 V 627 H 86.240234 V 612.625 Z M 104.98047,627 h -2.91016 l -6.357419,-9.73633 q -0.390625,-0.5957 -0.644532,-1.11328 h -0.03906 q 0.07813,0.68359 0.07813,2.22656 V 627 h -2.65625 v -14.375 h 3.105469 l 6.132809,9.48242 q 0.46875,0.72266 0.6836,1.11328 h 0.0391 q -0.0781,-0.38086 -0.0781,-2.01172 V 612.625 h 2.64649 z"
     id="text55"
     class="io-label"
     style="font-weight:800;font-size:20px;font-family:'Malgun Gothic', '맑은 고딕', Arial, sans-serif;fill:#44596e"
     aria-label="UART IN" />
  <path
     d="m 1813.0859,541.89648 q 0,6.35743 -5.8789,6.35743 -5.6543,0 -5.6543,-6.18164 V 533.625 h 2.793 v 8.44727 q 0,3.75976 3.0078,3.75976 2.9492,0 2.9492,-3.63281 V 533.625 h 2.7832 z M 1828.0469,548 h -3.0371 l -1.1621,-3.4375 h -5.4004 L 1817.3145,548 h -3.0372 l 5.3223,-14.375 h 3.2129 z m -4.8926,-5.64453 -1.7578,-5.20508 q -0.1074,-0.3125 -0.2246,-1.19141 h -0.068 q -0.078,0.6543 -0.2441,1.17188 l -1.7676,5.22461 z M 1841.4746,548 h -3.2226 l -2.2852,-3.79883 q -0.6934,-1.15234 -1.1816,-1.51367 -0.4883,-0.36133 -1.0547,-0.36133 h -1.0157 V 548 h -2.7832 v -14.375 h 4.8829 q 4.9804,0 4.9804,3.88672 0,1.42578 -0.8398,2.48047 -0.8301,1.04492 -2.3731,1.48437 v 0.0391 q 0.9864,0.33204 2.1778,2.2168 z m -8.7598,-12.20703 v 4.35547 h 1.6602 q 1.1328,0 1.8066,-0.6543 0.6836,-0.66406 0.6836,-1.65039 0,-2.05078 -2.4414,-2.05078 z m 19.4825,0.14648 h -4.1114 V 548 h -2.7929 v -12.06055 h -4.1016 V 533.625 h 11.0059 z m 8.1445,5.0586 q 0,-3.38868 1.9434,-5.49805 1.9531,-2.10938 5.1855,-2.10938 3.0664,0 4.9316,2.05079 1.875,2.04101 1.875,5.24414 0,3.3789 -1.9335,5.47851 -1.9239,2.08985 -5.0977,2.08985 -3.0859,0 -5,-2.04102 -1.9043,-2.04102 -1.9043,-5.21484 z m 2.9297,-0.15625 q 0,2.1875 1.0742,3.59375 1.084,1.39648 2.9395,1.39648 1.9238,0 2.9882,-1.32812 1.0743,-1.33789 1.0743,-3.62305 0,-2.35352 -1.0352,-3.71094 -1.0352,-1.35742 -2.9297,-1.35742 -1.914,0 -3.0176,1.42578 -1.0937,1.41602 -1.0937,3.60352 z m 24.8828,1.05468 q 0,6.35743 -5.8789,6.35743 -5.6543,0 -5.6543,-6.18164 V 533.625 h 2.793 v 8.44727 q 0,3.75976 3.0078,3.75976 2.9492,0 2.9492,-3.63281 V 533.625 h 2.7832 z m 12.8711,-5.95703 h -4.1113 V 548 h -2.793 v -12.06055 h -4.1016 V 533.625 h 11.0059 z"
     id="text56"
     class="io-label"
     style="font-weight:800;font-size:20px;font-family:'Malgun Gothic', '맑은 고딕', Arial, sans-serif;fill:#44596e"
     aria-label="UART OUT" />
  <path
     style="fill:#748193;stroke:#748193;stroke-width:5;stroke-linejoin:bevel;fill-opacity:1;stroke-opacity:1;stroke-dasharray:13.00000108, 10;stroke-dashoffset:0;marker-end:url(#gray-arrow)"
     d="M 1927.0939,228.51363 C 1595.636,227.948 1595.636,227.948 1595.636,227.948"
     id="path56" />
  <path
     style="fill:#748193;fill-opacity:1;stroke:#748193;stroke-width:5;stroke-linejoin:bevel;stroke-dasharray:13, 10;stroke-dashoffset:0;stroke-opacity:1;marker-end:url(#gray-arrow)"
     d="M 1928.7908,313.3578 H 1573.5765"
     id="path57" />
  <path
     style="fill:#748193;fill-opacity:1;stroke:#748193;stroke-width:5;stroke-linejoin:bevel;stroke-dasharray:13, 10;stroke-dashoffset:0;stroke-opacity:1;marker-end:url(#gray-arrow)"
     d="M 1483.6417,790.18203 V 610.87802"
     id="path58" />
</svg>
