<svg xmlns="http://www.w3.org/2000/svg" width="1100" height="620" viewBox="0 0 1100 620">
<rect width="100%" height="100%" fill="white"/>
<text x="550.0" y="30" text-anchor="middle" font-family="Arial" font-size="20" font-weight="bold">XMODEL-aligned stress code difference after 2 s</text>
<line x1="90" y1="545.00" x2="1070" y2="545.00" stroke="#dddddd"/>
<text x="80" y="549.00" text-anchor="end" font-family="Arial" font-size="12">-59.7</text>
<line x1="90" y1="447.00" x2="1070" y2="447.00" stroke="#dddddd"/>
<text x="80" y="451.00" text-anchor="end" font-family="Arial" font-size="12">163</text>
<line x1="90" y1="349.00" x2="1070" y2="349.00" stroke="#dddddd"/>
<text x="80" y="353.00" text-anchor="end" font-family="Arial" font-size="12">386</text>
<line x1="90" y1="251.00" x2="1070" y2="251.00" stroke="#dddddd"/>
<text x="80" y="255.00" text-anchor="end" font-family="Arial" font-size="12">609</text>
<line x1="90" y1="153.00" x2="1070" y2="153.00" stroke="#dddddd"/>
<text x="80" y="157.00" text-anchor="end" font-family="Arial" font-size="12">832</text>
<line x1="90" y1="55.00" x2="1070" y2="55.00" stroke="#dddddd"/>
<text x="80" y="59.00" text-anchor="end" font-family="Arial" font-size="12">1.06e+03</text>
<line x1="90.00" y1="55" x2="90.00" y2="545" stroke="#eeeeee"/>
<text x="90.00" y="567" text-anchor="middle" font-family="Arial" font-size="12">0</text>
<line x1="286.00" y1="55" x2="286.00" y2="545" stroke="#eeeeee"/>
<text x="286.00" y="567" text-anchor="middle" font-family="Arial" font-size="12">3.8</text>
<line x1="482.00" y1="55" x2="482.00" y2="545" stroke="#eeeeee"/>
<text x="482.00" y="567" text-anchor="middle" font-family="Arial" font-size="12">7.6</text>
<line x1="678.00" y1="55" x2="678.00" y2="545" stroke="#eeeeee"/>
<text x="678.00" y="567" text-anchor="middle" font-family="Arial" font-size="12">11.4</text>
<line x1="874.00" y1="55" x2="874.00" y2="545" stroke="#eeeeee"/>
<text x="874.00" y="567" text-anchor="middle" font-family="Arial" font-size="12">15.2</text>
<line x1="1070.00" y1="55" x2="1070.00" y2="545" stroke="#eeeeee"/>
<text x="1070.00" y="567" text-anchor="middle" font-family="Arial" font-size="12">19</text>
<polyline points="90.00,518.16 141.58,515.77 193.16,512.77 244.74,506.76 296.32,506.76 347.89,505.97 399.47,458.81 451.05,518.75 502.63,454.35 554.21,518.75 605.79,518.38 657.37,516.97 708.95,515.21 760.53,518.13 812.11,518.61 863.68,518.67 915.26,518.74 966.84,409.39 1018.42,300.01 1070.00,81.25" fill="none" stroke="#1565c0" stroke-width="1.6"/>
<line x1="105" y1="600" x2="129" y2="600" stroke="#1565c0" stroke-width="2.5"/>
<text x="135" y="604" font-family="Arial" font-size="12">RMS code difference</text>
<line x1="90" y1="545" x2="1070" y2="545" stroke="#222"/>
<line x1="90" y1="55" x2="90" y2="545" stroke="#222"/>
<text x="580.0" y="578" text-anchor="middle" font-family="Arial" font-size="14">case index (see CSV)</text>
<text transform="translate(24 300.0) rotate(-90)" text-anchor="middle" font-family="Arial" font-size="14">LSB</text>
</svg>